<svg width="185" height="333" viewBox="0 0 185 333" fill="none" xmlns="http://www.w3.org/2000/svg">
<path fill-rule="evenodd" clip-rule="evenodd" d="M151.938 324.014C157.358 323.719 157.167 323.367 159.926 326.315C161.492 327.988 164.194 330.149 165.068 332.148L151.929 332.054L151.938 324.014ZM91.351 331.944L76.3193 332.192C75.691 330.675 75.8939 325.316 76.2462 323.864C78.6661 323.48 89.8575 323.288 91.6565 324.077C91.9669 325.607 92.2153 330.859 91.351 331.944ZM11.4554 323.966L15.2342 323.964L15.3657 332.009L2.23167 332.092C3.01748 330.531 4.9615 328.912 6.26687 327.545C7.72701 326.016 8.71262 323.961 11.4554 323.966ZM92.4624 324.297L151.142 324.283L151.226 326.521L151.211 329.76L151.215 331.809L121.451 331.795L119.251 331.795L92.4495 331.792L92.4624 324.297ZM16.1667 324.256L75.5313 324.288L75.5906 326.984L75.5826 329.76L75.5875 331.659L73.0543 331.827L48.8538 331.796L16.1493 331.797L16.1667 324.256ZM0.931643 316.831L8.60381 316.734C8.61273 323.1 9.41237 322.067 6.08805 325.506C4.5686 327.078 2.56393 329.717 0.878575 330.706L0.931643 316.831ZM1.16891 297.876L8.29519 297.942L8.31213 315.986L1.14527 316.016L1.16891 297.876ZM8.49008 290.813L8.51461 297.053C6.71286 297.696 2.41943 297.768 0.899981 296.988L0.865193 290.721L8.49008 290.813ZM140.648 281.803L157.563 281.787L157.512 289.889L140.55 289.735L140.648 281.803ZM1.9458 290.082C2.6888 288.369 8.56099 281.978 10.588 281.78L58.9369 281.824L58.866 289.854L1.9458 290.082ZM1.03778 244.274L8.47982 244.211C9.26474 251.258 8.6047 262.978 8.6047 270.532C8.6047 276.74 9.46275 279.714 7.03708 282.092C4.86606 284.222 3.02507 286.292 0.890617 288.391L1.03778 244.274ZM8.37769 213.621L8.35005 243.181C7.67484 243.801 9.48506 243.669 7.05537 243.829L0.983373 243.491L1.06722 213.335C2.62636 212.807 3.22174 212.988 4.85759 212.979C9.45116 212.951 7.99638 212.986 8.37769 213.621ZM0.860729 188.86L8.65955 188.755C8.46823 193.469 8.16407 196.29 8.53825 201.125C8.74384 203.788 8.79959 210.084 8.45129 212.601L0.90622 212.545L0.860729 188.86ZM121.096 191.818L157.594 191.675L157.655 199.926L121.088 199.888L121.096 191.818ZM9.74284 191.679L80.3599 191.606C80.4906 193.955 81.5904 198.33 82.3169 199.908L9.79948 199.996L9.74284 191.679ZM123.651 190.285C122.956 188.841 123.111 181.194 123.651 179.765C124.584 180.419 124.312 179.345 124.309 181.69L124.311 188.169C124.31 190.179 124.751 189.748 123.651 190.285ZM1.11361 170.011L8.30366 170.102L8.26085 188.092L1.15374 188.113L1.11361 170.011ZM0.990069 147.064L8.53691 147.002C8.75767 150.645 8.72868 154.47 8.49053 158.092C8.28315 161.24 8.58775 165.899 8.62432 169.27L0.887492 169.164L0.990069 147.064ZM123.407 159.185C124.149 159.734 124.27 159.356 124.369 160.932C124.49 162.854 124.312 162.217 123.449 162.537L123.407 159.185ZM27.8861 159.48C29.4551 158.476 50.3621 159.113 54.1337 159.113C56.0889 159.113 78.4319 158.649 80.2337 159.48C78.7691 160.717 75.3373 160.135 73.4932 160.137H33.8943C31.3549 160.137 28.8664 160.588 27.8861 159.48ZM9.89001 159.48C10.1857 159.356 9.92791 159.259 11.0344 159.103C13.3227 158.779 13.1059 159.405 13.2469 159.48C12.9454 159.767 14.0831 160.399 11.4576 160.235C8.22339 160.032 11.1316 160.43 9.89001 159.48ZM81.4918 162.7C81.544 160.28 81.2947 154.99 81.853 153.799C82.4212 154.547 82.1019 153.654 82.4141 154.873C82.9051 156.787 82.3481 192.603 82.3293 192.826C80.8496 190.083 81.3665 168.454 81.4918 162.7ZM124.728 157.878C129.654 157.726 153.06 157.448 157.504 158.092C157.005 159.062 157.973 158.824 155.769 158.824L127.171 158.822C125.237 158.822 125.597 159.138 124.728 157.878ZM158.642 135.633L166.679 135.513C166.776 137.315 167.103 147.645 166.288 148.211C167.228 192.575 166.536 240.104 166.305 284.877C166.267 292.317 166.568 299.995 166.568 307.549C166.568 315.092 166.3 323.194 166.654 330.668C164.178 328.645 162.089 326.041 160.008 323.92C158.27 322.151 158.75 321.839 158.783 318.661L159.096 287.21C159.147 279.038 158.881 270.215 158.786 261.74L158.791 185.855C158.82 177.826 158.315 168.215 158.816 160.403C159.15 155.202 159.209 141.289 158.642 135.633ZM1.28977 116.108L8.29162 116.166L8.3099 146.268L1.14393 146.286L1.28977 116.108ZM81.853 136.647C80.9727 135.261 81.2617 107.011 81.853 105.885C82.6036 106.679 82.2968 104.653 82.5202 107.616L82.4841 133.579C82.526 137.853 82.3597 136.125 81.853 136.647ZM8.31971 105.067C9.13764 106.052 8.77818 113.394 8.60871 115.304C6.70973 116.082 2.35208 116.114 0.840662 115.215L0.993183 91.5359L8.66445 91.476L8.31971 105.067ZM129.693 109.507C130.587 108.784 128.564 109.049 131.539 108.85C131.873 108.829 132.91 108.899 133.33 108.904L154.455 108.898C158.601 108.836 156.867 108.916 157.551 109.507C155.985 110.468 130.136 109.982 130.005 109.678C129.944 109.539 129.796 109.565 129.693 109.507ZM113.386 109.507C112.399 110.214 111.626 109.972 110.172 109.904C110.256 109.386 110.912 108.95 111.786 108.864C113.917 108.653 113.187 109.296 113.386 109.507ZM103.851 103.954C104.534 103.307 103.877 103.52 105.172 103.314C106.609 103.084 108.075 104.021 108.666 102.505C109.335 100.79 107.937 60.4415 109.131 58.2517C110.403 59.5318 109.856 68.9841 109.681 70.6388L109.792 96.5503C109.792 99.8508 110.687 106.382 108.881 108.488L108.466 104.731C108.19 104.604 108.357 104.53 107.363 104.375C105.666 104.11 105.313 104.748 103.851 103.954ZM9.87038 103.954C11.3961 102.87 17.3365 103.332 19.8152 103.332L83.1758 103.315C83.8247 103.313 85.2938 103.238 85.8392 103.298C88.4067 103.578 86.7503 103.214 87.4599 103.954C85.9596 104.855 26.7747 104.256 14.5358 104.329L9.87038 103.954ZM1.26791 60.5719L8.29207 60.6352L8.30856 90.7355L1.14438 90.7529L1.26791 60.5719ZM134.21 71.4766C142.003 71.4753 149.804 71.4422 157.583 71.4753L157.646 75.0208L110.966 75.0971L110.99 72.0265C111.116 71.9538 111.275 71.894 111.391 71.8569C114.516 70.845 127.888 71.4771 134.21 71.4766ZM159.089 72.9518C159.139 67.7807 158.79 61.4392 158.791 55.831C158.793 47.6638 158.402 27.6171 158.756 21.0872C158.893 18.5706 164.6 13.095 166.666 11.4435C166.096 31.6674 166.401 61.2615 166.462 82.2064L166.72 116.776L158.708 116.526C159.284 106.559 158.447 90.9257 158.711 80.3512L159.089 72.9518ZM1.06722 43.9523L8.57704 43.893L8.66268 59.9425L0.876343 59.8715L1.06722 43.9523ZM8.34424 25.3536L8.37769 42.8726C7.25204 44.0996 2.37527 43.6091 0.973563 43.1587L1.08595 25.0286C2.57507 24.6028 3.31584 24.7505 4.85804 24.7385C8.98021 24.7068 7.95446 24.6934 8.34424 25.3536ZM109.131 40.9925C108.421 39.6136 108.702 20.2614 109.131 19.4812C110.141 20.4239 109.808 20.0597 109.819 22.0272L109.834 38.7419C109.829 38.9494 109.782 39.9002 109.743 40.0636C109.434 41.371 109.885 40.1863 109.131 40.9925ZM0.912469 10.0102L8.19485 10.1102L8.49588 24.2966L0.907559 24.2502L0.912469 10.0102ZM9.9074 10.0928L165.261 10.0562L157.53 18.168L28.1751 18.1854C23.1516 18.1872 14.5545 18.7103 9.90071 18.064L9.9074 10.0928ZM0 332.999H167.359L167.327 293.628C167.347 288.489 168.335 292.917 168.578 288.622L168.295 281.409C168.294 281.411 167.402 280.985 167.325 278.905L167.362 163.645C167.345 153.716 167.519 160.062 168.441 156.608C168.985 154.571 168.365 150.29 168.756 147.723L167.368 147.449L167.386 134.303L164.667 134.179C164.257 134.877 165.637 134.661 163.689 134.867L157.895 134.689L157.928 156.928L122.545 157.027L122.307 163.161C123.051 163.689 122.59 163.429 123.696 163.703C123.756 163.718 125.026 163.872 125.117 163.882L125.327 159.856C129.115 159.235 137.406 159.725 141.69 159.725C144.478 159.725 147.265 159.743 150.05 159.73C152.518 159.719 157.339 159.164 157.827 160.403L157.891 190.022C157.168 191.005 158.892 190.819 156.649 190.855L125.848 190.797C124.708 189.978 125.094 189.793 125.101 187.739C125.105 186.66 125.137 185.557 125.141 184.467C125.145 183.427 125.218 182.188 125.2 181.195C125.145 178.206 124.875 178.686 124.422 178.41L123.175 178.454C122.355 179.138 123.221 177.914 122.472 179.085L122.448 190.482C122.037 190.66 121.341 190.845 121.094 190.98C119.825 191.675 121.127 190.454 120.215 191.698C120.353 193.581 120.583 196.4 119.961 197.888L119.836 200.199C122.073 201.547 151.437 200.142 157.757 200.93L157.868 203.435L157.943 218.218L157.92 219.328L157.885 228.956L157.901 230.091L157.919 240.757L157.851 260.813L157.975 269.23L157.945 270.585L157.689 280.891L140.37 280.85C139.598 282.098 140.069 282.444 139.202 283.356L139.639 289.945L139.582 290.65L157.916 290.779L157.785 323.088C133.015 323.424 108.228 323.103 83.6129 323.103C66.5114 323.103 23.276 324.301 9.28392 323.025L9.37846 290.924C12.6136 290.307 57.0522 290.43 59.5822 291.112C60.0773 289.266 59.2781 287.41 60.3306 285.778L60.1812 283.449L59.4132 281.689C59.3628 281.585 59.237 281.525 59.1987 281.298C59.1599 281.067 59.0676 281.02 58.9735 280.954L10.5755 280.961C8.83928 280.842 9.9734 281.075 9.45963 280.251L9.17421 220.559C9.17421 214.495 9.06985 206.822 9.45874 200.759L83.2904 200.837L83.3341 153.051L82.8217 152.517L80.966 152.462L80.5744 154.171L80.5124 158.123L27.1636 157.987C26.7284 159.112 26.8537 159.301 26.6583 160.929C33.6111 161.198 78.4217 160.063 80.5218 161.326L80.5548 190.637C78.4948 191.574 68.8742 191.097 66.0155 190.786L57.2114 190.817L55.456 190.809L46.6524 190.803L9.34502 190.806L9.22684 188.246L9.1314 169.777L9.35706 160.885L14.5643 160.672L14.5023 159.984L14.5674 158.73L13.8423 158.332L9.27767 158.007L9.40701 105.387L80.5227 105.402L80.5682 137.644L83.224 137.754L83.3114 105.488C85.3522 105.247 86.9407 105.757 88.6466 104.883L88.7242 103.028C87.3368 102.073 85.3473 102.406 83.6129 102.422L9.49174 102.317C9.01589 97.7185 8.95791 65.627 9.29016 60.4585C9.93505 50.4304 8.18414 26.8703 9.5573 19.0607L107.576 19.0692C108.838 23.948 106.526 39.3753 108.436 42.4382L109.654 42.3258C110.955 41.5526 110.08 42.5003 110.544 40.9951C111.116 39.1427 109.924 21.239 111.051 19.1906L156.649 18.9384C158.591 19.0304 157.275 18.8335 157.868 19.6731C158.471 27.8818 157.858 53.3764 157.917 65.0864C157.94 69.746 158.615 70.4678 156.834 70.6664L128.032 70.6196L110.64 70.4397L110.011 56.9068L108.252 57.0407C107.053 59.6108 107.668 96.6244 107.883 102.352L102.677 102.89L102.94 105.311L107.807 105.381L107.909 110.862L114.159 111.05L114.595 108.071L110.509 107.964L110.611 75.7577L130.689 75.8568L141.248 75.9148L145.652 75.8737L155.364 75.6849C155.931 75.6956 156.445 75.7099 156.994 75.8255C158.016 76.042 157.355 75.7934 157.94 76.2188L157.886 105.43L157.885 106.648L157.829 107.993L130.248 107.946C128.353 108.218 129.136 107.934 128.503 108.715L128.4 110.339L128.954 110.824L157.891 110.957C157.915 112.231 157.843 113.41 157.837 114.644C157.824 116.96 157.275 117.616 159.129 117.425L166.331 117.956C167.731 117.024 167.067 117.9 167.424 116.006L167.37 110.432C167.369 109.066 166.437 107.533 166.462 106.206C166.5 104.127 164.884 104.062 166.462 103.838C166.814 97.7136 165.96 105.177 166.462 94.6578C166.669 90.3026 166.091 95.0863 166.462 90.5913C166.632 88.5376 166.13 87.0012 166.462 84.727V84.5203L167.34 9.09692H0V332.999Z" fill="black"/>
<path fill-rule="evenodd" clip-rule="evenodd" d="M16.1493 331.798L48.8537 331.796L73.0543 331.827L75.5874 331.659L75.5825 329.76L75.5905 326.984L75.5313 324.288L16.1667 324.256L16.1493 331.798Z" fill="white"/>
<path fill-rule="evenodd" clip-rule="evenodd" d="M92.449 331.793L119.251 331.795L121.451 331.796L151.214 331.809L151.211 329.761L151.225 326.521L151.141 324.283L92.462 324.297L92.449 331.793Z" fill="white"/>
<path fill-rule="evenodd" clip-rule="evenodd" d="M60.1807 283.449L60.3301 285.779L60.1553 290.175C63.2629 290.113 66.4316 290.115 69.5347 290.152C77.0967 290.242 72.9834 290.279 74.8124 285.891L75.5589 290.135C79.1812 290.164 86.6683 290.737 89.7883 289.767L89.6313 283.554L89.6425 281.472L60.2365 281.465L60.1807 283.449Z" fill="white"/>
<path fill-rule="evenodd" clip-rule="evenodd" d="M110.161 285.947L109.966 290.055C112.321 290.231 114.695 290.148 117.051 290.148C121.668 290.149 121.5 290.396 123.542 289.848C123.645 289.821 123.802 289.773 123.923 289.712L124.422 285.856C124.599 285.958 124.668 286.005 124.687 286.176L125.287 290.1L139.639 289.945L139.201 283.357L139.05 281.799L109.554 281.855C109.558 283.632 109.944 283.951 110.161 285.947Z" fill="white"/>
<path fill-rule="evenodd" clip-rule="evenodd" d="M1.14432 90.754L8.30851 90.7367L8.29201 60.6364L1.26785 60.573L1.14432 90.754Z" fill="white"/>
<path fill-rule="evenodd" clip-rule="evenodd" d="M1.14481 146.287L8.31078 146.268L8.2925 116.167L1.29064 116.108L1.14481 146.287Z" fill="white"/>
<path fill-rule="evenodd" clip-rule="evenodd" d="M8.34983 243.182L8.37748 213.622L1.37741 213.439L1.29623 243.369L8.34983 243.182Z" fill="white"/>
<path fill-rule="evenodd" clip-rule="evenodd" d="M90.8773 281.805L108.714 281.803L108.588 289.885L90.7574 289.806L90.8773 281.805ZM102.092 280.34C101.068 279.603 101.538 280.778 101.373 278.438L101.416 260.353C101.416 249.039 100.935 205.771 101.486 198.102C102.502 202.129 102.402 202.426 102.401 207.14C102.397 219.109 102.911 278.219 102.092 280.34ZM104.291 199.994C102.52 198.359 102.401 193.693 101.666 191.674L104.664 191.798C104.623 193.21 104.602 194.623 104.621 196.036C104.658 198.69 104.94 198.51 104.291 199.994ZM89.6317 283.554L89.7887 289.768L89.8828 290.728C95.0392 291.033 104.898 289.979 109.302 291.083C109.673 289.171 108.865 287.199 110.161 285.948C109.944 283.951 109.558 283.632 109.554 281.856C109.174 281.205 109.659 280.807 106.502 280.831C105.575 280.838 104.565 280.889 103.623 280.909C102.715 278.294 103.168 209.761 103.263 201.011L103.854 200.765L105.975 200.19L105.523 197.886L105.546 191.763C104.68 190.246 106.016 191.649 104.638 191.029C103.942 190.717 104.233 190.861 103.462 190.775C102.541 190.671 101.773 190.807 100.581 190.647L100.437 280.942L90.6521 280.899C90.5727 281.021 90.5148 281.192 90.4697 281.298L89.6317 283.554Z" fill="black"/>
<path fill-rule="evenodd" clip-rule="evenodd" d="M83.4434 200.27L100.3 200.141L100.333 191.291L83.4514 191.373L83.4434 200.27Z" fill="white"/>
<path fill-rule="evenodd" clip-rule="evenodd" d="M1.14487 316.016L8.31173 315.986L8.29479 297.942L1.16851 297.876L1.14487 316.016Z" fill="white"/>
<path fill-rule="evenodd" clip-rule="evenodd" d="M1.15442 188.113L8.26153 188.092L8.30435 170.102L1.11429 170.011L1.15442 188.113Z" fill="white"/>
<path fill-rule="evenodd" clip-rule="evenodd" d="M164.667 134.18L166.443 133.569L166.331 117.957L159.129 117.426C158.462 120.108 158.847 130.258 158.847 134.034L164.667 134.18Z" fill="white"/>
<path fill-rule="evenodd" clip-rule="evenodd" d="M105.523 197.886C106.494 198.752 106.422 197.736 106.491 199.865L119.251 199.807C119.263 197.212 119.589 198.466 119.96 197.889C120.583 196.4 120.352 193.581 120.214 191.698L105.546 191.763L105.523 197.886Z" fill="white"/>
<path fill-rule="evenodd" clip-rule="evenodd" d="M80.9658 152.463L82.8215 152.517C82.7421 150.599 83.3322 139.709 82.2926 138.266C80.5537 138.618 81.0207 138.282 81.0684 140.925L80.9658 152.463Z" fill="white"/>
<path fill-rule="evenodd" clip-rule="evenodd" d="M128.399 110.34L128.502 108.716C126.741 108.507 116.363 107.981 114.837 109.045C115.163 110.876 114.94 110.368 117.449 110.32L128.399 110.34Z" fill="white"/>
<path fill-rule="evenodd" clip-rule="evenodd" d="M123.175 178.455L124.422 178.411C124.715 176.007 124.56 173.49 124.56 171.049L124.58 165.487C124.433 164.32 124.495 164.709 124.09 164.123C122.389 164.711 123.068 163.742 123.069 170.586C123.07 173.201 122.946 175.857 123.175 178.455Z" fill="white"/>
<path fill-rule="evenodd" clip-rule="evenodd" d="M14.5019 159.985L26.1892 160.197L26.2668 158.655L14.567 158.731L14.5019 159.985Z" fill="white"/>
<path fill-rule="evenodd" clip-rule="evenodd" d="M8.35074 243.181L1.29715 243.368L1.37832 213.439L8.37839 213.621C7.99708 212.987 9.45186 212.951 4.85829 212.979C3.22244 212.988 2.62706 212.807 1.06792 213.335L0.98407 243.492L7.05607 243.829C9.48576 243.669 7.67553 243.801 8.35074 243.181Z" fill="black"/>
<path fill-rule="evenodd" clip-rule="evenodd" d="M109.654 42.3259L108.435 42.4384C109.199 45.9509 108.667 52.3924 108.692 56.2963C110.248 56.2476 109.618 57.131 109.617 50.2788C109.616 47.6274 109.603 44.976 109.654 42.3259Z" fill="white"/>
<path fill-rule="evenodd" clip-rule="evenodd" d="M76.3191 332.192L76.1345 323.993L91.5965 323.896L91.3508 331.945C92.2151 330.86 91.9667 325.608 91.6563 324.078C89.8572 323.289 78.6658 323.481 76.246 323.864C75.8936 325.317 75.6907 330.676 76.3191 332.192Z" fill="black"/>
<path fill-rule="evenodd" clip-rule="evenodd" d="M0.841309 115.216C2.35273 116.114 6.71038 116.082 8.60935 115.305C8.77882 113.394 9.13828 106.053 8.32036 105.068L8.53042 115.441L0.841309 115.216Z" fill="black"/>
<path fill-rule="evenodd" clip-rule="evenodd" d="M166.288 148.212C167.103 147.646 166.776 137.315 166.679 135.514L158.642 135.633L166.615 135.572L166.288 148.212Z" fill="black"/>
<path fill-rule="evenodd" clip-rule="evenodd" d="M0.900696 296.989C2.42014 297.769 6.71357 297.697 8.51533 297.054L8.49079 290.814L8.56438 297.119L0.900696 296.989Z" fill="black"/>
<path d="M103.299 103.432V86.5974H104.039V103.432" stroke="black" stroke-width="0.0762" stroke-miterlimit="22.9256"/>
<path d="M103.299 86.5974C102.26 86.6635 101.221 86.73 99.928 87.0781C98.6346 87.4263 97.0884 88.0566 95.8125 88.7784C94.5366 89.5001 93.5313 90.313 92.7005 91.1365C91.8687 91.9596 91.2114 92.7939 90.6316 93.658C90.0518 94.5217 89.5487 95.4163 89.1433 96.3318C88.7371 97.2464 88.4276 98.1815 88.2344 98.9341C88.0413 99.6862 87.9637 100.255 87.8964 100.957C87.8286 101.658 87.7702 102.492 87.7126 103.325" stroke="black" stroke-width="0.2" stroke-miterlimit="22.9256"/>
<path d="M109.082 57.4475H125.089V58.2251H109.082" stroke="black" stroke-width="0.0762" stroke-miterlimit="22.9256"/>
<path d="M125.089 57.4471C125.026 56.3544 124.963 55.2617 124.632 53.902C124.301 52.542 123.702 50.9159 123.015 49.5736C122.329 48.2323 121.556 47.1749 120.773 46.3004C119.99 45.426 119.197 44.735 118.375 44.1248C117.554 43.5151 116.703 42.9862 115.833 42.5594C114.963 42.1323 114.074 41.8078 113.359 41.6042C112.644 41.4007 112.102 41.3194 111.435 41.2485C110.768 41.177 109.976 41.1163 109.183 41.0552" stroke="black" stroke-width="0.2" stroke-miterlimit="22.9256"/>
<path d="M114.058 108.189V91.3542H113.318V108.189" stroke="black" stroke-width="0.0762" stroke-miterlimit="22.9256"/>
<path d="M114.058 91.3542C115.097 91.4208 116.136 91.4868 117.428 91.835C118.722 92.1832 120.268 92.8134 121.544 93.5352C122.82 94.257 123.825 95.0698 124.657 95.8933C125.488 96.7169 126.145 97.5507 126.725 98.4144C127.305 99.2786 127.808 100.173 128.214 101.089C128.62 102.003 128.929 102.938 129.122 103.691C129.316 104.443 129.393 105.012 129.461 105.713C129.529 106.415 129.586 107.249 129.645 108.082" stroke="black" stroke-width="0.2" stroke-miterlimit="22.9256"/>
<path d="M81.944 153.204H65.937V153.981H81.944" stroke="black" stroke-width="0.0762" stroke-miterlimit="22.9256"/>
<path d="M65.937 153.203C65.9994 152.11 66.0627 151.017 66.3936 149.657C66.7245 148.298 67.3244 146.671 68.0107 145.329C68.6967 143.987 69.47 142.93 70.2531 142.056C71.0358 141.182 71.8288 140.491 72.6507 139.881C73.4718 139.271 74.3222 138.742 75.1928 138.315C76.0624 137.888 76.9517 137.563 77.6666 137.36C78.3824 137.156 78.9238 137.075 79.5906 137.004C80.2573 136.932 81.0503 136.872 81.8428 136.811" stroke="black" stroke-width="0.2" stroke-miterlimit="22.9256"/>
<path d="M14.2495 160.286V175.147H13.596V160.286" stroke="black" stroke-width="0.0762" stroke-miterlimit="22.9256"/>
<path d="M14.2493 175.148C15.1663 175.089 16.0836 175.031 17.2253 174.723C18.3666 174.417 19.7322 173.86 20.8583 173.223C21.9848 172.585 22.8723 171.868 23.6059 171.141C24.34 170.414 24.9202 169.678 25.4322 168.915C25.9442 168.152 26.388 167.362 26.7465 166.554C27.1051 165.747 27.3776 164.922 27.5488 164.257C27.7192 163.593 27.7874 163.091 27.8472 162.471C27.9074 161.852 27.9582 161.116 28.0095 160.38" stroke="black" stroke-width="0.2" stroke-miterlimit="22.9256"/>
<path d="M124.399 163.327H140.406V162.55H124.399" stroke="black" stroke-width="0.0762" stroke-miterlimit="22.9256"/>
<path d="M140.527 163.426C140.464 164.519 140.401 165.612 140.07 166.972C139.739 168.331 139.14 169.957 138.453 171.299C137.767 172.641 136.994 173.698 136.211 174.572C135.428 175.447 134.635 176.138 133.813 176.748C132.992 177.358 132.141 177.887 131.272 178.314C130.401 178.741 129.512 179.066 128.797 179.269C128.082 179.473 127.541 179.554 126.873 179.625C126.207 179.696 125.414 179.757 124.621 179.819" stroke="black" stroke-width="0.2" stroke-miterlimit="22.9256"/>
<path d="M105.771 199.311V214.832H105.089V199.311" stroke="black" stroke-width="0.0762" stroke-miterlimit="22.9256"/>
<path d="M105.771 214.831C106.729 214.771 107.687 214.709 108.879 214.388C110.071 214.067 111.497 213.486 112.673 212.82C113.85 212.155 114.776 211.405 115.543 210.646C116.309 209.887 116.915 209.118 117.45 208.321C117.985 207.525 118.448 206.7 118.822 205.856C119.197 205.013 119.482 204.151 119.66 203.457C119.839 202.764 119.909 202.239 119.972 201.592C120.035 200.945 120.088 200.177 120.141 199.408" stroke="black" stroke-width="0.2" stroke-miterlimit="22.9256"/>
<path d="M109.339 288.139V303.986H108.642V288.139" stroke="black" stroke-width="0.0762" stroke-miterlimit="22.9256"/>
<path d="M109.338 303.985C110.316 303.923 111.295 303.86 112.511 303.532C113.729 303.205 115.184 302.612 116.385 301.932C117.587 301.253 118.532 300.488 119.315 299.713C120.098 298.937 120.716 298.153 121.262 297.339C121.808 296.526 122.281 295.684 122.664 294.823C123.046 293.961 123.337 293.081 123.518 292.373C123.701 291.665 123.773 291.129 123.837 290.468C123.901 289.808 123.955 289.024 124.01 288.239" stroke="black" stroke-width="0.2" stroke-miterlimit="22.9256"/>
<path d="M139.647 288.163V304.499H140.365V288.163" stroke="black" stroke-width="0.0762" stroke-miterlimit="22.9256"/>
<path d="M139.648 304.499C138.639 304.434 137.631 304.37 136.376 304.032C135.122 303.694 133.621 303.083 132.383 302.382C131.145 301.682 130.169 300.893 129.363 300.094C128.556 299.295 127.918 298.486 127.355 297.647C126.792 296.809 126.305 295.941 125.911 295.053C125.517 294.165 125.217 293.258 125.029 292.528C124.842 291.798 124.766 291.246 124.701 290.565C124.635 289.884 124.579 289.075 124.522 288.267" stroke="black" stroke-width="0.2" stroke-miterlimit="22.9256"/>
<path d="M59.6412 289.445V305.142H58.9511V289.445" stroke="black" stroke-width="0.0762" stroke-miterlimit="22.9256"/>
<path d="M89.7781 289.41V305.745H90.4963V289.41" stroke="black" stroke-width="0.0762" stroke-miterlimit="22.9256"/>
<path d="M59.6409 305.143C60.61 305.082 61.5791 305.02 62.7846 304.695C63.9901 304.37 65.4324 303.783 66.6218 303.11C67.8116 302.436 68.7491 301.679 69.5242 300.91C70.2997 300.143 70.9125 299.365 71.4535 298.56C71.9945 297.754 72.4627 296.92 72.8414 296.066C73.22 295.213 73.5086 294.341 73.6887 293.64C73.8689 292.938 73.9412 292.407 74.004 291.753C74.0674 291.1 74.1213 290.322 74.1753 289.545" stroke="black" stroke-width="0.2" stroke-miterlimit="22.9256"/>
<path d="M89.7783 305.746C88.77 305.681 87.762 305.617 86.5071 305.279C85.2525 304.941 83.7518 304.33 82.5138 303.629C81.2757 302.929 80.2999 302.14 79.4936 301.341C78.6868 300.542 78.0491 299.733 77.4858 298.894C76.9234 298.056 76.4355 297.188 76.0417 296.3C75.6479 295.412 75.3473 294.505 75.16 293.775C74.9727 293.045 74.8974 292.492 74.8318 291.812C74.7658 291.131 74.7101 290.322 74.6534 289.513" stroke="black" stroke-width="0.2" stroke-miterlimit="22.9256"/>
<path fill-rule="evenodd" clip-rule="evenodd" d="M8.37728 42.8729L8.34384 25.3539L1.37097 25.1763L1.28534 43.0858L8.37728 42.8729Z" fill="white"/>
<path fill-rule="evenodd" clip-rule="evenodd" d="M8.37837 42.8735L1.28643 43.0864L1.37206 25.1769L8.34492 25.3545C7.95514 24.6943 8.98089 24.7077 4.85872 24.7394C3.31652 24.7515 2.57575 24.6037 1.08663 25.0296L0.974243 43.1596C2.37595 43.61 7.25272 44.1006 8.37837 42.8735Z" fill="black"/>
<path fill-rule="evenodd" clip-rule="evenodd" d="M26.7734 20.74H52.1357V55.4579H26.7734V20.74Z" stroke="black" stroke-width="0.2" stroke-miterlimit="22.9256"/>
<path fill-rule="evenodd" clip-rule="evenodd" d="M26.7734 20.7408H52.2392V18.7107H26.7734V20.7408Z" stroke="black" stroke-width="0.2" stroke-miterlimit="22.9256"/>
<path fill-rule="evenodd" clip-rule="evenodd" d="M27.9449 21.1028H38.7653V27.3358H27.9449V21.1028Z" stroke="black" stroke-width="0.2" stroke-miterlimit="22.9256"/>
<path fill-rule="evenodd" clip-rule="evenodd" d="M39.9714 21.0669H50.8256V27.3009H39.9714V21.0669Z" stroke="black" stroke-width="0.2" stroke-miterlimit="22.9256"/>
<path fill-rule="evenodd" clip-rule="evenodd" d="M51.8258 27.9519H26.7734V32.0835H51.8258V27.9519Z" stroke="black" stroke-width="0.2" stroke-miterlimit="22.9256"/>
<path fill-rule="evenodd" clip-rule="evenodd" d="M20.3113 19.5085C22.9858 19.5085 25.1537 20.9766 25.1537 22.788C25.1537 24.5993 22.9858 26.0679 20.3113 26.0679C17.6372 26.0679 15.4693 24.5993 15.4693 22.788C15.4693 20.9766 17.6372 19.5085 20.3113 19.5085Z" stroke="black" stroke-width="0.2" stroke-miterlimit="22.9256"/>
<path fill-rule="evenodd" clip-rule="evenodd" d="M58.2351 19.708C60.9092 19.708 63.0771 21.1766 63.0771 22.9879C63.0771 24.7993 60.9092 26.2673 58.2351 26.2673C55.5606 26.2673 53.3927 24.7993 53.3927 22.9879C53.3927 21.1766 55.5606 19.708 58.2351 19.708Z" stroke="black" stroke-width="0.2" stroke-miterlimit="22.9256"/>
<path fill-rule="evenodd" clip-rule="evenodd" d="M20.9602 91.5732H42.0197V102.427H20.9602V91.5732Z" stroke="black" stroke-width="0.2" stroke-miterlimit="22.9256"/>
<path fill-rule="evenodd" clip-rule="evenodd" d="M27.3853 86.009H35.961C36.3544 86.009 36.6764 86.3313 36.6764 86.725V90.8575C36.6764 91.2512 36.3544 91.5734 35.961 91.5734H27.3853C26.992 91.5734 26.67 91.2512 26.67 90.8575V86.725C26.67 86.3313 26.992 86.009 27.3853 86.009Z" stroke="black" stroke-width="0.2" stroke-miterlimit="22.9256"/>
<path fill-rule="evenodd" clip-rule="evenodd" d="M147.717 18.7739H157.985V29.9032H147.717V18.7739Z" stroke="black" stroke-width="0.2" stroke-miterlimit="22.9256"/>
<path fill-rule="evenodd" clip-rule="evenodd" d="M146.407 19.0498H147.482V29.3805H146.407V19.0498Z" stroke="black" stroke-width="0.2" stroke-miterlimit="22.9256"/>
<path d="M147.717 18.7739L158.142 29.738" stroke="black" stroke-width="0.2" stroke-miterlimit="22.9256"/>
<path d="M157.985 18.7739L147.69 29.5996" stroke="black" stroke-width="0.2" stroke-miterlimit="22.9256"/>
<path fill-rule="evenodd" clip-rule="evenodd" d="M150.507 32.626H158.103V54.664H150.507V32.626Z" stroke="black" stroke-width="0.2" stroke-miterlimit="22.9256"/>
<path fill-rule="evenodd" clip-rule="evenodd" d="M152.079 33.8389H156.165V42.6542H152.079V33.8389Z" stroke="black" stroke-width="0.2" stroke-miterlimit="22.9256"/>
<path fill-rule="evenodd" clip-rule="evenodd" d="M152.027 44.9675H156.113V53.7279H152.027V44.9675Z" stroke="black" stroke-width="0.2" stroke-miterlimit="22.9256"/>
<path d="M150.507 43.6458H158.103" stroke="black" stroke-width="0.2" stroke-miterlimit="22.9256"/>
<path fill-rule="evenodd" clip-rule="evenodd" d="M154.41 37.8057C154.714 37.8057 154.96 38.0641 154.96 38.3842C154.96 38.7033 154.714 38.9622 154.41 38.9622C154.106 38.9622 153.86 38.7033 153.86 38.3842C153.86 38.0641 154.106 37.8057 154.41 37.8057Z" stroke="black" stroke-width="0.2" stroke-miterlimit="22.9256"/>
<path fill-rule="evenodd" clip-rule="evenodd" d="M154.307 48.52C154.612 48.52 154.858 48.7789 154.858 49.0981C154.858 49.4181 154.612 49.6766 154.307 49.6766C154.003 49.6766 153.757 49.4181 153.757 49.0981C153.757 48.7789 154.003 48.52 154.307 48.52Z" stroke="black" stroke-width="0.2" stroke-miterlimit="22.9256"/>
<path fill-rule="evenodd" clip-rule="evenodd" d="M128.862 57.8867H157.99V70.5033H128.862V57.8867Z" stroke="black" stroke-width="0.2" stroke-miterlimit="22.9256"/>
<path fill-rule="evenodd" clip-rule="evenodd" d="M133.855 58.8772H152.736C154.703 58.8772 156.313 60.4886 156.313 62.4584V66.1503C156.313 68.1197 154.703 69.731 152.736 69.731H133.855C131.887 69.731 130.277 68.1197 130.277 66.1503V62.4584C130.277 60.4886 131.887 58.8772 133.855 58.8772Z" stroke="black" stroke-width="0.2" stroke-miterlimit="22.9256"/>
<path fill-rule="evenodd" clip-rule="evenodd" d="M153.59 63.2854C153.987 63.2854 154.31 63.692 154.31 64.1946C154.31 64.6963 153.987 65.1034 153.59 65.1034C153.192 65.1034 152.869 64.6963 152.869 64.1946C152.869 63.692 153.192 63.2854 153.59 63.2854Z" stroke="black" stroke-width="0.2" stroke-miterlimit="22.9256"/>
<path fill-rule="evenodd" clip-rule="evenodd" d="M146.115 106.369V75.7358H158.111V106.369H146.115Z" stroke="black" stroke-width="0.2" stroke-miterlimit="22.9256"/>
<path fill-rule="evenodd" clip-rule="evenodd" d="M147.057 101.474V80.907C147.057 79.0332 148.589 77.499 150.462 77.499H153.972C155.845 77.499 157.377 79.0332 157.377 80.907V101.474C157.377 103.349 155.845 104.881 153.972 104.881H150.462C148.589 104.881 147.057 103.349 147.057 101.474Z" stroke="black" stroke-width="0.2" stroke-miterlimit="22.9256"/>
<path fill-rule="evenodd" clip-rule="evenodd" d="M151.248 80.363C151.248 79.9447 151.635 79.6055 152.112 79.6055C152.59 79.6055 152.977 79.9447 152.977 80.363C152.977 80.7817 152.59 81.1204 152.112 81.1204C151.635 81.1204 151.248 80.7817 151.248 80.363Z" stroke="black" stroke-width="0.2" stroke-miterlimit="22.9256"/>
<path fill-rule="evenodd" clip-rule="evenodd" d="M130.246 18.835L130.531 18.8498C132.155 18.9319 133.203 20.2349 133.203 21.944V27.6231C133.203 29.3332 131.873 30.7321 130.246 30.7321C128.621 30.7321 127.291 29.3332 127.291 27.6231V21.944C127.291 20.234 128.623 18.7529 130.246 18.835Z" stroke="black" stroke-width="0.2" stroke-miterlimit="22.9256"/>
<path d="M127.36 25.8986C127.56 25.5125 127.761 25.1273 127.999 24.8126C128.237 24.4984 128.512 24.2547 128.833 24.0596C129.154 23.8645 129.52 23.7172 129.867 23.6556C130.215 23.5936 130.542 23.6164 130.841 23.6811C131.14 23.7454 131.411 23.8507 131.634 23.9837C131.856 24.1172 132.031 24.2774 132.197 24.4502C132.363 24.622 132.52 24.8055 132.662 25.0447C132.804 25.2831 132.93 25.5768 133.057 25.871" stroke="black" stroke-width="0.2" stroke-miterlimit="22.9256"/>
<path fill-rule="evenodd" clip-rule="evenodd" d="M128.558 21.6575C128.735 21.6575 128.879 21.8083 128.879 21.9949C128.879 22.1811 128.735 22.3319 128.558 22.3319C128.381 22.3319 128.237 22.1811 128.237 21.9949C128.237 21.8083 128.381 21.6575 128.558 21.6575Z" stroke="black" stroke-width="0.2" stroke-miterlimit="22.9256"/>
<path fill-rule="evenodd" clip-rule="evenodd" d="M130.254 21.6226C130.432 21.6226 130.575 21.7734 130.575 21.96C130.575 22.1466 130.432 22.2975 130.254 22.2975C130.077 22.2975 129.933 22.1466 129.933 21.96C129.933 21.7734 130.077 21.6226 130.254 21.6226Z" stroke="black" stroke-width="0.2" stroke-miterlimit="22.9256"/>
<path fill-rule="evenodd" clip-rule="evenodd" d="M131.983 21.6772C132.161 21.6772 132.304 21.8286 132.304 22.0151C132.304 22.2013 132.161 22.3521 131.983 22.3521C131.806 22.3521 131.662 22.2013 131.662 22.0151C131.662 21.8286 131.806 21.6772 131.983 21.6772Z" stroke="black" stroke-width="0.2" stroke-miterlimit="22.9256"/>
<path fill-rule="evenodd" clip-rule="evenodd" d="M118.11 18.857L118.404 18.8727C120.079 18.9619 121.16 20.3733 121.16 22.2253V28.3776C121.16 30.2305 119.787 31.7459 118.11 31.7459C116.433 31.7459 115.06 30.2305 115.06 28.3776V22.2253C115.06 20.3724 116.434 18.7682 118.11 18.857Z" stroke="black" stroke-width="0.2" stroke-miterlimit="22.9256"/>
<path d="M115.201 23.2747H121.16" stroke="black" stroke-width="0.2" stroke-miterlimit="22.9256"/>
<path d="M115.436 21.2085H121.075" stroke="black" stroke-width="0.2" stroke-miterlimit="22.9256"/>
<path fill-rule="evenodd" clip-rule="evenodd" d="M118.141 20.1755C118.282 20.1755 118.397 20.2742 118.397 20.396C118.397 20.5175 118.282 20.6161 118.141 20.6161C118 20.6161 117.885 20.5175 117.885 20.396C117.885 20.2742 118 20.1755 118.141 20.1755Z" stroke="black" stroke-width="0.2" stroke-miterlimit="22.9256"/>
<path fill-rule="evenodd" clip-rule="evenodd" d="M125.045 75.7699L125.339 75.7851C127.015 75.8744 128.095 77.2858 128.095 79.1373V85.2905C128.095 87.1424 126.723 88.6578 125.045 88.6578C123.368 88.6578 121.996 87.1424 121.996 85.2905V79.1373C121.996 77.2853 123.37 75.6806 125.045 75.7699V75.7699Z" stroke="black" stroke-width="0.2" stroke-miterlimit="22.9256"/>
<path d="M122.137 80.1875H128.096" stroke="black" stroke-width="0.2" stroke-miterlimit="22.9256"/>
<path d="M122.372 78.1213H128.011" stroke="black" stroke-width="0.2" stroke-miterlimit="22.9256"/>
<path fill-rule="evenodd" clip-rule="evenodd" d="M125.077 77.0894C125.218 77.0894 125.333 77.188 125.333 77.3094C125.333 77.4313 125.218 77.5299 125.077 77.5299C124.936 77.5299 124.822 77.4313 124.822 77.3094C124.822 77.188 124.936 77.0894 125.077 77.0894Z" stroke="black" stroke-width="0.2" stroke-miterlimit="22.9256"/>
<path fill-rule="evenodd" clip-rule="evenodd" d="M132.071 75.4297H142.47V82.7845H132.071V75.4297Z" stroke="black" stroke-width="0.2" stroke-miterlimit="22.9256"/>
<path fill-rule="evenodd" clip-rule="evenodd" d="M133.093 77.1101H141.553V81.5171H133.093V77.1101Z" stroke="black" stroke-width="0.2" stroke-miterlimit="22.9256"/>
<path fill-rule="evenodd" clip-rule="evenodd" d="M137.392 78.239C137.68 78.239 137.913 78.5291 137.913 78.8867C137.913 79.2438 137.68 79.5339 137.392 79.5339C137.104 79.5339 136.871 79.2438 136.871 78.8867C136.871 78.5291 137.104 78.239 137.392 78.239Z" stroke="black" stroke-width="0.2" stroke-miterlimit="22.9256"/>
<path fill-rule="evenodd" clip-rule="evenodd" d="M25.5887 107.132H50.9511V141.85H25.5887V107.132Z" stroke="black" stroke-width="0.2" stroke-miterlimit="22.9256"/>
<path fill-rule="evenodd" clip-rule="evenodd" d="M25.5887 107.132H51.0546V105.102H25.5887V107.132Z" stroke="black" stroke-width="0.2" stroke-miterlimit="22.9256"/>
<path fill-rule="evenodd" clip-rule="evenodd" d="M26.7598 107.495H37.5801V113.728H26.7598V107.495Z" stroke="black" stroke-width="0.2" stroke-miterlimit="22.9256"/>
<path fill-rule="evenodd" clip-rule="evenodd" d="M38.7863 107.458H49.641V113.692H38.7863V107.458Z" stroke="black" stroke-width="0.2" stroke-miterlimit="22.9256"/>
<path fill-rule="evenodd" clip-rule="evenodd" d="M50.6411 114.344H25.5887V118.476H50.6411V114.344Z" stroke="black" stroke-width="0.2" stroke-miterlimit="22.9256"/>
<path fill-rule="evenodd" clip-rule="evenodd" d="M19.1267 105.9C21.8012 105.9 23.9687 107.368 23.9687 109.18C23.9687 110.991 21.8012 112.46 19.1267 112.46C16.4526 112.46 14.2847 110.991 14.2847 109.18C14.2847 107.368 16.4526 105.9 19.1267 105.9Z" stroke="black" stroke-width="0.2" stroke-miterlimit="22.9256"/>
<path fill-rule="evenodd" clip-rule="evenodd" d="M57.0505 106.1C59.7246 106.1 61.8925 107.568 61.8925 109.38C61.8925 111.191 59.7246 112.659 57.0505 112.659C54.376 112.659 52.2081 111.191 52.2081 109.38C52.2081 107.568 54.376 106.1 57.0505 106.1Z" stroke="black" stroke-width="0.2" stroke-miterlimit="22.9256"/>
<path fill-rule="evenodd" clip-rule="evenodd" d="M68.3421 160.302V190.935H80.3389V160.302H68.3421Z" stroke="black" stroke-width="0.2" stroke-miterlimit="22.9256"/>
<path fill-rule="evenodd" clip-rule="evenodd" d="M69.285 165.198V185.764C69.285 187.639 70.817 189.172 72.6901 189.172H76.2004C78.0735 189.172 79.6054 187.639 79.6054 185.764V165.198C79.6054 163.323 78.0735 161.79 76.2004 161.79H72.6901C70.817 161.79 69.285 163.323 69.285 165.198Z" stroke="black" stroke-width="0.2" stroke-miterlimit="22.9256"/>
<path fill-rule="evenodd" clip-rule="evenodd" d="M73.4764 186.309C73.4764 186.726 73.8631 187.065 74.3403 187.065C74.8179 187.065 75.2051 186.726 75.2051 186.309C75.2051 185.89 74.8179 185.551 74.3403 185.551C73.8631 185.551 73.4764 185.89 73.4764 186.309Z" stroke="black" stroke-width="0.2" stroke-miterlimit="22.9256"/>
<path fill-rule="evenodd" clip-rule="evenodd" d="M44.0855 191.181V183.193H65.0407V191.181H44.0855Z" stroke="black" stroke-width="0.2" stroke-miterlimit="22.9256"/>
<path fill-rule="evenodd" clip-rule="evenodd" d="M45.238 189.529V185.232H53.6202V189.529H45.238Z" stroke="black" stroke-width="0.2" stroke-miterlimit="22.9256"/>
<path fill-rule="evenodd" clip-rule="evenodd" d="M55.8208 189.584V185.286H64.1503V189.584H55.8208Z" stroke="black" stroke-width="0.2" stroke-miterlimit="22.9256"/>
<path d="M54.5632 191.181V183.193" stroke="black" stroke-width="0.2" stroke-miterlimit="22.9256"/>
<path fill-rule="evenodd" clip-rule="evenodd" d="M49.0097 187.078C49.0097 186.758 49.2561 186.499 49.56 186.499C49.8645 186.499 50.1109 186.758 50.1109 187.078C50.1109 187.398 49.8645 187.656 49.56 187.656C49.2561 187.656 49.0097 187.398 49.0097 187.078Z" stroke="black" stroke-width="0.2" stroke-miterlimit="22.9256"/>
<path fill-rule="evenodd" clip-rule="evenodd" d="M59.1977 187.186C59.1977 186.866 59.4441 186.607 59.7481 186.607C60.0525 186.607 60.2989 186.866 60.2989 187.186C60.2989 187.505 60.0525 187.764 59.7481 187.764C59.4441 187.764 59.1977 187.505 59.1977 187.186Z" stroke="black" stroke-width="0.2" stroke-miterlimit="22.9256"/>
<path fill-rule="evenodd" clip-rule="evenodd" d="M31.1943 191.15L31.4793 191.136C33.1031 191.054 34.1507 189.751 34.1507 188.041V182.362C34.1507 180.652 32.8204 179.253 31.1943 179.253C29.5688 179.253 28.2384 180.652 28.2384 182.362V188.041C28.2384 189.752 29.5705 191.233 31.1943 191.15Z" stroke="black" stroke-width="0.2" stroke-miterlimit="22.9256"/>
<path d="M28.3075 184.088C28.5082 184.473 28.7089 184.859 28.9471 185.173C29.1848 185.488 29.4599 185.731 29.781 185.926C30.1017 186.121 30.4683 186.269 30.8153 186.331C31.1631 186.393 31.49 186.369 31.7893 186.305C32.0881 186.24 32.3588 186.135 32.5818 186.002C32.8043 185.869 32.9791 185.708 33.1446 185.536C33.3105 185.364 33.4679 185.18 33.6098 184.942C33.7516 184.703 33.8778 184.409 34.0049 184.115" stroke="black" stroke-width="0.2" stroke-miterlimit="22.9256"/>
<path fill-rule="evenodd" clip-rule="evenodd" d="M29.5066 188.329C29.6843 188.329 29.8275 188.178 29.8275 187.992C29.8275 187.805 29.6843 187.654 29.5066 187.654C29.3294 187.654 29.1857 187.805 29.1857 187.992C29.1857 188.178 29.3294 188.329 29.5066 188.329Z" stroke="black" stroke-width="0.2" stroke-miterlimit="22.9256"/>
<path fill-rule="evenodd" clip-rule="evenodd" d="M31.2029 188.363C31.3801 188.363 31.5233 188.212 31.5233 188.026C31.5233 187.839 31.3801 187.688 31.2029 187.688C31.0252 187.688 30.8815 187.839 30.8815 188.026C30.8815 188.212 31.0252 188.363 31.2029 188.363Z" stroke="black" stroke-width="0.2" stroke-miterlimit="22.9256"/>
<path fill-rule="evenodd" clip-rule="evenodd" d="M32.9315 188.308C33.1091 188.308 33.2524 188.157 33.2524 187.971C33.2524 187.784 33.1091 187.634 32.9315 187.634C32.7543 187.634 32.6105 187.784 32.6105 187.971C32.6105 188.157 32.7543 188.308 32.9315 188.308Z" stroke="black" stroke-width="0.2" stroke-miterlimit="22.9256"/>
<path fill-rule="evenodd" clip-rule="evenodd" d="M19.0584 191.129L19.3523 191.113C21.0279 191.024 22.108 189.613 22.108 187.762V181.609C22.108 179.756 20.7357 178.241 19.0584 178.241C17.3811 178.241 16.0088 179.756 16.0088 181.609V187.762C16.0088 189.613 17.3829 191.219 19.0584 191.129Z" stroke="black" stroke-width="0.2" stroke-miterlimit="22.9256"/>
<path d="M16.1493 186.711H22.108" stroke="black" stroke-width="0.2" stroke-miterlimit="22.9256"/>
<path d="M16.3845 188.777H22.0234" stroke="black" stroke-width="0.2" stroke-miterlimit="22.9256"/>
<path fill-rule="evenodd" clip-rule="evenodd" d="M19.089 189.81C19.23 189.81 19.3448 189.711 19.3448 189.59C19.3448 189.468 19.23 189.369 19.089 189.369C18.9475 189.369 18.8332 189.468 18.8332 189.59C18.8332 189.711 18.9475 189.81 19.089 189.81Z" stroke="black" stroke-width="0.2" stroke-miterlimit="22.9256"/>
<path fill-rule="evenodd" clip-rule="evenodd" d="M147.735 159.314H158.108V190.773H147.735V159.314Z" stroke="black" stroke-width="0.2" stroke-miterlimit="22.9256"/>
<path d="M147.735 159.314L158.108 190.773" stroke="black" stroke-width="0.2" stroke-miterlimit="22.9256"/>
<path d="M158.108 159.314L147.735 190.773" stroke="black" stroke-width="0.2" stroke-miterlimit="22.9256"/>
<path fill-rule="evenodd" clip-rule="evenodd" d="M25.0193 201.96H66.1964V206.698H25.0193V201.96Z" stroke="black" stroke-width="0.2" stroke-miterlimit="22.9256"/>
<path fill-rule="evenodd" clip-rule="evenodd" d="M35.1834 203.281H55.8763V204.549H35.1834V203.281Z" stroke="black" stroke-width="0.2" stroke-miterlimit="22.9256"/>
<path d="M37.5401 213.585L45.5298 203.281L52.2614 211.16" stroke="black" stroke-width="0.2" stroke-miterlimit="22.9256"/>
<path fill-rule="evenodd" clip-rule="evenodd" d="M147.52 202.893H157.998V270.659H147.52V202.893Z" stroke="black" stroke-width="0.2" stroke-miterlimit="22.9256"/>
<path fill-rule="evenodd" clip-rule="evenodd" d="M146.695 219.435H147.35V229.242H146.695V219.435Z" stroke="black" stroke-width="0.2" stroke-miterlimit="22.9256"/>
<path fill-rule="evenodd" clip-rule="evenodd" d="M146.669 242.328H147.521V251.776H146.669V242.328Z" stroke="black" stroke-width="0.2" stroke-miterlimit="22.9256"/>
<path fill-rule="evenodd" clip-rule="evenodd" d="M146.879 260.122H147.521V270.26H146.879V260.122Z" stroke="black" stroke-width="0.2" stroke-miterlimit="22.9256"/>
<path fill-rule="evenodd" clip-rule="evenodd" d="M148.922 202.741H157.723V200.84H148.922V202.741Z" stroke="black" stroke-width="0.2" stroke-miterlimit="22.9256"/>
<path d="M147.52 218.925H157.998" stroke="black" stroke-width="0.2" stroke-miterlimit="22.9256"/>
<path d="M147.52 229.779H157.998" stroke="black" stroke-width="0.2" stroke-miterlimit="22.9256"/>
<path d="M147.52 241.348H157.998" stroke="black" stroke-width="0.2" stroke-miterlimit="22.9256"/>
<path d="M147.52 252.587H157.998" stroke="black" stroke-width="0.2" stroke-miterlimit="22.9256"/>
<path d="M157.776 270.659L147.52 260.122H157.998L147.52 270.659" stroke="black" stroke-width="0.2" stroke-miterlimit="22.9256"/>
<path fill-rule="evenodd" clip-rule="evenodd" d="M150.258 203.938H155.445C156.151 203.938 156.728 204.515 156.728 205.222V216.841C156.728 217.547 156.151 218.125 155.445 218.125H150.258C149.552 218.125 148.975 217.547 148.975 216.841V205.222C148.975 204.515 149.552 203.938 150.258 203.938Z" stroke="black" stroke-width="0.2" stroke-miterlimit="22.9256"/>
<path fill-rule="evenodd" clip-rule="evenodd" d="M113.207 244.984H127.928V270.713H113.207V244.984Z" stroke="black" stroke-width="0.2" stroke-miterlimit="22.9256"/>
<path fill-rule="evenodd" clip-rule="evenodd" d="M117.215 240.824H124.13V244.985H117.215V240.824Z" stroke="black" stroke-width="0.2" stroke-miterlimit="22.9256"/>
<path fill-rule="evenodd" clip-rule="evenodd" d="M117.268 270.714H123.973V274.817H117.268V270.714Z" stroke="black" stroke-width="0.2" stroke-miterlimit="22.9256"/>
<path fill-rule="evenodd" clip-rule="evenodd" d="M112.998 249.638H109.121V257.076H112.998V249.638Z" stroke="black" stroke-width="0.2" stroke-miterlimit="22.9256"/>
<path fill-rule="evenodd" clip-rule="evenodd" d="M113.024 258.536H109.148V265.973H113.024V258.536Z" stroke="black" stroke-width="0.2" stroke-miterlimit="22.9256"/>
<path fill-rule="evenodd" clip-rule="evenodd" d="M131.937 249.611H128.06V257.048H131.937V249.611Z" stroke="black" stroke-width="0.2" stroke-miterlimit="22.9256"/>
<path fill-rule="evenodd" clip-rule="evenodd" d="M131.937 258.646H128.06V266.084H131.937V258.646Z" stroke="black" stroke-width="0.2" stroke-miterlimit="22.9256"/>
<path fill-rule="evenodd" clip-rule="evenodd" d="M15.3218 238.341H28.5236V276.467H15.3218V238.341Z" stroke="black" stroke-width="0.2" stroke-miterlimit="22.9256"/>
<path fill-rule="evenodd" clip-rule="evenodd" d="M28.5237 263.52H40.1535V276.413H28.5237V263.52Z" stroke="black" stroke-width="0.2" stroke-miterlimit="22.9256"/>
<path d="M15.3218 251.289H28.5236" stroke="black" stroke-width="0.2" stroke-miterlimit="22.9256"/>
<path d="M28.5236 263.52H15.3218" stroke="black" stroke-width="0.2" stroke-miterlimit="22.9256"/>
<path fill-rule="evenodd" clip-rule="evenodd" d="M40.0319 237.982H55.0675V258.257H40.0319V237.982Z" stroke="black" stroke-width="0.2" stroke-miterlimit="22.9256"/>
<path fill-rule="evenodd" clip-rule="evenodd" d="M79.8688 238.341H66.667V276.467H79.8688V238.341Z" stroke="black" stroke-width="0.2" stroke-miterlimit="22.9256"/>
<path fill-rule="evenodd" clip-rule="evenodd" d="M66.6671 263.52H55.0374V276.413H66.6671V263.52Z" stroke="black" stroke-width="0.2" stroke-miterlimit="22.9256"/>
<path d="M79.8688 251.29H66.667" stroke="black" stroke-width="0.2" stroke-miterlimit="22.9256"/>
<path d="M66.667 263.52H79.8688" stroke="black" stroke-width="0.2" stroke-miterlimit="22.9256"/>
<path d="M123.343 39.8628C123.927 40.1369 124.219 40.6324 124.219 41.3506C124.219 41.8554 124.065 42.2795 123.755 42.6232C123.446 42.9673 123.01 43.1387 122.449 43.1387C121.888 43.1387 121.452 42.9673 121.143 42.6232C120.833 42.2795 120.679 41.8554 120.679 41.3506C120.679 40.6324 120.971 40.1369 121.555 39.8628C121.087 39.5772 120.852 39.1326 120.852 38.5309C120.852 38.0684 120.994 37.6712 121.277 37.34C121.561 37.0079 121.951 36.8423 122.449 36.8423C122.946 36.8423 123.337 37.0079 123.62 37.34C123.904 37.6712 124.046 38.0684 124.046 38.5309C124.046 39.1326 123.811 39.5772 123.343 39.8628ZM121.742 39.2884C121.93 39.4888 122.166 39.5892 122.449 39.5892C122.732 39.5892 122.968 39.4888 123.156 39.2884C123.344 39.0871 123.438 38.838 123.438 38.5398C123.438 38.2175 123.341 37.9573 123.148 37.7596C122.954 37.5618 122.721 37.4632 122.449 37.4632C122.177 37.4632 121.944 37.5618 121.75 37.7596C121.557 37.9573 121.46 38.2175 121.46 38.5398C121.46 38.838 121.554 39.0871 121.742 39.2884ZM121.633 42.1848C121.842 42.4076 122.113 42.5187 122.449 42.5187C122.784 42.5187 123.056 42.4076 123.264 42.1848C123.473 41.9634 123.577 41.6791 123.577 41.3323C123.577 40.9913 123.471 40.7132 123.26 40.4971C123.049 40.2811 122.779 40.1731 122.449 40.1731C122.119 40.1731 121.849 40.2811 121.638 40.4971C121.426 40.7132 121.321 40.9913 121.321 41.3323C121.321 41.6791 121.425 41.9634 121.633 42.1848ZM125.599 42.9838C125.512 42.8923 125.468 42.7861 125.468 42.6647C125.468 42.5428 125.512 42.4366 125.599 42.3451C125.685 42.254 125.786 42.2081 125.902 42.2081C126.018 42.2081 126.12 42.254 126.206 42.3451C126.293 42.4366 126.336 42.5428 126.336 42.6647C126.336 42.7861 126.293 42.8923 126.206 42.9838C126.12 43.0749 126.018 43.1204 125.902 43.1204C125.786 43.1204 125.685 43.0749 125.599 42.9838ZM129.2 43.0298V37.5814H128.228L128.566 36.9427H129.842V43.0298H129.2ZM134.094 39.8628C134.678 40.1369 134.97 40.6324 134.97 41.3506C134.97 41.8554 134.815 42.2795 134.505 42.6232C134.196 42.9673 133.761 43.1387 133.199 43.1387C132.638 43.1387 132.203 42.9673 131.894 42.6232C131.585 42.2795 131.429 41.8554 131.429 41.3506C131.429 40.6324 131.722 40.1369 132.306 39.8628C131.837 39.5772 131.603 39.1326 131.603 38.5309C131.603 38.0684 131.745 37.6712 132.028 37.34C132.312 37.0079 132.703 36.8423 133.199 36.8423C133.697 36.8423 134.088 37.0079 134.371 37.34C134.654 37.6712 134.796 38.0684 134.796 38.5309C134.796 39.1326 134.562 39.5772 134.094 39.8628ZM132.493 39.2884C132.68 39.4888 132.916 39.5892 133.199 39.5892C133.483 39.5892 133.719 39.4888 133.907 39.2884C134.095 39.0871 134.189 38.838 134.189 38.5398C134.189 38.2175 134.092 37.9573 133.898 37.7596C133.704 37.5618 133.472 37.4632 133.199 37.4632C132.928 37.4632 132.695 37.5618 132.501 37.7596C132.308 37.9573 132.211 38.2175 132.211 38.5398C132.211 38.838 132.304 39.0871 132.493 39.2884ZM132.384 42.1848C132.593 42.4076 132.864 42.5187 133.199 42.5187C133.535 42.5187 133.807 42.4076 134.015 42.1848C134.223 41.9634 134.328 41.6791 134.328 41.3323C134.328 40.9913 134.222 40.7132 134.011 40.4971C133.8 40.2811 133.529 40.1731 133.199 40.1731C132.87 40.1731 132.6 40.2811 132.388 40.4971C132.177 40.7132 132.072 40.9913 132.072 41.3323C132.072 41.6791 132.176 41.9634 132.384 42.1848ZM137.859 43.0298L138.727 38.9505L140.219 42.0348L141.678 38.9505L142.545 43.0298H141.903L141.426 40.6842L140.202 43.294L138.962 40.6842L138.502 43.0298H137.859Z" fill="black"/>
<path d="M143.8 39.1741H142.601L143.277 38.3524C143.392 38.2095 143.465 38.1149 143.494 38.0685C143.563 37.9649 143.597 37.8654 143.597 37.7698C143.597 37.6591 143.563 37.5677 143.494 37.4967C143.426 37.4257 143.336 37.3896 143.227 37.3896C143.094 37.3896 142.991 37.4476 142.918 37.5627C142.88 37.6252 142.859 37.702 142.857 37.7935H142.651C142.659 37.6279 142.705 37.4936 142.791 37.3896C142.902 37.2574 143.048 37.1909 143.23 37.1909C143.395 37.1909 143.532 37.2463 143.64 37.3561C143.749 37.4668 143.803 37.6051 143.803 37.7734C143.803 37.9038 143.753 38.043 143.655 38.1912C143.605 38.2631 143.521 38.3716 143.402 38.5157L143.016 38.975H143.8V39.1741Z" fill="black"/>
<path d="M55.0639 70.167H51.3239L53.433 67.6031C53.7915 67.159 54.0168 66.8639 54.1091 66.7179C54.3236 66.3952 54.4306 66.0855 54.4306 65.7868C54.4306 65.44 54.3236 65.1557 54.1091 64.9343C53.8955 64.7115 53.6176 64.6008 53.2764 64.6008C52.8595 64.6008 52.5384 64.7803 52.3131 65.1391C52.1914 65.3338 52.128 65.5739 52.1227 65.86H51.48C51.5028 65.3427 51.6477 64.9231 51.914 64.6008C52.2614 64.187 52.7181 63.9804 53.2849 63.9804C53.8 63.9804 54.2264 64.1522 54.5649 64.4959C54.9034 64.8396 55.0724 65.2731 55.0724 65.7962C55.0724 66.2037 54.919 66.6385 54.6121 67.1009C54.4565 67.3263 54.1929 67.6638 53.8228 68.1142L52.6168 69.547H55.0639V70.167ZM55.7235 69.9577L59.0122 64.7008H55.8448V64.0808H60.0963L56.2261 70.3134L55.7235 69.9577ZM60.0187 70.1219C59.9318 70.0304 59.8881 69.9242 59.8881 69.8023C59.8881 69.6809 59.9318 69.5742 60.0187 69.4827C60.1053 69.3912 60.2065 69.3457 60.3216 69.3457C60.438 69.3457 60.5392 69.3912 60.6262 69.4827C60.7122 69.5742 60.7559 69.6809 60.7559 69.8023C60.7559 69.9242 60.7122 70.0304 60.6262 70.1219C60.5392 70.213 60.438 70.2585 60.3216 70.2585C60.2065 70.2585 60.1053 70.213 60.0187 70.1219ZM65.0944 63.7429V68.3972H65.8062V69.0176H65.0944V70.167H64.4522V69.0176H61.4847L65.0944 63.7429ZM62.6219 68.3972H64.4522V65.7047L62.6219 68.3972ZM68.0361 70.3134L67.5504 69.9389L68.8781 67.995C68.7099 68.0499 68.5396 68.0771 68.3657 68.0771C67.8167 68.0771 67.3667 67.8856 67.0166 67.5027C66.6665 67.1192 66.4917 66.6416 66.4917 66.0698C66.4917 65.4619 66.6785 64.9611 67.0514 64.5687C67.4246 64.1763 67.9001 63.9804 68.4789 63.9804C68.9071 63.9804 69.279 64.088 69.5939 64.304C69.9092 64.5205 70.1362 64.7816 70.2749 65.0887C70.414 65.3963 70.4832 65.7172 70.4832 66.0515C70.4832 66.5202 70.3244 66.9853 70.006 67.4478L68.0361 70.3134ZM68.4879 64.6008C68.0945 64.6008 67.7703 64.7392 67.5152 65.0164C67.261 65.2927 67.1334 65.6377 67.1334 66.0515C67.1334 66.459 67.2628 66.7956 67.5201 67.0599C67.7774 67.325 68.1025 67.4571 68.4959 67.4571C68.8897 67.4571 69.2126 67.3232 69.4637 67.0554C69.7152 66.7876 69.841 66.4532 69.841 66.0515C69.841 65.6377 69.7152 65.2927 69.4637 65.0164C69.2126 64.7392 68.8866 64.6008 68.4879 64.6008ZM73.147 70.167L74.0144 66.0886L75.5071 69.1725L76.965 66.0886L77.8324 70.167H77.1902L76.713 67.8222L75.4897 70.4317L74.2495 67.8222L73.7892 70.167H73.147Z" fill="black"/>
<path d="M79.4682 66.5568H78.2694L78.9455 65.735C79.0605 65.5931 79.1323 65.4985 79.1622 65.4516C79.2305 65.3485 79.2648 65.2489 79.2648 65.1534C79.2648 65.0418 79.2305 64.9512 79.1622 64.8798C79.0935 64.8084 79.0052 64.7731 78.8955 64.7731C78.7617 64.7731 78.6587 64.8302 78.5865 64.9454C78.5481 65.0079 78.5271 65.0851 78.5254 65.1766H78.3198C78.3269 65.011 78.3733 64.8762 78.4585 64.7731C78.57 64.6405 78.7162 64.5745 78.8978 64.5745C79.0632 64.5745 79.1997 64.6289 79.3081 64.7396C79.4169 64.8494 79.4708 64.9883 79.4708 65.1561C79.4708 65.2869 79.4218 65.4261 79.3237 65.5739C79.2737 65.6466 79.1894 65.7547 79.0708 65.8988L78.6841 66.3582H79.4682V66.5568Z" fill="black"/>
<path d="M144.787 91.2523H143.588L144.264 90.431C144.379 90.2881 144.451 90.194 144.481 90.1467C144.549 90.044 144.584 89.9445 144.584 89.8489C144.584 89.7373 144.549 89.6463 144.481 89.5753C144.412 89.5039 144.323 89.4686 144.214 89.4686C144.08 89.4686 143.978 89.5262 143.905 89.6414C143.866 89.7034 143.846 89.7806 143.844 89.8721H143.638C143.646 89.707 143.692 89.5717 143.777 89.4686C143.889 89.3361 144.035 89.2695 144.217 89.2695C144.382 89.2695 144.518 89.3245 144.627 89.4352C144.735 89.5454 144.789 89.6838 144.789 89.8516C144.789 89.9824 144.74 90.1217 144.642 90.2698C144.592 90.3417 144.508 90.4506 144.389 90.5948L144.002 91.0537H144.787V91.2523Z" fill="black"/>
<path d="M127.785 89.5198V90.0626H126.161L125.834 91.2124C125.92 91.191 126.027 91.1803 126.153 91.1803C126.654 91.1803 127.058 91.3566 127.364 91.7075C127.67 92.0588 127.823 92.498 127.823 93.0251C127.823 93.6001 127.645 94.0629 127.288 94.4142C126.931 94.766 126.494 94.9409 125.978 94.9409C125.543 94.9409 125.166 94.803 124.847 94.5258C124.665 94.3611 124.518 94.1799 124.407 93.983L124.855 93.6478C124.93 93.8076 125.045 93.9509 125.196 94.079C125.445 94.2919 125.717 94.3982 126.016 94.3982C126.37 94.3982 126.667 94.2651 126.905 93.9991C127.143 93.7331 127.261 93.4108 127.261 93.0332C127.261 92.6497 127.144 92.3355 126.908 92.0909C126.673 91.8458 126.376 91.7235 126.016 91.7235C125.698 91.7235 125.371 91.8458 125.037 92.0909L125.774 89.5198H127.785ZM129.061 94.8057C128.985 94.7258 128.947 94.6325 128.947 94.5258C128.947 94.4196 128.985 94.3263 129.061 94.2464C129.137 94.1665 129.225 94.1272 129.326 94.1272C129.428 94.1272 129.516 94.1665 129.593 94.2464C129.668 94.3263 129.707 94.4196 129.707 94.5258C129.707 94.6325 129.668 94.7258 129.593 94.8057C129.516 94.8851 129.428 94.9253 129.326 94.9253C129.225 94.9253 129.137 94.8851 129.061 94.8057ZM132.212 94.8459V90.0787H131.361L131.657 89.5198H132.774V94.8459H132.212ZM136.866 89.2239V93.2965H137.488V93.8398H136.866V94.8459H136.303V93.8398H133.708L136.866 89.2239ZM134.702 93.2965H136.303V90.9415L134.702 93.2965ZM139.789 94.8459L140.548 91.2763L141.854 93.975L143.129 91.2763L143.888 94.8459H143.326L142.909 92.7935L141.839 95.0771L140.753 92.7935L140.35 94.8459H139.789Z" fill="black"/>
<path d="M53.2577 132.292V126.844H52.2859L52.6244 126.205H53.8999V132.292H53.2577ZM58.7508 132.292H55.0108L57.1194 129.728C57.4784 129.284 57.7032 128.989 57.796 128.842C58.0105 128.52 58.1171 128.21 58.1171 127.911C58.1171 127.565 58.0105 127.281 57.796 127.058C57.5819 126.837 57.3045 126.725 56.9629 126.725C56.5464 126.725 56.2252 126.905 56 127.264C55.8783 127.459 55.8145 127.699 55.8091 127.985H55.1669C55.1897 127.468 55.3346 127.048 55.6004 126.725C55.9483 126.312 56.4045 126.104 56.9718 126.104C57.4865 126.104 57.9133 126.277 58.2518 126.62C58.5903 126.964 58.7589 127.398 58.7589 127.921C58.7589 128.328 58.6059 128.764 58.299 129.226C58.143 129.451 57.8798 129.789 57.5092 130.239L56.3033 131.671H58.7508V132.292ZM60.1909 132.246C60.1039 132.155 60.0607 132.048 60.0607 131.927C60.0607 131.805 60.1039 131.699 60.1909 131.608C60.2778 131.516 60.3786 131.471 60.4946 131.471C60.6105 131.471 60.7118 131.516 60.7979 131.608C60.8853 131.699 60.9285 131.805 60.9285 131.927C60.9285 132.048 60.8853 132.155 60.7979 132.246C60.7118 132.338 60.6105 132.384 60.4946 132.384C60.3786 132.384 60.2778 132.338 60.1909 132.246ZM65.6398 126.205V126.826H63.7832L63.4104 128.14C63.5085 128.116 63.6298 128.103 63.7748 128.103C64.3474 128.103 64.809 128.304 65.1586 128.705C65.5083 129.108 65.6831 129.609 65.6831 130.212C65.6831 130.869 65.4797 131.397 65.0721 131.799C64.6641 132.201 64.165 132.402 63.5754 132.402C63.0773 132.402 62.6469 132.243 62.2816 131.927C62.0738 131.738 61.9061 131.531 61.779 131.306L62.291 130.923C62.3775 131.106 62.5073 131.27 62.6812 131.416C62.9649 131.66 63.2775 131.781 63.6187 131.781C64.0232 131.781 64.3617 131.629 64.6337 131.324C64.9053 131.021 65.0413 130.653 65.0413 130.22C65.0413 129.783 64.9071 129.424 64.6382 129.144C64.3688 128.864 64.029 128.724 63.6187 128.724C63.2543 128.724 62.881 128.864 62.4993 129.144L63.3408 126.205H65.6398ZM67.8011 127.711H67.1589C67.1762 127.388 67.2654 127.09 67.4278 126.817C67.7168 126.342 68.165 126.104 68.7724 126.104C69.2875 126.104 69.688 126.266 69.9743 126.589C70.2606 126.911 70.4038 127.297 70.4038 127.747C70.4038 128.386 70.1554 128.836 69.6577 129.098C69.7326 129.128 69.8071 129.169 69.8789 129.221C69.9511 129.273 70.0394 129.354 70.1433 129.463C70.2472 129.573 70.3315 129.723 70.3949 129.915C70.4586 130.106 70.4903 130.324 70.4903 130.567C70.4903 131.121 70.3217 131.565 69.9828 131.899C69.6447 132.234 69.221 132.402 68.7117 132.402C68.3706 132.402 68.0521 132.318 67.7574 132.151C67.4621 131.983 67.2427 131.717 67.0982 131.352C67.0228 131.157 66.9796 130.944 66.9675 130.713H67.6097C67.6387 130.963 67.7078 131.167 67.818 131.324C68.0147 131.629 68.313 131.781 68.7117 131.781C69.0306 131.781 69.2991 131.661 69.5185 131.42C69.7384 131.181 69.8485 130.89 69.8485 130.549C69.8485 130.05 69.6577 129.709 69.2759 129.527C69.085 129.429 68.8647 129.387 68.6163 129.399V128.797C68.8647 128.815 69.085 128.772 69.2759 128.669C69.5997 128.493 69.7616 128.192 69.7616 127.766C69.7616 127.468 69.6808 127.22 69.5185 127.022C69.3566 126.824 69.1082 126.725 68.7724 126.725C68.4486 126.725 68.2002 126.841 68.0267 127.072C67.8934 127.254 67.818 127.468 67.8011 127.711ZM73.5359 132.292L74.4042 128.213L75.8965 131.298L77.3544 128.213L78.2218 132.292H77.58L77.1028 129.947L75.8791 132.556L74.6384 129.947L74.1785 132.292H73.5359Z" fill="black"/>
<path d="M79.1443 128.111H77.9455L78.6211 127.29C78.7362 127.147 78.8089 127.053 78.8379 127.006C78.9066 126.903 78.9413 126.803 78.9413 126.708C78.9413 126.596 78.9066 126.505 78.8379 126.434C78.7692 126.363 78.6809 126.327 78.5712 126.327C78.4378 126.327 78.3348 126.385 78.2626 126.5C78.2238 126.563 78.2033 126.64 78.2015 126.731H77.9959C78.003 126.565 78.0498 126.431 78.1346 126.327C78.2456 126.195 78.3919 126.129 78.5739 126.129C78.7389 126.129 78.8758 126.184 78.9837 126.294C79.0925 126.405 79.1465 126.543 79.1465 126.711C79.1465 126.841 79.0974 126.981 78.9993 127.129C78.9494 127.201 78.8651 127.309 78.7464 127.453L78.3598 127.912H79.1443V128.111Z" fill="black"/>
<path d="M55.2753 170.673H54.0765L54.7521 169.851C54.8672 169.709 54.9395 169.614 54.9689 169.568C55.0376 169.464 55.0719 169.365 55.0719 169.269C55.0719 169.158 55.0376 169.067 54.9689 168.996C54.9007 168.925 54.8119 168.889 54.7022 168.889C54.5688 168.889 54.4654 168.947 54.3936 169.062C54.3552 169.124 54.3338 169.201 54.332 169.293H54.1269C54.1336 169.127 54.1804 168.993 54.2651 168.889C54.3771 168.757 54.5229 168.69 54.7049 168.69C54.8699 168.69 55.0063 168.745 55.1152 168.856C55.2235 168.966 55.2779 169.105 55.2779 169.272C55.2779 169.403 55.2284 169.543 55.1308 169.691C55.0804 169.763 54.9961 169.871 54.877 170.015L54.4908 170.474H55.2753V170.673Z" fill="black"/>
<path d="M33.3373 174.166L36.6255 168.909H33.4586V168.289H37.7101L33.8399 174.522L33.3373 174.166ZM37.6325 174.33C37.5451 174.239 37.5023 174.132 37.5023 174.01C37.5023 173.889 37.5451 173.782 37.6325 173.691C37.719 173.6 37.8202 173.554 37.9358 173.554C38.0517 173.554 38.1525 173.6 38.2395 173.691C38.3264 173.782 38.3693 173.889 38.3693 174.01C38.3693 174.132 38.3264 174.239 38.2395 174.33C38.1525 174.421 38.0517 174.467 37.9358 174.467C37.8202 174.467 37.719 174.421 37.6325 174.33ZM41.2329 174.376V168.927H40.2615L40.6 168.289H41.8751V174.376H41.2329ZM46.9249 168.289V168.909H45.0683L44.6954 170.223C44.794 170.199 44.9149 170.187 45.0598 170.187C45.6325 170.187 46.094 170.388 46.4437 170.789C46.7933 171.191 46.9686 171.693 46.9686 172.295C46.9686 172.952 46.7648 173.481 46.3572 173.883C45.9491 174.284 45.4505 174.485 44.8605 174.485C44.3627 174.485 43.9319 174.327 43.5671 174.01C43.3589 173.822 43.1912 173.615 43.0645 173.39L43.5761 173.007C43.663 173.189 43.7928 173.353 43.9663 173.5C44.2499 173.743 44.5625 173.864 44.9033 173.864C45.3082 173.864 45.6472 173.713 45.9188 173.408C46.1908 173.104 46.3264 172.736 46.3264 172.304C46.3264 171.866 46.1926 171.507 45.9232 171.227C45.6543 170.947 45.3136 170.807 44.9033 170.807C44.5389 170.807 44.1661 170.947 43.7839 171.227L44.6263 168.289H46.9249ZM49.8929 174.376L50.7607 170.296L52.253 173.381L53.7109 170.296L54.5783 174.376H53.9366L53.4589 172.03L52.2356 174.64L50.9949 172.03L50.5351 174.376H49.8929Z" fill="black"/>
<path d="M61.0422 230.437H57.3026L59.4112 227.873C59.7698 227.429 59.995 227.134 60.0873 226.988C60.3018 226.665 60.4093 226.355 60.4093 226.057C60.4093 225.71 60.3018 225.425 60.0873 225.204C59.8737 224.982 59.5963 224.871 59.2551 224.871C58.8381 224.871 58.5175 225.051 58.2918 225.409C58.1701 225.604 58.1067 225.844 58.1009 226.13H57.4583C57.4819 225.613 57.6269 225.193 57.8922 224.871C58.2396 224.457 58.6968 224.25 59.2632 224.25C59.7783 224.25 60.2046 224.422 60.5436 224.766C60.8816 225.109 61.0511 225.543 61.0511 226.066C61.0511 226.474 60.8972 226.908 60.5913 227.371C60.4347 227.596 60.1716 227.934 59.8014 228.384L58.5951 229.817H61.0422V230.437ZM65.146 224.013V228.667H65.8578V229.287H65.146V230.437H64.5043V229.287H61.5368L65.146 224.013ZM62.6735 228.667H64.5043V225.975L62.6735 228.667ZM66.9777 230.392C66.8903 230.3 66.847 230.194 66.847 230.073C66.847 229.951 66.8903 229.845 66.9777 229.753C67.0642 229.662 67.1654 229.616 67.2805 229.616C67.3969 229.616 67.4977 229.662 67.5851 229.753C67.6716 229.845 67.7149 229.951 67.7149 230.073C67.7149 230.194 67.6716 230.3 67.5851 230.392C67.4977 230.483 67.3969 230.528 67.2805 230.528C67.1654 230.528 67.0642 230.483 66.9777 230.392ZM70.5785 230.437V224.989H69.6067L69.9452 224.351H71.2207V230.437H70.5785ZM75.4722 227.271C76.056 227.545 76.3481 228.04 76.3481 228.758C76.3481 229.263 76.1938 229.687 75.8843 230.031C75.5748 230.375 75.1395 230.547 74.5785 230.547C74.0174 230.547 73.5822 230.375 73.2722 230.031C72.9627 229.687 72.8084 229.263 72.8084 228.758C72.8084 228.04 73.1005 227.545 73.6843 227.271C73.216 226.985 72.9819 226.54 72.9819 225.939C72.9819 225.476 73.1233 225.079 73.4069 224.747C73.6905 224.416 74.0808 224.25 74.5785 224.25C75.0762 224.25 75.4664 224.416 75.7501 224.747C76.0333 225.079 76.1751 225.476 76.1751 225.939C76.1751 226.54 75.9405 226.985 75.4722 227.271ZM73.8712 226.696C74.0589 226.897 74.2944 226.997 74.5785 226.997C74.8621 226.997 75.0976 226.897 75.2858 226.696C75.4736 226.495 75.5677 226.245 75.5677 225.948C75.5677 225.625 75.4709 225.365 75.2769 225.167C75.0833 224.97 74.8501 224.871 74.5785 224.871C74.3064 224.871 74.0736 224.97 73.8796 225.167C73.6861 225.365 73.5893 225.625 73.5893 225.948C73.5893 226.245 73.683 226.495 73.8712 226.696ZM73.7624 229.593C73.9711 229.815 74.2427 229.927 74.5785 229.927C74.9139 229.927 75.1859 229.815 75.3942 229.593C75.6024 229.371 75.7064 229.087 75.7064 228.74C75.7064 228.399 75.6011 228.121 75.3897 227.905C75.1788 227.689 74.9081 227.581 74.5785 227.581C74.2489 227.581 73.9782 227.689 73.7668 227.905C73.5563 228.121 73.4506 228.399 73.4506 228.74C73.4506 229.087 73.5545 229.371 73.7624 229.593ZM79.2381 230.437L80.1064 226.358L81.5982 229.442L83.0561 226.358L83.9231 230.437H83.2813L82.8041 228.092L81.5808 230.702L80.3401 228.092L79.8803 230.437H79.2381Z" fill="black"/>
<path d="M118.556 225.517V220.069H117.584L117.923 219.43H119.198V225.517H118.556ZM123.875 219.093V223.747H124.587V224.367H123.875V225.517H123.233V224.367H120.265L123.875 219.093ZM121.402 223.747H123.233V221.055L121.402 223.747ZM125.706 225.471C125.619 225.381 125.576 225.274 125.576 225.152C125.576 225.03 125.619 224.924 125.706 224.833C125.793 224.742 125.894 224.696 126.01 224.696C126.126 224.696 126.226 224.742 126.313 224.833C126.4 224.924 126.444 225.03 126.444 225.152C126.444 225.274 126.4 225.381 126.313 225.471C126.226 225.563 126.126 225.608 126.01 225.608C125.894 225.608 125.793 225.563 125.706 225.471ZM131.155 219.43V220.051H129.298L128.925 221.365C129.024 221.341 129.145 221.329 129.29 221.329C129.862 221.329 130.324 221.529 130.673 221.931C131.024 222.333 131.199 222.834 131.199 223.437C131.199 224.094 130.995 224.623 130.587 225.025C130.179 225.426 129.68 225.627 129.09 225.627C128.592 225.627 128.162 225.468 127.797 225.152C127.589 224.963 127.421 224.757 127.295 224.532L127.806 224.148C127.893 224.331 128.023 224.495 128.197 224.641C128.48 224.884 128.793 225.006 129.134 225.006C129.538 225.006 129.877 224.854 130.149 224.55C130.421 224.246 130.556 223.877 130.556 223.446C130.556 223.008 130.422 222.649 130.153 222.369C129.884 222.089 129.544 221.949 129.134 221.949C128.769 221.949 128.396 222.089 128.014 222.369L128.856 219.43H131.155ZM132.058 225.307L135.346 220.051H132.18V219.43H136.431L132.561 225.663L132.058 225.307ZM138.73 225.517L139.599 221.438L141.09 224.523L142.548 221.438L143.416 225.517H142.774L142.297 223.172L141.073 225.782L139.833 223.172L139.373 225.517H138.73Z" fill="black"/>
<path d="M131.908 309.922C132.492 310.196 132.784 310.692 132.784 311.41C132.784 311.915 132.629 312.339 132.32 312.683C132.011 313.026 131.575 313.198 131.014 313.198C130.453 313.198 130.017 313.026 129.709 312.683C129.399 312.339 129.244 311.915 129.244 311.41C129.244 310.692 129.536 310.196 130.121 309.922C129.651 309.636 129.418 309.192 129.418 308.59C129.418 308.128 129.56 307.73 129.843 307.399C130.126 307.067 130.517 306.901 131.014 306.901C131.511 306.901 131.902 307.067 132.186 307.399C132.469 307.73 132.611 308.128 132.611 308.59C132.611 309.192 132.376 309.636 131.908 309.922ZM130.307 309.347C130.494 309.548 130.731 309.648 131.014 309.648C131.298 309.648 131.533 309.548 131.721 309.347C131.909 309.146 132.003 308.897 132.003 308.599C132.003 308.277 131.906 308.016 131.712 307.819C131.519 307.621 131.286 307.522 131.014 307.522C130.742 307.522 130.509 307.621 130.315 307.819C130.122 308.016 130.025 308.277 130.025 308.599C130.025 308.897 130.119 309.146 130.307 309.347ZM130.198 312.244C130.407 312.467 130.679 312.578 131.014 312.578C131.349 312.578 131.622 312.467 131.83 312.244C132.038 312.023 132.142 311.738 132.142 311.392C132.142 311.051 132.037 310.772 131.825 310.556C131.614 310.34 131.344 310.233 131.014 310.233C130.685 310.233 130.414 310.34 130.203 310.556C129.992 310.772 129.886 311.051 129.886 311.392C129.886 311.738 129.99 312.023 130.198 312.244ZM134.164 313.043C134.077 312.952 134.034 312.845 134.034 312.723C134.034 312.602 134.077 312.496 134.164 312.404C134.251 312.313 134.352 312.268 134.468 312.268C134.584 312.268 134.684 312.313 134.771 312.404C134.858 312.496 134.902 312.602 134.902 312.723C134.902 312.845 134.858 312.952 134.771 313.043C134.684 313.134 134.584 313.18 134.468 313.18C134.352 313.18 134.251 313.134 134.164 313.043ZM139.405 312.285C139.006 312.894 138.511 313.198 137.921 313.198C137.331 313.198 136.837 312.894 136.437 312.285C136.05 311.695 135.856 310.95 135.856 310.05C135.856 309.15 136.05 308.404 136.437 307.814C136.837 307.205 137.331 306.901 137.921 306.901C138.511 306.901 139.006 307.205 139.405 307.814C139.793 308.404 139.986 309.15 139.986 310.05C139.986 310.95 139.793 311.695 139.405 312.285ZM138.919 308.198C138.653 307.747 138.32 307.522 137.921 307.522C137.522 307.522 137.189 307.747 136.923 308.198C136.64 308.673 136.498 309.289 136.498 310.05C136.498 310.81 136.64 311.428 136.923 311.902C137.189 312.352 137.522 312.578 137.921 312.578C138.32 312.578 138.653 312.352 138.919 311.902C139.203 311.428 139.344 310.81 139.344 310.05C139.344 309.289 139.203 308.673 138.919 308.198ZM141.774 308.508H141.132C141.149 308.185 141.238 307.887 141.401 307.613C141.69 307.139 142.138 306.901 142.745 306.901C143.26 306.901 143.661 307.063 143.947 307.385C144.234 307.708 144.377 308.094 144.377 308.544C144.377 309.183 144.128 309.633 143.631 309.895C143.706 309.926 143.78 309.966 143.852 310.018C143.924 310.07 144.012 310.15 144.116 310.26C144.22 310.37 144.305 310.52 144.368 310.712C144.432 310.903 144.463 311.12 144.463 311.364C144.463 311.918 144.294 312.362 143.956 312.696C143.618 313.031 143.194 313.198 142.685 313.198C142.344 313.198 142.025 313.114 141.73 312.947C141.435 312.78 141.216 312.514 141.071 312.149C140.995 311.954 140.953 311.741 140.941 311.51H141.583C141.612 311.76 141.681 311.963 141.791 312.121C141.988 312.425 142.286 312.578 142.685 312.578C143.003 312.578 143.272 312.457 143.491 312.218C143.711 311.977 143.822 311.686 143.822 311.346C143.822 310.847 143.631 310.506 143.248 310.324C143.058 310.226 142.838 310.184 142.589 310.196V309.593C142.838 309.612 143.058 309.569 143.248 309.466C143.573 309.289 143.735 308.989 143.735 308.563C143.735 308.265 143.654 308.016 143.491 307.819C143.33 307.621 143.081 307.522 142.745 307.522C142.422 307.522 142.173 307.638 141.999 307.869C141.866 308.051 141.791 308.265 141.774 308.508ZM147.509 313.089L148.377 309.01L149.869 312.094L151.327 309.01L152.195 313.089H151.553L151.076 310.743L149.852 313.353L148.611 310.743L148.152 313.089H147.509Z" fill="black"/>
<path d="M129.517 321.096V315.648H128.546L128.884 315.01H130.159V321.096H129.517ZM134.186 314.863L134.671 315.247L133.344 317.191C133.506 317.136 133.677 317.109 133.856 317.109C134.406 317.109 134.855 317.3 135.206 317.684C135.555 318.067 135.731 318.544 135.731 319.116C135.731 319.725 135.544 320.225 135.171 320.617C134.798 321.01 134.322 321.206 133.743 321.206C133.315 321.206 132.943 321.098 132.628 320.882C132.313 320.666 132.086 320.404 131.947 320.097C131.808 319.79 131.739 319.469 131.739 319.135C131.739 318.672 131.898 318.207 132.216 317.738L134.186 314.863ZM133.734 320.586C134.128 320.586 134.452 320.447 134.707 320.17C134.961 319.893 135.089 319.548 135.089 319.135C135.089 318.727 134.96 318.391 134.702 318.126C134.444 317.861 134.119 317.729 133.726 317.729C133.333 317.729 133.01 317.863 132.758 318.131C132.507 318.399 132.381 318.733 132.381 319.135C132.381 319.548 132.507 319.893 132.758 320.17C133.01 320.447 133.336 320.586 133.734 320.586ZM136.884 321.051C136.797 320.959 136.754 320.853 136.754 320.732C136.754 320.61 136.797 320.504 136.884 320.412C136.971 320.321 137.072 320.275 137.188 320.275C137.304 320.275 137.405 320.321 137.492 320.412C137.578 320.504 137.622 320.61 137.622 320.732C137.622 320.853 137.578 320.959 137.492 321.051C137.405 321.142 137.304 321.187 137.188 321.187C137.072 321.187 136.971 321.142 136.884 321.051ZM142.125 320.293C141.726 320.902 141.232 321.206 140.642 321.206C140.052 321.206 139.557 320.902 139.158 320.293C138.77 319.703 138.576 318.958 138.576 318.058C138.576 317.158 138.77 316.412 139.158 315.822C139.557 315.214 140.052 314.909 140.642 314.909C141.232 314.909 141.726 315.214 142.125 315.822C142.513 316.412 142.707 317.158 142.707 318.058C142.707 318.958 142.513 319.703 142.125 320.293ZM141.64 316.205C141.373 315.755 141.04 315.53 140.642 315.53C140.243 315.53 139.909 315.755 139.644 316.205C139.36 316.68 139.219 317.297 139.219 318.058C139.219 318.818 139.36 319.436 139.644 319.91C139.909 320.36 140.243 320.586 140.642 320.586C141.04 320.586 141.373 320.36 141.64 319.91C141.923 319.436 142.064 318.818 142.064 318.058C142.064 317.297 141.923 316.68 141.64 316.205ZM146.022 314.863L146.507 315.247L145.18 317.191C145.342 317.136 145.513 317.109 145.692 317.109C146.241 317.109 146.691 317.3 147.041 317.684C147.391 318.067 147.566 318.544 147.566 319.116C147.566 319.725 147.379 320.225 147.006 320.617C146.633 321.01 146.158 321.206 145.579 321.206C145.151 321.206 144.779 321.098 144.464 320.882C144.148 320.666 143.921 320.404 143.783 320.097C143.644 319.79 143.574 319.469 143.574 319.135C143.574 318.672 143.733 318.207 144.052 317.738L146.022 314.863ZM145.57 320.586C145.963 320.586 146.287 320.447 146.542 320.17C146.797 319.893 146.924 319.548 146.924 319.135C146.924 318.727 146.795 318.391 146.538 318.126C146.281 317.861 145.955 317.729 145.561 317.729C145.168 317.729 144.845 317.863 144.594 318.131C144.342 318.399 144.216 318.733 144.216 319.135C144.216 319.548 144.342 319.893 144.594 320.17C144.845 320.447 145.171 320.586 145.57 320.586ZM148.208 321.096L149.076 317.017L150.568 320.102L152.026 317.017L152.893 321.096H152.251L151.774 318.751L150.55 321.361L149.31 318.751L148.85 321.096H148.208Z" fill="black"/>
<path d="M95.8519 158.351V154.143H95.1013L95.3631 153.649H96.3479V158.351H95.8519ZM99.4581 153.536L99.8332 153.833L98.8079 155.334C98.9332 155.291 99.0652 155.27 99.2039 155.27C99.628 155.27 99.9754 155.418 100.246 155.714C100.516 156.01 100.652 156.379 100.652 156.821C100.652 157.291 100.507 157.678 100.219 157.981C99.9308 158.284 99.5634 158.435 99.1165 158.435C98.786 158.435 98.4988 158.352 98.2549 158.185C98.0118 158.018 97.8361 157.816 97.7286 157.579C97.6216 157.341 97.5681 157.094 97.5681 156.835C97.5681 156.478 97.6911 156.118 97.9369 155.757L99.4581 153.536ZM99.1094 157.956C99.414 157.956 99.6641 157.849 99.8604 157.635C100.057 157.422 100.156 157.155 100.156 156.835C100.156 156.52 100.056 156.26 99.8568 156.056C99.6588 155.852 99.4068 155.749 99.1031 155.749C98.7985 155.749 98.5496 155.853 98.3552 156.06C98.1616 156.267 98.0644 156.525 98.0644 156.835C98.0644 157.155 98.1616 157.422 98.3552 157.635C98.5496 157.849 98.8016 157.956 99.1094 157.956ZM101.543 158.315C101.476 158.245 101.442 158.163 101.442 158.069C101.442 157.974 101.476 157.892 101.543 157.822C101.61 157.752 101.688 157.716 101.777 157.716C101.867 157.716 101.945 157.752 102.012 157.822C102.079 157.892 102.113 157.974 102.113 158.069C102.113 158.163 102.079 158.245 102.012 158.315C101.945 158.386 101.867 158.421 101.777 158.421C101.688 158.421 101.61 158.386 101.543 158.315ZM103.614 154.812H103.118C103.132 154.563 103.201 154.332 103.326 154.121C103.549 153.755 103.896 153.571 104.365 153.571C104.763 153.571 105.072 153.696 105.293 153.945C105.514 154.194 105.625 154.493 105.625 154.84C105.625 155.334 105.433 155.681 105.048 155.884C105.107 155.907 105.164 155.938 105.22 155.979C105.275 156.019 105.344 156.081 105.424 156.165C105.504 156.25 105.569 156.367 105.618 156.515C105.668 156.662 105.692 156.83 105.692 157.018C105.692 157.446 105.561 157.789 105.3 158.048C105.039 158.306 104.711 158.435 104.318 158.435C104.054 158.435 103.809 158.371 103.581 158.242C103.353 158.112 103.183 157.906 103.071 157.624C103.013 157.474 102.979 157.31 102.971 157.131H103.467C103.489 157.324 103.543 157.481 103.628 157.603C103.779 157.839 104.009 157.956 104.318 157.956C104.564 157.956 104.771 157.863 104.941 157.678C105.111 157.492 105.196 157.267 105.196 157.004C105.196 156.619 105.048 156.356 104.754 156.214C104.606 156.14 104.437 156.107 104.244 156.116V155.651C104.437 155.665 104.606 155.632 104.754 155.552C105.004 155.416 105.129 155.183 105.129 154.854C105.129 154.624 105.066 154.432 104.941 154.28C104.816 154.127 104.624 154.05 104.365 154.05C104.114 154.05 103.923 154.141 103.789 154.319C103.686 154.46 103.628 154.624 103.614 154.812ZM108.601 153.536L108.976 153.833L107.951 155.334C108.076 155.291 108.208 155.27 108.347 155.27C108.771 155.27 109.118 155.418 109.389 155.714C109.659 156.01 109.795 156.379 109.795 156.821C109.795 157.291 109.65 157.678 109.362 157.981C109.074 158.284 108.706 158.435 108.259 158.435C107.929 158.435 107.642 158.352 107.398 158.185C107.154 158.018 106.979 157.816 106.872 157.579C106.764 157.341 106.711 157.094 106.711 156.835C106.711 156.478 106.834 156.118 107.08 155.757L108.601 153.536ZM108.252 157.956C108.557 157.956 108.807 157.849 109.003 157.635C109.2 157.422 109.298 157.155 109.298 156.835C109.298 156.52 109.199 156.26 108.999 156.056C108.801 155.852 108.55 155.749 108.246 155.749C107.942 155.749 107.693 155.853 107.498 156.06C107.304 156.267 107.207 156.525 107.207 156.835C107.207 157.155 107.304 157.422 107.498 157.635C107.693 157.849 107.944 157.956 108.252 157.956ZM111.852 158.351L112.522 155.2L113.675 157.582L114.801 155.2L115.472 158.351H114.975L114.607 156.539L113.662 158.555L112.703 156.539L112.348 158.351H111.852Z" fill="black"/>
<path d="M128.74 184.598H128.244C128.257 184.349 128.327 184.117 128.452 183.906C128.675 183.54 129.022 183.356 129.49 183.356C129.888 183.356 130.198 183.481 130.419 183.73C130.64 183.979 130.751 184.278 130.751 184.625C130.751 185.119 130.558 185.467 130.174 185.669C130.232 185.692 130.29 185.724 130.345 185.764C130.401 185.804 130.469 185.866 130.55 185.951C130.63 186.035 130.695 186.151 130.744 186.3C130.793 186.448 130.817 186.616 130.817 186.804C130.817 187.232 130.686 187.574 130.426 187.833C130.164 188.091 129.836 188.221 129.443 188.221C129.18 188.221 128.934 188.156 128.706 188.027C128.478 187.897 128.309 187.692 128.197 187.41C128.138 187.259 128.105 187.095 128.096 186.916H128.592C128.614 187.109 128.668 187.266 128.754 187.389C128.905 187.624 129.135 187.741 129.443 187.741C129.689 187.741 129.897 187.649 130.067 187.463C130.236 187.277 130.322 187.053 130.322 186.79C130.322 186.404 130.174 186.141 129.879 186C129.732 185.925 129.562 185.892 129.369 185.902V185.436C129.562 185.45 129.732 185.417 129.879 185.338C130.129 185.201 130.255 184.969 130.255 184.64C130.255 184.409 130.192 184.218 130.067 184.065C129.942 183.913 129.749 183.836 129.49 183.836C129.24 183.836 129.048 183.925 128.914 184.104C128.811 184.245 128.754 184.409 128.74 184.598ZM132.004 188.101C131.937 188.03 131.904 187.948 131.904 187.854C131.904 187.76 131.937 187.678 132.004 187.607C132.071 187.537 132.149 187.502 132.238 187.502C132.328 187.502 132.406 187.537 132.473 187.607C132.54 187.678 132.574 187.76 132.574 187.854C132.574 187.948 132.54 188.03 132.473 188.101C132.406 188.171 132.328 188.207 132.238 188.207C132.149 188.207 132.071 188.171 132.004 188.101ZM135.925 183.173V186.768H136.475V187.248H135.925V188.136H135.429V187.248H133.137L135.925 183.173ZM134.015 186.768H135.429V184.689L134.015 186.768ZM139.062 183.322L139.438 183.617L138.412 185.119C138.537 185.077 138.669 185.055 138.808 185.055C139.232 185.055 139.579 185.203 139.85 185.499C140.12 185.795 140.256 186.165 140.256 186.606C140.256 187.076 140.111 187.463 139.823 187.766C139.535 188.069 139.167 188.221 138.72 188.221C138.39 188.221 138.103 188.137 137.859 187.97C137.616 187.803 137.44 187.601 137.333 187.364C137.226 187.127 137.172 186.879 137.172 186.62C137.172 186.263 137.295 185.904 137.541 185.542L139.062 183.322ZM138.714 187.741C139.017 187.741 139.268 187.634 139.464 187.42C139.661 187.207 139.759 186.94 139.759 186.62C139.759 186.305 139.66 186.046 139.461 185.841C139.262 185.637 139.011 185.535 138.707 185.535C138.403 185.535 138.154 185.638 137.959 185.845C137.765 186.052 137.668 186.31 137.668 186.62C137.668 186.94 137.765 187.207 137.959 187.42C138.154 187.634 138.405 187.741 138.714 187.741ZM140.751 188.136L141.422 184.985L142.574 187.368L143.701 184.985L144.371 188.136H143.874L143.506 186.324L142.561 188.34L141.603 186.324L141.247 188.136H140.751Z" fill="black"/>
<path d="M85.0767 226.855H83.8779L84.554 226.034C84.669 225.892 84.7408 225.797 84.7707 225.75C84.8394 225.647 84.8737 225.547 84.8737 225.452C84.8737 225.34 84.8394 225.25 84.7707 225.178C84.7025 225.107 84.6128 225.072 84.504 225.072C84.3702 225.072 84.2672 225.129 84.195 225.244C84.1566 225.306 84.1357 225.384 84.1339 225.475H83.9283C83.9354 225.31 83.9818 225.175 84.067 225.072C84.1785 224.939 84.3252 224.873 84.5063 224.873C84.6717 224.873 84.8082 224.928 84.917 225.038C85.0249 225.148 85.0793 225.287 85.0793 225.455C85.0793 225.585 85.0303 225.725 84.9322 225.873C84.8818 225.945 84.7979 226.054 84.6788 226.197L84.2926 226.657H85.0767V226.855Z" fill="black"/>
<path d="M145.636 185.424H144.438L145.114 184.603C145.229 184.46 145.301 184.366 145.331 184.319C145.399 184.215 145.434 184.116 145.434 184.021C145.434 183.909 145.399 183.818 145.331 183.747C145.262 183.676 145.173 183.64 145.064 183.64C144.931 183.64 144.828 183.698 144.755 183.813C144.717 183.875 144.696 183.952 144.694 184.044H144.488C144.496 183.878 144.542 183.744 144.627 183.64C144.738 183.507 144.885 183.441 145.067 183.441C145.232 183.441 145.368 183.497 145.477 183.607C145.585 183.717 145.64 183.856 145.64 184.023C145.64 184.154 145.59 184.294 145.492 184.442C145.442 184.514 145.358 184.622 145.239 184.766L144.853 185.226H145.636V185.424Z" fill="black"/>
<path d="M144.38 221.566H143.181L143.857 220.744C143.972 220.602 144.045 220.507 144.074 220.46C144.142 220.357 144.177 220.258 144.177 220.162C144.177 220.051 144.142 219.96 144.074 219.889C144.005 219.818 143.916 219.782 143.806 219.782C143.674 219.782 143.571 219.839 143.498 219.955C143.459 220.017 143.439 220.094 143.437 220.185H143.231C143.239 220.02 143.286 219.885 143.37 219.782C143.482 219.65 143.628 219.583 143.81 219.583C143.975 219.583 144.111 219.638 144.219 219.748C144.328 219.859 144.382 219.997 144.382 220.165C144.382 220.296 144.333 220.435 144.235 220.583C144.185 220.655 144.101 220.763 143.982 220.908L143.595 221.367H144.38V221.566Z" fill="black"/>
<path d="M116.718 155.452H115.52L116.196 154.631C116.311 154.488 116.383 154.394 116.413 154.347C116.481 154.244 116.516 154.144 116.516 154.049C116.516 153.938 116.481 153.846 116.413 153.775C116.345 153.704 116.255 153.669 116.146 153.669C116.012 153.669 115.909 153.726 115.837 153.841C115.798 153.904 115.778 153.981 115.776 154.072H115.57C115.577 153.906 115.624 153.772 115.709 153.669C115.82 153.536 115.967 153.47 116.149 153.47C116.314 153.47 116.45 153.525 116.559 153.635C116.667 153.746 116.721 153.884 116.721 154.052C116.721 154.182 116.672 154.322 116.574 154.47C116.524 154.542 116.44 154.65 116.321 154.795L115.935 155.253H116.718V155.452Z" fill="black"/>
<path d="M152.971 309.498H151.772L152.448 308.677C152.563 308.534 152.636 308.439 152.665 308.393C152.734 308.289 152.768 308.19 152.768 308.094C152.768 307.983 152.734 307.892 152.665 307.821C152.597 307.75 152.508 307.714 152.398 307.714C152.265 307.714 152.162 307.772 152.09 307.887C152.051 307.949 152.03 308.026 152.029 308.118H151.823C151.83 307.952 151.877 307.818 151.962 307.714C152.073 307.581 152.22 307.515 152.401 307.515C152.567 307.515 152.703 307.57 152.811 307.68C152.92 307.791 152.974 307.929 152.974 308.098C152.974 308.228 152.925 308.367 152.826 308.515C152.776 308.587 152.693 308.696 152.574 308.84L152.187 309.299H152.971V309.498Z" fill="black"/>
<path d="M153.876 317.415H152.677L153.353 316.593C153.468 316.451 153.541 316.357 153.57 316.309C153.639 316.207 153.673 316.107 153.673 316.012C153.673 315.9 153.639 315.809 153.57 315.738C153.501 315.666 153.413 315.631 153.303 315.631C153.17 315.631 153.067 315.689 152.995 315.804C152.956 315.866 152.935 315.943 152.933 316.035H152.728C152.735 315.87 152.782 315.734 152.867 315.631C152.978 315.499 153.124 315.432 153.306 315.432C153.472 315.432 153.608 315.487 153.716 315.598C153.824 315.708 153.879 315.846 153.879 316.014C153.879 316.145 153.83 316.284 153.732 316.432C153.681 316.504 153.597 316.613 153.478 316.757L153.092 317.216H153.876V317.415Z" fill="black"/>
<path d="M113.822 120.433H112.953C112.977 119.996 113.098 119.593 113.318 119.223C113.708 118.581 114.314 118.26 115.136 118.26C115.832 118.26 116.374 118.478 116.761 118.914C117.148 119.35 117.342 119.873 117.342 120.482C117.342 121.345 117.005 121.954 116.333 122.308C116.434 122.349 116.534 122.405 116.632 122.474C116.73 122.544 116.849 122.654 116.99 122.801C117.13 122.95 117.244 123.153 117.33 123.412C117.416 123.671 117.459 123.966 117.459 124.294C117.459 125.043 117.23 125.643 116.773 126.096C116.315 126.548 115.742 126.774 115.054 126.774C114.592 126.774 114.162 126.662 113.763 126.435C113.364 126.209 113.067 125.849 112.872 125.355C112.77 125.093 112.711 124.804 112.696 124.492H113.564C113.603 124.829 113.697 125.105 113.845 125.319C114.111 125.73 114.514 125.936 115.054 125.936C115.484 125.936 115.848 125.773 116.145 125.449C116.442 125.123 116.591 124.731 116.591 124.27C116.591 123.595 116.333 123.134 115.816 122.888C115.558 122.756 115.261 122.699 114.925 122.715V121.901C115.261 121.925 115.558 121.868 115.816 121.728C116.254 121.489 116.473 121.082 116.473 120.507C116.473 120.103 116.364 119.768 116.145 119.5C115.926 119.233 115.59 119.1 115.136 119.1C114.698 119.1 114.361 119.256 114.127 119.568C113.947 119.816 113.845 120.103 113.822 120.433ZM119.196 124.455V123.542H121.777V124.455H119.196ZM123.162 121.506H124.006V123.604L125.978 121.506H127.01L124.898 123.789L127.268 126.627H126.165L124.264 124.381L124.006 124.64V126.627H123.162V121.506ZM132.002 126.01C131.514 126.52 130.897 126.774 130.154 126.774C129.412 126.774 128.795 126.52 128.306 126.01C127.818 125.5 127.573 124.858 127.573 124.085C127.573 123.303 127.818 122.658 128.306 122.147C128.795 121.637 129.412 121.382 130.154 121.382C130.897 121.382 131.514 121.637 132.002 122.147C132.491 122.658 132.736 123.303 132.736 124.085C132.736 124.858 132.491 125.5 132.002 126.01ZM131.368 122.678C131.036 122.341 130.632 122.172 130.154 122.172C129.677 122.172 129.273 122.343 128.94 122.684C128.608 123.025 128.442 123.492 128.442 124.085C128.442 124.677 128.61 125.142 128.946 125.479C129.282 125.817 129.685 125.985 130.154 125.985C130.624 125.985 131.027 125.817 131.363 125.479C131.7 125.142 131.868 124.677 131.868 124.085C131.868 123.484 131.701 123.015 131.368 122.678ZM133.463 126.627L134.636 121.111L136.654 125.281L138.626 121.111L139.799 126.627H138.931L138.285 123.455L136.631 126.985L134.953 123.455L134.332 126.627H133.463ZM107.732 141.138V133.771H106.418L106.876 132.908H108.601V141.138H107.732ZM114.925 132.451V138.744H115.887V139.583H114.925V141.138H114.057V139.583H110.044L114.925 132.451ZM111.581 138.744H114.057V135.104L111.581 138.744ZM122.094 132.908V133.747H119.582L119.078 135.523C119.211 135.491 119.375 135.474 119.571 135.474C120.345 135.474 120.969 135.746 121.442 136.289C121.916 136.832 122.152 137.51 122.152 138.325C122.152 139.213 121.877 139.929 121.325 140.472C120.774 141.014 120.099 141.286 119.301 141.286C118.628 141.286 118.045 141.072 117.553 140.644C117.271 140.39 117.044 140.11 116.873 139.805L117.565 139.287C117.682 139.534 117.858 139.756 118.092 139.953C118.476 140.282 118.899 140.447 119.36 140.447C119.907 140.447 120.365 140.241 120.733 139.83C121.1 139.419 121.284 138.921 121.284 138.337C121.284 137.744 121.102 137.259 120.739 136.881C120.374 136.503 119.915 136.313 119.36 136.313C118.867 136.313 118.362 136.503 117.846 136.881L118.984 132.908H122.094ZM124.065 141.076C123.948 140.953 123.889 140.809 123.889 140.644C123.889 140.48 123.948 140.336 124.065 140.213C124.182 140.089 124.319 140.028 124.475 140.028C124.632 140.028 124.769 140.089 124.886 140.213C125.004 140.336 125.062 140.48 125.062 140.644C125.062 140.809 125.004 140.953 124.886 141.076C124.769 141.2 124.632 141.262 124.475 141.262C124.319 141.262 124.182 141.2 124.065 141.076ZM128.535 141.335L127.878 140.829L129.673 138.201C129.446 138.275 129.215 138.313 128.981 138.313C128.238 138.313 127.63 138.053 127.157 137.535C126.683 137.017 126.446 136.371 126.446 135.598C126.446 134.775 126.699 134.098 127.203 133.568C127.708 133.037 128.351 132.772 129.133 132.772C129.712 132.772 130.214 132.918 130.641 133.21C131.068 133.502 131.374 133.856 131.562 134.271C131.75 134.686 131.844 135.121 131.844 135.573C131.844 136.207 131.629 136.836 131.198 137.461L128.535 141.335ZM129.145 133.611C128.613 133.611 128.175 133.799 127.831 134.173C127.487 134.547 127.315 135.013 127.315 135.573C127.315 136.125 127.489 136.578 127.837 136.936C128.185 137.294 128.625 137.473 129.157 137.473C129.689 137.473 130.125 137.292 130.465 136.931C130.805 136.568 130.976 136.116 130.976 135.573C130.976 135.013 130.805 134.547 130.465 134.173C130.125 133.799 129.685 133.611 129.145 133.611ZM134.284 141.138V133.771H132.97L133.428 132.908H135.152V141.138H134.284ZM140.796 141.138L141.97 135.622L143.988 139.793L145.959 135.622L147.132 141.138H146.264L145.619 137.967L143.964 141.496L142.286 137.967L141.664 141.138H140.796Z" fill="black"/>
<path d="M148.876 136.111H146.997L148.057 134.823C148.238 134.6 148.35 134.452 148.397 134.378C148.504 134.216 148.558 134.06 148.558 133.911C148.558 133.737 148.504 133.593 148.397 133.482C148.289 133.37 148.15 133.315 147.979 133.315C147.769 133.315 147.608 133.405 147.494 133.585C147.434 133.683 147.402 133.803 147.399 133.948H147.076C147.088 133.687 147.16 133.477 147.294 133.315C147.468 133.107 147.698 133.003 147.983 133.003C148.242 133.003 148.456 133.089 148.626 133.262C148.796 133.434 148.881 133.652 148.881 133.915C148.881 134.12 148.804 134.338 148.65 134.571C148.572 134.684 148.439 134.854 148.253 135.08L147.647 135.8H148.876V136.111Z" fill="black"/>
<path fill-rule="evenodd" clip-rule="evenodd" d="M0.305664 9.67554H8.49606V24.2976H0.305664V9.67554Z" fill="black" stroke="black" stroke-width="0.2" stroke-miterlimit="22.9256"/>
<path fill-rule="evenodd" clip-rule="evenodd" d="M8.49548 9.67554H166.962V18.4042H8.49548V9.67554Z" fill="black" stroke="black" stroke-width="0.2" stroke-miterlimit="22.9256"/>
<path fill-rule="evenodd" clip-rule="evenodd" d="M0.606995 43.8745H9.03108V60.1718H0.606995V43.8745Z" fill="black" stroke="black" stroke-width="0.2" stroke-miterlimit="22.9256"/>
<path fill-rule="evenodd" clip-rule="evenodd" d="M0.636963 91.4426H8.60882V115.305H0.636963V91.4426Z" fill="black" stroke="black" stroke-width="0.2" stroke-miterlimit="22.9256"/>
<path fill-rule="evenodd" clip-rule="evenodd" d="M158.744 15.0481H166.649V117.028H158.744V15.0481Z" fill="black" stroke="black" stroke-width="0.2" stroke-miterlimit="22.9256"/>
<path fill-rule="evenodd" clip-rule="evenodd" d="M166.916 279.951H168.896V292.016H166.916V279.951Z" fill="black" stroke="black" stroke-width="0.2" stroke-miterlimit="22.9256"/>
<path fill-rule="evenodd" clip-rule="evenodd" d="M157.958 134.003H166.855V332.412H157.958V134.003Z" fill="black" stroke="black" stroke-width="0.2" stroke-miterlimit="22.9256"/>
<path fill-rule="evenodd" clip-rule="evenodd" d="M151.672 323.817H162.407V332.412H151.672V323.817Z" fill="black" stroke="black" stroke-width="0.2" stroke-miterlimit="22.9256"/>
<path fill-rule="evenodd" clip-rule="evenodd" d="M121.096 191.819H157.958V200.268H121.096V191.819Z" fill="black" stroke="black" stroke-width="0.2" stroke-miterlimit="22.9256"/>
<path fill-rule="evenodd" clip-rule="evenodd" d="M100.818 190.647H106.212V200.19H100.818V190.647Z" fill="black" stroke="black" stroke-width="0.2" stroke-miterlimit="22.9256"/>
<path fill-rule="evenodd" clip-rule="evenodd" d="M139.471 280.844H158.141V290.2H139.471V280.844Z" fill="black" stroke="black" stroke-width="0.2" stroke-miterlimit="22.9256"/>
<path fill-rule="evenodd" clip-rule="evenodd" d="M89.4297 280.745H109.967V290.055H89.4297V280.745Z" fill="black" stroke="black" stroke-width="0.2" stroke-miterlimit="22.9256"/>
<path fill-rule="evenodd" clip-rule="evenodd" d="M0.921936 280.958H60.1563V290.176H0.921936V280.958Z" fill="black" stroke="black" stroke-width="0.2" stroke-miterlimit="22.9256"/>
<path fill-rule="evenodd" clip-rule="evenodd" d="M0.349274 243.985H8.83624V280.959H0.349274V243.985Z" fill="black" stroke="black" stroke-width="0.2" stroke-miterlimit="22.9256"/>
<path fill-rule="evenodd" clip-rule="evenodd" d="M0.86145 188.862H8.80566V212.602H0.86145V188.862Z" fill="black" stroke="black" stroke-width="0.2" stroke-miterlimit="22.9256"/>
<path fill-rule="evenodd" clip-rule="evenodd" d="M9.74271 191.68H82.9077V200.837H9.74271V191.68Z" fill="black" stroke="black" stroke-width="0.2" stroke-miterlimit="22.9256"/>
<path fill-rule="evenodd" clip-rule="evenodd" d="M0.555786 289.702H8.91698V297.338H0.555786V289.702Z" fill="black" stroke="black" stroke-width="0.2" stroke-miterlimit="22.9256"/>
<path fill-rule="evenodd" clip-rule="evenodd" d="M0.681641 316.51H8.66554V331.452H0.681641V316.51Z" fill="black" stroke="black" stroke-width="0.2" stroke-miterlimit="22.9256"/>
<path fill-rule="evenodd" clip-rule="evenodd" d="M0.681641 324.212H15.7383V332.279H0.681641V324.212Z" fill="black" stroke="black" stroke-width="0.2" stroke-miterlimit="22.9256"/>
<path fill-rule="evenodd" clip-rule="evenodd" d="M76.1342 323.531H91.7417V332.31H76.1342V323.531Z" fill="black" stroke="black" stroke-width="0.2" stroke-miterlimit="22.9256"/>
<path fill-rule="evenodd" clip-rule="evenodd" d="M0.990601 147.065H8.62485V169.271H0.990601V147.065Z" fill="black" stroke="black" stroke-width="0.2" stroke-miterlimit="22.9256"/>
<path fill-rule="evenodd" clip-rule="evenodd" d="M159.229 3.22754H166.723V80.8238H159.229V3.22754Z" fill="black" stroke="black" stroke-width="0.2" stroke-miterlimit="22.9256"/>
<path fill-rule="evenodd" clip-rule="evenodd" d="M6.957 1.90454H166.61V9.63339H6.957V1.90454Z" fill="black" stroke="black" stroke-width="0.2" stroke-miterlimit="22.9256"/>
<path fill-rule="evenodd" clip-rule="evenodd" d="M1.47754 1H10.3971V9.92733H1.47754V1Z" fill="black" stroke="black" stroke-width="0.2" stroke-miterlimit="22.9256"/>
<path d="M165.676 116.983H184V116.139H165.676" stroke="black" stroke-width="0.0762" stroke-miterlimit="22.9256"/>
<path d="M184 116.983C183.928 118.17 183.856 119.357 183.477 120.833C183.098 122.31 182.411 124.076 181.626 125.533C180.841 126.99 179.955 128.138 179.059 129.088C178.163 130.036 177.255 130.787 176.315 131.45C175.375 132.112 174.4 132.686 173.405 133.149C172.409 133.613 171.391 133.966 170.572 134.187C169.753 134.408 169.134 134.496 168.37 134.574C167.607 134.651 166.699 134.717 165.792 134.783" stroke="black" stroke-width="0.2" stroke-miterlimit="22.9256"/>
</svg>
