<svg width="50" height="50" viewBox="0 0 50 50" fill="none" xmlns="http://www.w3.org/2000/svg">
<rect width="50" height="50" fill="white"/>
<path fill-rule="evenodd" clip-rule="evenodd" d="M18.0405 4.82742C17.2065 5.04472 16.3813 5.70706 16.0109 6.45636C15.6262 7.23475 15.6168 7.64827 15.6455 22.3224C15.6725 36.1266 15.6785 36.5326 15.8593 36.7399C16.1022 37.0183 16.631 37.0236 16.8943 36.7505C17.0376 36.6018 17.0897 36.4127 17.0897 36.041V35.5343H25.0021H32.9146V36.041C32.9146 36.4127 32.9666 36.6018 33.11 36.7505C33.3732 37.0236 33.9021 37.0183 34.1449 36.7399C34.3256 36.5327 34.3324 36.1034 34.3798 21.9126C34.4262 8.04598 34.4377 7.28431 34.6049 7.01948C34.9482 6.47602 35.7182 6.15382 36.3369 6.2948C36.7715 6.39383 37.3836 6.99698 37.5033 7.44414C37.5577 7.64776 37.6026 8.09138 37.6029 8.4301C37.6033 8.94224 37.6414 9.08292 37.8295 9.26626C38.1088 9.5385 38.4851 9.54863 38.7892 9.29221C39.0028 9.11221 39.0194 9.02758 39.0135 8.15149C39.0082 7.35921 38.9667 7.11434 38.7584 6.64822C37.8215 4.55204 35.1439 4.10457 33.7028 5.80334C33.0196 6.60859 32.9146 7.07299 32.9146 9.28775V11.2096H25.0021H17.0897L17.0902 9.56262C17.0908 7.71506 17.1656 7.30367 17.5924 6.79924C18.1028 6.19619 18.895 6.09686 19.6059 6.54677C20.0985 6.85853 20.3125 7.30641 20.3129 8.02723C20.3134 8.7517 20.4575 9.24843 20.7078 9.38738C20.9931 9.5458 21.334 9.50303 21.5647 9.27995C21.7548 9.09619 21.7785 8.96961 21.7784 8.13973C21.7784 7.32414 21.7433 7.12934 21.5006 6.59805C21.1884 5.91443 20.5973 5.30398 19.968 5.01512C19.4662 4.78485 18.5474 4.69536 18.0405 4.82742ZM32.9146 14.8076V16.8854H25.0021H17.0897V14.8076V12.7299H25.0021H32.9146V14.8076ZM32.8922 20.5087L32.9186 22.5611H25.0042H17.0897V20.551C17.0897 19.4453 17.1193 18.5101 17.1554 18.4726C17.1914 18.4351 20.7411 18.4161 25.0434 18.4304L32.8657 18.4563L32.8922 20.5087ZM32.8657 26.2098V28.2875H25.0021H17.1385L17.1119 26.3141C17.0973 25.2288 17.107 24.2822 17.1335 24.2105C17.1723 24.1055 18.7068 24.0853 25.0237 24.1061L32.8657 24.1321V26.2098ZM32.8922 31.9109L32.8657 33.9633H25.0021H17.1385L17.112 31.9109L17.0857 29.8585H25.0021H32.9186L32.8922 31.9109ZM0.207793 38.3213C-0.286882 38.9738 0.139121 39.5869 1.08891 39.5896C1.31993 39.5902 1.75072 39.6581 2.04622 39.7404C2.76401 39.9403 2.98624 39.9306 3.21844 39.6897C3.47183 39.4268 3.47671 38.8681 3.22772 38.6342C2.94648 38.3701 2.19069 38.165 1.2579 38.0993C0.430319 38.0411 0.418304 38.0437 0.207793 38.3213ZM11.3533 38.2147C10.4696 38.4234 9.62557 38.8476 8.7426 39.5269C7.39661 40.5624 6.94989 40.6667 5.75189 40.2252C5.28857 40.0545 5.27011 40.0553 5.0047 40.26C4.64063 40.5409 4.58758 41.0402 4.88679 41.3706C5.2449 41.766 5.90623 41.9711 6.7976 41.9629C7.80473 41.9535 8.27596 41.7697 9.28798 40.9911C10.6853 39.9163 11.5347 39.5884 12.9223 39.5884C14.2194 39.5884 14.9667 39.9042 16.7478 41.2049C17.5774 41.8106 18.08 41.9745 19.0532 41.9563C19.9586 41.9394 20.3995 41.7538 21.5109 40.9224C22.8791 39.8987 23.6915 39.5884 25.0021 39.5884C26.3012 39.5884 27.284 39.9736 28.5422 40.9762C29.4532 41.7022 30.0751 41.9492 31.0014 41.9529C31.9241 41.9568 32.3891 41.8187 33.0611 41.342C33.3297 41.1514 33.8323 40.7931 34.178 40.5457C35.0462 39.9242 35.7256 39.6777 36.7454 39.6139C38.2681 39.5186 39.1139 39.8054 40.6063 40.9222C41.7706 41.7935 42.168 41.9527 43.1715 41.9495C44.2179 41.9462 44.635 41.7877 45.6903 40.9922C46.988 40.0139 47.9892 39.5884 48.9934 39.5884C49.8565 39.5884 50.272 38.9485 49.8069 38.3352C49.6267 38.0974 49.5373 38.0681 48.9922 38.0681C48.2513 38.0681 47.0897 38.3629 46.38 38.7312C46.0928 38.8802 45.4884 39.2786 45.0369 39.6167C43.4656 40.7928 42.8722 40.7881 41.3448 39.5875C39.8943 38.4474 38.5652 38.0147 36.7731 38.0987C35.161 38.1744 34.1821 38.5745 32.6811 39.7713C31.8274 40.4521 31.2304 40.6247 30.4906 40.4046C30.3133 40.3519 29.7422 39.9926 29.2214 39.6063C27.6659 38.4523 26.9584 38.1774 25.344 38.0999C23.5114 38.0118 22.3875 38.3847 20.7205 39.6338C19.1799 40.7881 18.6452 40.794 17.1853 39.6724C16.3919 39.0629 15.4672 38.5425 14.7536 38.3041C14.109 38.0887 12.1098 38.0362 11.3533 38.2147ZM11.8635 41.4466C11.3167 41.6334 11.0934 41.7662 10.2007 42.4363C9.17622 43.2052 8.49536 43.5189 7.53561 43.6641C6.14214 43.8748 5.01368 43.5823 3.70471 42.6711C2.92773 42.1302 2.53454 42.0967 2.21414 42.5441C1.93085 42.9396 2.05423 43.2624 2.68488 43.7761C3.94345 44.8008 5.16119 45.2146 6.88161 45.2018C8.70988 45.1882 9.41438 44.8979 11.6428 43.2399C12.0099 42.9668 12.223 42.8866 12.6716 42.8529C13.3715 42.8004 13.6718 42.9244 14.6964 43.6892C16.2492 44.8483 17.2102 45.1951 18.8968 45.2052C20.6273 45.2157 21.5777 44.8718 23.2585 43.6266L24.2632 42.8823H25.0023H25.7414L26.7276 43.618C28.3899 44.8579 29.3771 45.2157 31.1074 45.2052C32.8416 45.1948 33.6821 44.8826 35.3893 43.6149C36.19 43.0204 36.429 42.8938 36.8247 42.8543C37.5824 42.7788 37.9374 42.9024 38.7479 43.5244C40.1755 44.6198 41.1589 45.0616 42.4918 45.2064C43.0553 45.2676 43.1622 45.2502 43.3954 45.0599C43.59 44.9011 43.6599 44.7532 43.6599 44.5005C43.6599 43.9868 43.4036 43.8055 42.48 43.6658C41.5015 43.5178 40.8282 43.2062 39.7801 42.416C38.73 41.6246 38.2058 41.3907 37.3515 41.3334C36.3886 41.2687 35.7494 41.4834 34.8059 42.1882C33.2837 43.3253 32.6482 43.6132 31.4493 43.7085C30.0475 43.82 29.0083 43.4503 27.4409 42.2826C26.3614 41.4784 25.7638 41.2664 24.7656 41.3334C23.9232 41.39 23.4068 41.6166 22.4532 42.3484C21.0429 43.4306 19.9754 43.8079 18.6038 43.709C17.3996 43.6222 16.5773 43.2733 15.4087 42.3532C14.4329 41.5849 13.9532 41.3796 13.0524 41.3443C12.573 41.3256 12.0982 41.3664 11.8635 41.4466ZM46.1779 42.7303C45.7093 43.0705 45.2997 43.3927 45.2678 43.4463C45.1443 43.6535 45.2012 44.1591 45.3697 44.3523C45.6806 44.7087 46.1293 44.6173 46.9466 44.0311C47.9768 43.2921 48.173 42.9201 47.7871 42.4378C47.4337 41.9963 47.1073 42.0556 46.1779 42.7303Z" fill="#DCB36C"/>
</svg>
