<svg width="50" height="50" viewBox="0 0 50 50" fill="none" xmlns="http://www.w3.org/2000/svg">
<rect width="50" height="50" fill="white"/>
<path fill-rule="evenodd" clip-rule="evenodd" d="M16.4487 46.981C16.3827 45.9789 16.2131 42.5197 16.5583 41.8192C18.2515 41.6674 33.2985 41.5122 34.1842 41.7491L34.176 46.9913L16.4487 46.981ZM35.925 41.9915L36.4812 42.1501C36.6957 42.786 36.5602 44.0659 36.5602 44.7991C36.5602 45.7543 36.8978 46.6121 35.9297 46.7026L35.925 41.9915ZM13.9999 46.4799C13.7098 45.7542 13.8767 44.7154 13.8733 43.9113C13.8644 41.9581 13.7425 42.2318 14.6807 42.0745L14.6691 46.5971L13.9999 46.4799ZM37.2716 46.384C37.2376 45.5003 37.0756 43.0794 37.3724 42.4211C37.9375 42.5818 37.7911 42.5068 37.7836 43.3102L37.7904 45.8625C37.7488 46.4058 37.851 46.3391 37.2716 46.384ZM12.6512 43.1706C12.6512 42.323 12.5368 42.6702 13.0182 42.4714C13.1455 42.6443 13.1775 42.1324 13.1803 43.3115L13.1605 45.9701C13.1054 46.2758 13.1196 46.1124 13.0182 46.254C12.3905 45.9919 12.6512 44.7208 12.6512 43.1706ZM38.8654 42.8983C38.9627 43.0256 38.9348 42.8895 38.9872 43.1822L38.9695 45.8352C38.7537 46.1566 39.2589 46.0177 38.5604 46.1682C38.1288 45.501 38.399 43.6472 38.4399 42.6961L38.8654 42.8983ZM11.9623 45.9728C11.1188 45.8795 11.4388 45.2654 11.436 44.3552C11.434 43.4579 11.1351 42.916 11.9521 42.833L11.9623 45.9728ZM39.8968 45.8039C39.698 45.5949 39.7538 46.1348 39.6783 45.2559C39.6286 44.6697 39.619 43.5198 39.8968 43.144C40.4053 43.449 40.2133 43.8153 40.2154 44.5029C40.2188 46.1831 40.2644 45.6582 39.8968 45.8039ZM10.6422 45.6909C10.1282 45.599 10.2344 45.819 10.1997 45.1102C10.1166 43.4362 10.0901 43.1992 10.7232 43.108L10.6422 45.6909ZM41.0848 45.5201C40.9834 45.3975 40.9057 45.9129 40.9071 44.5016C40.9084 43.3558 40.9432 43.6731 41.0848 43.4995C41.5893 43.7411 41.4442 43.863 41.4456 44.5009C41.449 45.7195 41.3054 45.4465 41.0848 45.5201ZM9.30509 45.4425C8.83806 45.1735 9.09613 45.7059 8.97971 44.9584C8.72645 43.3292 9.24179 43.4913 9.51684 43.4239C9.51616 43.7867 9.52163 44.1455 9.52435 44.5077C9.52912 45.3029 9.51273 45.1735 9.30509 45.4425ZM42.138 45.2314C42.1196 44.7017 42.0304 44.3028 42.2727 43.8623C42.9093 44.1163 42.9774 45.0877 42.138 45.2314ZM8.26487 45.1803C7.81078 45.0891 7.76722 45.5017 7.74816 44.505C7.73522 43.8371 7.74271 43.9515 8.11715 43.7588C8.40512 44.1414 8.30096 44.6275 8.26487 45.1803ZM43.7631 44.3838C43.8516 44.5369 43.9285 44.0318 43.8591 44.8222L43.4928 44.9502C43.3076 44.7228 43.4226 45.0183 43.3178 44.6411C43.2872 44.5288 43.3131 44.3171 43.3171 44.1979C43.9796 44.2449 43.6133 44.2517 43.7631 44.3838ZM6.55131 44.5131C6.51114 44.055 6.73918 44.1591 6.9298 44.0734C7.13949 44.3892 7.07482 44.3634 7.07687 44.9155C6.63162 44.8372 6.61326 45.2287 6.55131 44.5131ZM5.60019 44.6439C5.13044 44.684 5.3701 44.5029 5.36942 44.5016C5.77518 44.1373 5.86301 44.4873 5.89092 44.5036C5.55937 44.7576 6.09513 44.6016 5.60019 44.6439ZM45.2111 43.6369C44.2069 43.5505 44.5677 42.8861 44.5698 41.8397L44.5691 36.9542C44.5623 35.8336 44.2443 35.4034 45.2111 35.3911V43.6369ZM5.29589 43.4531C5.09029 42.931 5.10729 35.5361 5.29655 35.0425L5.79764 35.0759L5.85821 35.6239V41.9874C5.85821 42.9317 6.14757 43.3333 5.29589 43.4531ZM43.7576 43.2686C43.0652 43.0317 43.3491 40.9097 43.3491 39.4718C43.3491 38.7556 43.1401 35.9317 43.6092 35.5531C43.9911 35.8084 43.8774 35.624 43.8856 36.3517C43.8897 36.6894 43.8726 37.0557 43.8726 37.4002C43.8713 38.6304 44.0463 42.7662 43.7576 43.2686ZM7.10413 35.3278L7.0653 42.7097C7.01424 43.0106 7.02376 42.8765 6.93798 43.0052C6.79501 43.108 7.15853 43.1686 6.51109 43.1536C6.42258 41.9152 6.27283 35.8439 6.63229 35.1141C7.52073 35.1284 6.90125 35.1127 7.10413 35.3278ZM42.1598 35.8874C42.345 35.6736 41.9262 35.7492 42.5696 35.6321C42.9576 36.2455 42.7303 38.4404 42.7303 39.3241C42.7303 39.9641 42.7282 40.6061 42.7303 41.2474C42.7323 42.0065 42.863 42.6457 42.5641 42.931L42.1366 42.7267L42.1598 35.8874ZM7.77741 42.7983C7.77945 42.1903 7.57042 35.8235 7.96869 35.3469C8.40916 35.5294 8.28526 35.3224 8.30908 36.0522L8.31181 42.2985C8.19607 42.9602 8.42757 42.6505 7.77741 42.7983ZM40.9132 37.104C40.9132 37.0148 40.9037 36.219 40.9084 36.204C41.0854 35.6628 40.5993 35.9943 41.436 35.8364C41.436 36.5553 41.6471 41.8948 41.2332 42.5191C40.7784 42.2366 40.9146 42.5225 40.9132 41.6912V37.104ZM9.15669 42.4701C9.13559 42.4347 9.10906 42.3911 9.09885 42.3632C9.08932 42.3346 9.05867 42.2876 9.04846 42.2516C8.8946 41.7171 8.99606 38.1429 8.99334 37.104C8.9913 36.5001 8.88642 35.865 9.15669 35.4912C9.62712 35.673 9.50456 35.4381 9.5318 36.2006C9.54133 36.4621 9.51685 36.8269 9.51617 37.104L9.53386 41.854C9.4542 42.7131 9.61147 42.2509 9.15669 42.4701ZM40.0452 42.161C39.6306 41.9282 39.7729 42.3305 39.6817 41.5571L39.6884 36.4954C39.8382 35.7261 39.6912 36.187 40.0452 35.9971C40.3788 36.5689 40.2086 40.0253 40.2154 40.8035L40.1589 41.9506C40.1514 41.9792 40.1119 42.0786 40.1058 42.0582C40.0997 42.0378 40.067 42.1276 40.0452 42.161ZM10.2044 41.4053C10.182 40.25 10.0581 36.1434 10.3454 35.641C10.9942 35.7853 10.743 36.3381 10.7389 37.1027L10.7395 40.8042C10.7464 41.5721 10.9771 41.952 10.3454 42.1522L10.2044 41.4053ZM11.5327 41.8227C11.338 41.3693 11.3251 36.2748 11.5327 35.8057C12.1999 35.8997 11.9616 36.3265 11.9541 37.102C11.9486 37.6942 11.9534 38.2872 11.9534 38.8795C11.9534 40.7497 12.2441 41.6559 11.5327 41.8227ZM38.4766 37.104C38.4766 36.3054 38.2676 36.3327 38.8572 36.1516C39.1172 36.6948 38.9954 38.3941 38.9954 39.0279C38.9947 39.9559 39.0192 40.8886 38.979 41.8152C38.22 41.6756 38.476 41.3556 38.476 40.5073L38.4766 37.104ZM37.6692 41.425C37.0586 41.2439 37.2423 41.1527 37.2539 40.3657L37.2628 36.6656C37.3465 36.2987 37.2376 36.5029 37.5208 36.2946C37.9156 36.558 37.6883 35.9869 37.7918 36.7936L37.7781 38.8795C37.7781 39.6543 37.9245 40.8395 37.6692 41.425ZM12.9256 41.5244C12.5308 41.1983 12.767 41.9846 12.6363 40.9628L12.6512 38.7318C12.6512 38.2382 12.6554 37.7433 12.6499 37.2504C12.6479 37.0816 12.624 36.6363 12.6369 36.5001C12.7275 35.5497 12.6043 36.2081 12.8698 35.9405C13.217 36.0924 13.1891 35.6607 13.1755 37.2504C13.1693 37.9605 13.4029 41.1527 12.9256 41.5244ZM13.8971 36.0815C14.8992 36.1496 14.6814 35.9392 14.68 38.2872C14.68 39.1886 14.7624 40.1697 14.6201 41.0513L13.8781 41.2099L13.8971 36.0815ZM35.9461 36.6594C36.1408 36.4 35.699 36.4505 36.4812 36.3742C36.8046 36.8896 36.6256 39.032 36.6433 40.0655C36.6637 41.2936 36.648 40.9723 36.4233 41.1044L35.9223 40.9226L35.9461 36.6594ZM17.1295 23.4771C16.9403 20.7397 18.3761 19.8063 20.3205 19.3896C21.2797 19.184 20.5921 19.2338 21.1374 19.0227C21.5915 18.8464 28.8291 18.9478 29.6733 18.9458L29.9183 19.6068C31.8776 19.7056 33.3768 20.8228 33.5688 22.6582C33.7056 23.9721 33.2358 23.4955 34.1821 24.0817L34.1808 40.6006C33.3359 40.8151 18.4449 40.8647 16.508 40.815C16.3378 40.013 16.3425 26.6477 16.4065 24.5079C16.4392 23.3962 16.3745 24.0082 17.1295 23.4771ZM35.9209 35.2127C35.9291 31.8612 35.8474 28.4429 35.91 25.1036C35.9406 23.4568 36.2783 25.267 36.4254 23.1974C36.6126 20.5675 38.591 20.0174 40.3182 19.4673C40.9677 19.261 40.7934 19.5034 41.1937 19.6797C41.8241 19.9568 42.7207 19.7266 43.8087 20.7737C44.9442 21.8677 44.759 22.8202 44.8816 23.6099C44.9987 24.3642 45.0429 23.7501 45.1818 24.4051C45.4637 25.7326 44.9204 32.8681 45.2976 34.4339C44.6808 34.5034 44.5745 34.4122 43.9598 34.5184L42.9692 34.6654C41.4579 34.8036 36.8257 35.3006 35.9209 35.2127ZM5.21079 34.086C5.14952 32.4651 5.19856 30.7474 5.19856 29.1128C5.19856 26.4992 4.60758 22.458 6.63295 20.6784C7.28379 20.1066 9.75239 19.4509 10.3426 19.4394C12.7261 19.3937 14.1293 21.0433 14.2845 23.0585C14.3628 24.0729 14.4533 23.7591 14.5922 24.1444C14.6065 24.1846 14.6222 24.2186 14.6337 24.2594C14.7467 24.6624 14.6276 24.0743 14.6827 24.5188C14.8291 25.7075 14.3396 32.0008 14.7406 34.9357C13.07 34.869 11.34 34.6627 9.67002 34.5129L6.13598 34.0956C5.71389 34.0582 5.82623 34.1984 5.21079 34.086ZM5.17063 20.3646C5.16587 19.8914 5.18834 20.0228 5.60158 19.9643C5.3953 20.4932 5.73501 20.1957 5.17063 20.3646ZM45.1907 20.4837C44.936 20.2829 44.7263 20.0255 44.5078 19.7689L45.2097 19.8445L45.1907 20.4837ZM14.6583 20.4116C14.2804 20.1195 14.3001 19.9785 13.8794 19.6701C13.5574 19.4346 13.4451 19.421 13.1727 19.1044L14.6583 18.954V20.4116ZM36.3348 19.071L37.9218 19.2249C37.2349 19.6865 36.5057 19.8539 36.294 20.5579L35.878 20.933L35.8024 19.0758L34.2652 19.0717L34.242 20.7329C33.79 20.6233 34.1155 20.7649 33.9732 20.4374C33.4285 19.8404 33.2427 19.4891 32.4073 19.2494L32.0519 18.9907C32.0383 18.9403 31.9995 18.9322 31.9723 18.9029C32.9656 18.8457 35.6234 18.6619 36.3348 19.071ZM16.4753 18.9458L18.116 19.0009C17.5326 19.1588 16.8382 20.0235 16.4378 20.6335L16.4753 18.9458ZM47.4898 44.3096C47.4646 43.9896 47.553 44.0679 47.2446 44.0536L47.0506 44.0856C46.9594 43.9814 46.9607 44.0979 46.8851 43.7657C46.879 43.7412 46.862 43.3728 46.8613 43.3279C46.7565 37.9632 46.8716 31.4636 46.8716 26.0057C46.8716 24.3792 46.7027 21.4395 46.9328 19.9315L47.5374 20.0725L48.3891 20.097L48.2297 18.4392C44.4234 18.1056 40.6075 17.5978 36.7944 17.2165C34.9841 17.0348 32.5864 17.1464 30.6897 17.1369C25.5966 17.109 16.4344 16.8448 12.1522 17.3105C8.42143 17.7176 4.68179 18.1451 0.922424 18.5529C0.938083 18.9954 1.43506 19.355 1.80201 19.7335C2.52978 20.4844 2.40794 20.2059 3.45773 20.2876L3.46864 43.9359L2.57476 44.1442L2.53932 46.3527L13.1959 48.3086C16.8865 48.9901 21.4505 48.762 25.3433 48.8389C29.2954 48.9152 33.564 49.3366 37.2846 48.4101C38.7789 48.037 46.3541 46.2111 47.1915 45.8421L47.4898 44.3096Z" fill="#DCB36C"/>
<path fill-rule="evenodd" clip-rule="evenodd" d="M0 17.8699L0.21993 17.9891C1.47464 18.0714 4.57428 17.5764 6.02506 17.4239C14.358 16.545 15.8776 16.4361 24.7497 16.4321C28.6425 16.4293 33.9739 16.1277 37.6761 16.5069C39.6551 16.7084 41.6165 16.9107 43.6112 17.1095C45.4542 17.2933 47.9514 17.6758 49.6656 17.6874L49.6826 17.5118C49.1557 17.5254 33.9617 11.9326 31.3835 10.9611C28.5663 9.89841 27.4409 9.23536 24.7497 9.21766C22.7182 9.20336 20.2531 10.3798 18.2883 11.1273L3.14324 16.7568C2.34194 17.0427 0.755686 17.7392 0 17.8699Z" fill="#DCB36C"/>
<path fill-rule="evenodd" clip-rule="evenodd" d="M26.5315 6.89634C26.955 6.95557 27.0197 6.87936 27.0932 7.51863C27.1259 7.80389 27.0959 8.24024 27.0734 8.56975L26.4342 8.19803C26.3947 7.66293 26.3334 7.3375 26.5315 6.89634ZM24.2114 8.20142C24.1909 7.62138 24.0882 7.02847 24.5252 6.8147C25.1196 6.52468 25.4702 6.83915 25.4702 7.3586L25.4729 7.65479L25.4593 8.24637L24.2114 8.20142ZM22.6877 8.67938C22.6952 7.86378 22.5203 7.22178 23.2235 6.96648C23.3583 7.20544 23.3863 7.24427 23.387 7.65479C23.3883 8.49762 23.3257 8.39685 22.6877 8.67938ZM26.6745 6.34352L26.3613 6.14746C24.2059 6.25571 24.0187 5.99839 22.0962 6.78471L22.0254 9.36018C25.0617 8.62628 24.2475 8.67531 27.6453 9.24037L27.582 6.6179L26.6745 6.34352Z" fill="#DCB36C"/>
<path fill-rule="evenodd" clip-rule="evenodd" d="M21.3248 6.2757L21.3861 6.50109C23.4182 6.11439 24.3169 5.69773 26.5662 5.9966L26.8856 6.18588L28.4766 6.49696C28.1689 6.05581 25.6383 3.95895 25.1502 3.70569C25.1876 2.96022 25.2993 2.65726 24.7499 2.38086C24.1242 2.9432 24.5667 3.08009 24.3312 3.70642L21.3248 6.2757Z" fill="#DCB36C"/>
<path fill-rule="evenodd" clip-rule="evenodd" d="M5.29621 43.4529C6.14789 43.3331 5.85853 42.9315 5.85853 41.9872V35.6238L5.79796 35.0757L5.29687 35.0424C5.10761 35.5359 5.09061 42.9308 5.29621 43.4529Z" fill="#FCFBFB"/>
<path fill-rule="evenodd" clip-rule="evenodd" d="M45.2113 43.6367V35.3909C44.2446 35.4031 44.5626 35.8334 44.5694 36.954L44.57 41.8394C44.568 42.8858 44.2072 43.5502 45.2113 43.6367Z" fill="#FCFBFB"/>
<path fill-rule="evenodd" clip-rule="evenodd" d="M43.7577 43.2683C44.0464 42.7659 43.8713 38.6301 43.8727 37.3999C43.8727 37.0554 43.8898 36.6891 43.8857 36.3515C43.8775 35.6237 43.9912 35.8082 43.6093 35.5529C43.1402 35.9314 43.3492 38.7554 43.3492 39.4716C43.3492 40.9094 43.0653 43.0314 43.7577 43.2683Z" fill="#FCFBFB"/>
<path fill-rule="evenodd" clip-rule="evenodd" d="M7.77768 42.7979C8.42785 42.6502 8.19635 42.9599 8.31208 42.2981L8.30936 36.0518C8.28553 35.322 8.40943 35.529 7.96896 35.3466C7.57069 35.8231 7.77973 42.19 7.77768 42.7979Z" fill="#FCFBFB"/>
<path fill-rule="evenodd" clip-rule="evenodd" d="M13.8781 41.2098L14.6202 41.0511C14.7625 40.1695 14.6801 39.1884 14.6801 38.287C14.6814 35.939 14.8993 36.1494 13.8972 36.0813L13.8781 41.2098Z" fill="#FCFBFB"/>
<path fill-rule="evenodd" clip-rule="evenodd" d="M9.15705 42.4699C9.61182 42.2507 9.45456 42.713 9.53421 41.8538L9.51653 37.1039C9.51721 36.8268 9.54168 36.4619 9.53215 36.2005C9.50492 35.438 9.62748 35.6729 9.15705 35.4911C8.88677 35.8648 8.99165 36.5 8.99369 37.1039C8.99642 38.1428 8.89495 41.717 9.04881 42.2514C9.05902 42.2875 9.08967 42.3344 9.0992 42.363C9.10942 42.3909 9.13594 42.4345 9.15705 42.4699Z" fill="#FCFBFB"/>
<path fill-rule="evenodd" clip-rule="evenodd" d="M40.9132 37.104V41.6912C40.9146 42.5224 40.7784 42.2365 41.2332 42.519C41.6471 41.8947 41.4361 36.5552 41.4361 35.8363C40.5994 35.9942 41.0854 35.6627 40.9084 36.204C40.9037 36.2189 40.9132 37.0148 40.9132 37.104Z" fill="#FCFBFB"/>
<path fill-rule="evenodd" clip-rule="evenodd" d="M14 46.4797L14.6693 46.5968L14.6808 42.0742C13.7427 42.2315 13.8646 41.9578 13.8734 43.911C13.8768 44.7151 13.71 45.7539 14 46.4797Z" fill="#FCFBFB"/>
<path fill-rule="evenodd" clip-rule="evenodd" d="M10.3456 42.1519C10.9773 41.9518 10.7466 41.5719 10.7397 40.804L10.7391 37.1025C10.7432 36.3379 10.9944 35.7851 10.3456 35.6407C10.0583 36.1432 10.1821 40.2497 10.2046 41.4051L10.3456 42.1519Z" fill="#FCFBFB"/>
<path fill-rule="evenodd" clip-rule="evenodd" d="M6.93821 43.005C7.02399 42.8763 7.01447 43.0105 7.06553 42.7096L7.10436 35.3277L6.62846 35.2303L6.62979 42.7266C6.73532 43.1493 6.5311 42.9526 6.93821 43.005Z" fill="#FCFBFB"/>
<path fill-rule="evenodd" clip-rule="evenodd" d="M11.5331 41.8225C12.2445 41.6557 11.9538 40.7495 11.9538 38.8794C11.9538 38.2871 11.949 37.6941 11.9545 37.1018C11.9619 36.3264 12.2003 35.8995 11.5331 35.8055C11.3254 36.2746 11.3384 41.3691 11.5331 41.8225Z" fill="#FCFBFB"/>
<path fill-rule="evenodd" clip-rule="evenodd" d="M40.0455 42.1607C40.0673 42.1273 40.1 42.0374 40.1061 42.0579C40.1122 42.0783 40.1517 41.9789 40.1592 41.9503L40.2157 40.8031C40.2089 40.025 40.3791 36.5686 40.0455 35.9967C39.6915 36.1866 39.8385 35.7258 39.6887 36.4951L39.682 41.5568C39.7732 42.3302 39.6309 41.9278 40.0455 42.1607Z" fill="#FCFBFB"/>
<path fill-rule="evenodd" clip-rule="evenodd" d="M42.5644 42.9307L42.5835 35.7544L42.16 35.8872L42.1368 42.7265L42.5644 42.9307Z" fill="#FCFBFB"/>
<path fill-rule="evenodd" clip-rule="evenodd" d="M12.9257 41.5242C13.4029 41.1525 13.1694 37.9603 13.1755 37.2502C13.1892 35.6605 13.2171 36.0921 12.8699 35.9403C12.6043 36.2079 12.7276 35.5495 12.637 36.4999C12.6241 36.6361 12.6479 37.0813 12.65 37.2502C12.6554 37.7431 12.6513 38.238 12.6513 38.7316L12.6364 40.9625C12.7671 41.9844 12.5308 41.1981 12.9257 41.5242Z" fill="#FCFBFB"/>
<path fill-rule="evenodd" clip-rule="evenodd" d="M35.9299 46.7025C36.898 46.6119 36.5604 45.7541 36.5604 44.799C36.5604 44.0657 36.6958 42.7858 36.4814 42.15L35.9252 41.9913L35.9299 46.7025Z" fill="#FCFBFB"/>
<path fill-rule="evenodd" clip-rule="evenodd" d="M38.4767 37.1036L38.476 40.5069C38.476 41.3552 38.22 41.6751 38.9791 41.8147C39.0193 40.8881 38.9948 39.9554 38.9955 39.0275C38.9955 38.3937 39.1173 36.6944 38.8573 36.1511C38.2677 36.3322 38.4767 36.305 38.4767 37.1036Z" fill="#FCFBFB"/>
<path fill-rule="evenodd" clip-rule="evenodd" d="M37.6697 41.4248C37.925 40.8393 37.7786 39.654 37.7786 38.8793L37.7922 36.7933C37.6887 35.9866 37.9161 36.5578 37.5212 36.2943C37.238 36.5026 37.3469 36.2984 37.2632 36.6654L37.2543 40.3655C37.2428 41.1525 37.059 41.2437 37.6697 41.4248Z" fill="#FCFBFB"/>
<path fill-rule="evenodd" clip-rule="evenodd" d="M36.4233 41.1044L36.4941 36.5009L35.946 36.6594L35.9222 40.9226L36.4233 41.1044Z" fill="#FCFBFB"/>
<path fill-rule="evenodd" clip-rule="evenodd" d="M37.2718 46.3836C37.8511 46.3386 37.749 46.4054 37.7906 45.8621L37.7838 43.3097C37.7913 42.5064 37.9376 42.5813 37.3726 42.4207C37.0757 43.079 37.2377 45.4999 37.2718 46.3836Z" fill="#FCFBFB"/>
<path fill-rule="evenodd" clip-rule="evenodd" d="M12.6512 43.1704C12.6512 44.7206 12.3904 45.9916 13.0181 46.2537C13.1196 46.1121 13.1053 46.2755 13.1605 45.9699L13.1802 43.3113C13.1775 42.1321 13.1454 42.6441 13.0181 42.4712C12.5368 42.67 12.6512 42.3228 12.6512 43.1704Z" fill="#FCFBFB"/>
<path fill-rule="evenodd" clip-rule="evenodd" d="M24.2112 8.20185L25.4591 8.2468L25.4727 7.65522L25.47 7.35903C25.47 6.83958 25.1194 6.5251 24.525 6.81512C24.088 7.02889 24.1907 7.62181 24.2112 8.20185Z" fill="#FCFBFB"/>
<path fill-rule="evenodd" clip-rule="evenodd" d="M11.9624 45.973L11.9522 42.8331C11.1352 42.9162 11.4341 43.4581 11.4362 44.3554C11.4389 45.2656 11.1189 45.8797 11.9624 45.973Z" fill="#FCFBFB"/>
<path fill-rule="evenodd" clip-rule="evenodd" d="M36.2942 20.5577C36.5059 19.8537 37.2351 19.6862 37.922 19.2246L36.335 19.0708L35.9667 19.1552C35.9755 19.3139 35.9422 19.8966 35.9483 19.9497C36.0634 20.9124 35.8987 20.2983 36.2942 20.5577Z" fill="#FCFBFB"/>
<path fill-rule="evenodd" clip-rule="evenodd" d="M39.8971 45.8035C40.2647 45.6578 40.2191 46.1826 40.2157 44.5024C40.2136 43.8148 40.4056 43.4486 39.8971 43.1436C39.6193 43.5194 39.6288 44.6693 39.6785 45.2554C39.7541 46.1343 39.6983 45.5945 39.8971 45.8035Z" fill="#FCFBFB"/>
<path fill-rule="evenodd" clip-rule="evenodd" d="M38.9696 45.835L38.9873 43.1819C38.9349 42.8892 38.9628 43.0254 38.8654 42.8981C38.3085 42.7755 38.7204 42.8239 38.5645 43.0226L38.5638 46.0474L38.9696 45.835Z" fill="#FCFBFB"/>
<path fill-rule="evenodd" clip-rule="evenodd" d="M10.6425 45.6908L10.7235 43.1079C10.0904 43.1991 10.117 43.4361 10.2 45.1101C10.2347 45.8189 10.1285 45.5989 10.6425 45.6908Z" fill="#FCFBFB"/>
<path fill-rule="evenodd" clip-rule="evenodd" d="M33.9736 20.4373L34.1165 19.0219C33.3881 19.0056 32.8122 18.8816 32.4078 19.2493C33.2431 19.4889 33.429 19.8402 33.9736 20.4373Z" fill="#FCFBFB"/>
<path fill-rule="evenodd" clip-rule="evenodd" d="M16.4382 20.6333C16.8385 20.0233 17.533 19.1586 18.1164 19.0007L16.4756 18.9456L16.4382 20.6333Z" fill="#FCFBFB"/>
<path fill-rule="evenodd" clip-rule="evenodd" d="M13.173 19.1043C13.4453 19.4209 13.5576 19.4345 13.8796 19.67C14.3004 19.9784 14.2807 20.1194 14.6585 20.4115V18.9539L13.173 19.1043Z" fill="#FCFBFB"/>
<path fill-rule="evenodd" clip-rule="evenodd" d="M9.30518 45.4423C9.51282 45.1734 9.52921 45.3027 9.52444 44.5075C9.52172 44.1453 9.51625 43.7866 9.51693 43.4237C9.24189 43.4911 8.72655 43.3291 8.9798 44.9582C9.09622 45.7057 8.83815 45.1734 9.30518 45.4423Z" fill="#FCFBFB"/>
<path fill-rule="evenodd" clip-rule="evenodd" d="M41.085 45.52C41.3056 45.4465 41.4492 45.7195 41.4458 44.5008C41.4444 43.8629 41.5895 43.7411 41.085 43.4994C40.9434 43.673 40.9086 43.3557 40.9073 44.5015C40.9059 45.9128 40.9835 45.3974 41.085 45.52Z" fill="#FCFBFB"/>
<path fill-rule="evenodd" clip-rule="evenodd" d="M26.4344 8.19842L27.0736 8.57014C27.0961 8.24063 27.1261 7.80428 27.0934 7.51902C27.0199 6.87975 26.9552 6.95596 26.5317 6.89673C26.3336 7.33789 26.3949 7.66332 26.4344 8.19842Z" fill="#FCFBFB"/>
<path fill-rule="evenodd" clip-rule="evenodd" d="M22.6876 8.67982C23.3255 8.39729 23.3882 8.49806 23.3868 7.65523C23.3862 7.24471 23.3582 7.20588 23.2234 6.96692C22.5202 7.22222 22.6951 7.86422 22.6876 8.67982Z" fill="#FCFBFB"/>
<path fill-rule="evenodd" clip-rule="evenodd" d="M8.26499 45.1802C8.30108 44.6274 8.40524 44.1413 8.11727 43.7587C7.74283 43.9513 7.73534 43.837 7.74828 44.5048C7.76734 45.5015 7.8109 45.0889 8.26499 45.1802Z" fill="#FCFBFB"/>
<path fill-rule="evenodd" clip-rule="evenodd" d="M42.1382 45.2312C42.9776 45.0876 42.9095 44.1161 42.2729 43.8622C42.0306 44.3027 42.1198 44.7016 42.1382 45.2312Z" fill="#EBECEC"/>
<path fill-rule="evenodd" clip-rule="evenodd" d="M7.0773 44.9154C7.07525 44.3633 7.13992 44.3891 6.93023 44.0732C6.73961 44.159 6.51157 44.0549 6.55174 44.513C6.61369 45.2286 6.63205 44.8371 7.0773 44.9154Z" fill="#FCFBFB"/>
<path fill-rule="evenodd" clip-rule="evenodd" d="M45.1907 20.4835L45.2098 19.8443L44.5078 19.7687C44.7264 20.0253 44.9361 20.2827 45.1907 20.4835Z" fill="#EBECEC"/>
<path fill-rule="evenodd" clip-rule="evenodd" d="M43.493 44.95L43.8592 44.822C43.9287 44.0316 43.8517 44.5367 43.7632 44.3835C43.3466 44.4176 43.6836 44.2501 43.4092 44.5047L43.493 44.95Z" fill="#EBECEC"/>
<path fill-rule="evenodd" clip-rule="evenodd" d="M26.3615 6.14794L26.6747 6.34401L26.8857 6.18611L26.5664 5.99683L26.3615 6.14794Z" fill="#B4B4B4"/>
<path fill-rule="evenodd" clip-rule="evenodd" d="M49.6828 17.5116L49.6658 17.6872C49.8387 17.803 49.7999 17.8432 50 17.7172L49.6828 17.5116Z" fill="#C6C6C6"/>
<path fill-rule="evenodd" clip-rule="evenodd" d="M21.3862 6.50077L21.325 6.27539C21.2161 6.36662 21.1398 6.29585 21.0431 6.46946L21.3862 6.50077Z" fill="#919090"/>
</svg>
