<svg width="50" height="50" viewBox="0 0 50 50" fill="none" xmlns="http://www.w3.org/2000/svg">
<rect width="50" height="50" fill="white"/>
<path fill-rule="evenodd" clip-rule="evenodd" d="M35.8814 3.66023C35.0824 3.78362 33.466 4.40718 32.8069 4.84614C31.722 5.5687 30.5771 6.8788 30.0176 8.03807C29.5698 8.96574 29.4841 9.34979 29.4284 10.6764C29.3553 12.4161 29.6232 13.6251 30.3523 14.847C31.2573 16.3637 32.8381 17.6529 34.4447 18.1849L35.2167 18.4406V22.3015C35.2167 24.8479 35.1583 26.1623 35.0452 26.1623C34.6315 26.1623 33.5953 25.6053 31.2081 24.0999C25.7086 20.6318 24.5482 20.3487 15.8555 20.3524C9.2198 20.3554 8.80249 20.4074 7.33469 21.4166C5.76253 22.4975 2.66557 25.5443 1.76897 26.8923C0.874033 28.2378 0.721137 28.7381 0.47933 31.1127C0.302835 32.8474 0.311644 32.9637 0.721803 34.2704C1.17783 35.7231 1.24065 36.4277 0.989702 37.2775C0.64037 38.4614 1.42363 39.0825 3.26552 39.0825C4.37667 39.0825 4.41738 39.0974 5.03279 39.7285L5.66282 40.3745H2.99562C0.52869 40.3745 0.315467 40.3979 0.156256 40.6869C-0.0662729 41.0909 -0.0636145 41.1124 0.245334 41.4128C0.480494 41.6412 2.94892 41.6665 24.9356 41.6665C41.4575 41.6665 49.4688 41.6124 49.6862 41.4994C50.0485 41.3109 50.1077 40.8593 49.8082 40.5683C49.6631 40.4273 48.412 40.3745 45.2207 40.3745H40.8327L41.3787 39.7689L41.9248 39.1632L43.6051 39.0759C44.9485 39.0061 45.4058 38.9165 45.8848 38.6287C46.8533 38.0471 47.0164 37.419 47.0152 34.2746C47.0147 32.7884 46.9349 31.295 46.838 30.9555C46.625 30.2099 45.7124 29.1923 44.7811 28.6619C43.8749 28.1457 42.9837 27.8408 40.784 27.2935L38.956 26.8389L38.9117 22.6406L38.8674 18.4424L39.6413 18.1862C42.2336 17.3278 44.2559 14.9479 44.7236 12.2056C45.5516 7.34991 40.9271 2.88066 35.8814 3.66023ZM39.4547 5.34147C40.2097 5.61505 40.7174 5.96099 41.547 6.76737C42.9696 8.14967 43.4143 9.18344 43.4291 11.1426C43.4383 12.3587 43.3796 12.6385 42.9154 13.5942C42.2146 15.0368 41.2392 16.0305 39.8929 16.6741C38.8654 17.1654 38.6829 17.199 37.0474 17.199C35.45 17.199 35.2142 17.1581 34.3048 16.7241C33.0374 16.1195 31.9234 15.0369 31.3012 13.8053C30.8548 12.9217 30.8126 12.6921 30.8126 11.1426C30.8126 9.64792 30.8645 9.33929 31.2505 8.53921C32.7231 5.48714 36.1606 4.14732 39.4547 5.34147ZM35.6702 8.09976C35.4023 8.29744 35.3799 8.62206 35.4209 11.7082L35.466 15.0994L35.8721 15.1551C36.4932 15.2403 36.7124 14.7965 36.7124 13.4536V12.2731H37.5598C38.0258 12.2731 38.6703 12.1519 38.992 12.0034C40.52 11.2988 40.621 9.15486 39.1657 8.31924C38.5082 7.94198 36.09 7.79 35.6702 8.09976ZM38.3743 9.41294C38.8853 9.66326 38.9972 10.2569 38.6111 10.6714C38.4025 10.8955 38.1002 10.9811 37.5176 10.9811H36.7124V10.0929V9.2046L37.3356 9.20702C37.6784 9.20831 38.1458 9.30101 38.3743 9.41294ZM37.5433 22.5868V26.6021L37.1279 26.5249L36.7124 26.4477V22.5096V18.5717H37.1279H37.5433V22.5868ZM22.3369 21.8081C25.2331 22.2099 26.7497 22.8289 30.2265 25.0289C33.6084 27.1691 33.711 27.2102 37.4667 27.9301C40.6054 28.5319 43.6525 29.3234 43.479 29.492C43.436 29.5338 43.0738 29.7285 42.6741 29.9244C41.6853 30.4092 41.6363 30.8751 42.4805 31.7639C42.9917 32.3018 43.3568 32.5008 44.3977 32.8081L45.6835 33.1877L45.6852 33.7933L45.6867 34.3989H44.9278C44.0327 34.3989 43.5262 34.6228 43.5262 35.0183C43.5262 35.5009 43.8878 35.691 44.8059 35.691H45.6867V36.3442C45.6867 36.8226 45.5775 37.1038 45.2787 37.394C44.9237 37.7391 44.7208 37.7905 43.7133 37.7905H42.5558L42.728 37.1848C43.0042 36.2128 42.8073 34.5826 42.2927 33.5814C39.9071 28.9403 33.0899 29.4691 31.544 34.4149C31.1988 35.5193 31.1797 36.7362 31.495 37.5345C31.5864 37.7661 30.8048 37.7905 23.3103 37.7905H15.0245V36.1351C15.0245 34.1759 14.7395 33.4125 13.5451 32.1717C11.026 29.5544 6.67841 29.8578 4.5992 32.796C3.61269 34.1904 3.24059 36.2667 3.7473 37.5502C3.82259 37.7407 3.68897 37.7905 3.10149 37.7905H2.36078L2.4329 36.6196C2.48675 35.7467 2.42143 35.1917 2.17614 34.4393L1.84725 33.4299H2.21203C2.61388 33.4299 2.97568 33.1523 2.97568 32.8438C2.97568 32.526 2.48508 32.1379 2.08324 32.1379C1.71845 32.1379 1.71512 32.1177 1.84858 30.7248C1.9232 29.9476 2.05382 29.1114 2.13908 28.8667C2.58746 27.5802 5.09611 24.8217 7.60475 22.857C8.48108 22.1706 9.02186 21.8688 9.51595 21.7903C10.6138 21.6157 21.0549 21.6303 22.3369 21.8081ZM10.091 22.775C9.11077 22.9355 8.14437 23.5781 6.83114 24.9423C5.70171 26.1157 5.08198 27.1291 5.24352 27.5382C5.30085 27.6834 5.52937 27.8692 5.75123 27.9513C6.29384 28.1517 15.7984 28.1441 16.3432 27.9429L16.7695 27.7854V25.3548V22.9242L16.3432 22.7667C15.8448 22.5826 11.2274 22.5886 10.091 22.775ZM17.8082 22.8519C17.4522 23.0996 17.4343 23.2165 17.4343 25.2833C17.4343 28.3944 16.8553 28.1283 23.4916 28.0682C28.5049 28.0228 28.8906 27.9989 29.2167 27.7119C29.4371 27.5178 29.5662 27.2079 29.5662 26.8723C29.5662 26.2563 29.2444 25.9769 27.0791 24.7122C24.7812 23.3701 23.0731 22.889 19.9271 22.6976C18.4668 22.6088 18.1211 22.634 17.8082 22.8519ZM15.44 25.3548V26.8083H11.2852C8.85633 26.8083 7.13045 26.7463 7.13045 26.6593C7.13045 26.1262 9.43285 24.2106 10.2623 24.0534C10.5964 23.9901 11.8981 23.93 13.1549 23.9199L15.44 23.9013V25.3548ZM22.5862 24.3147C23.8871 24.5526 26.3953 25.657 27.3226 26.4004L27.8212 26.8001L23.334 26.7638L18.8469 26.7276L18.7975 25.5315C18.7704 24.8735 18.7871 24.2369 18.8344 24.1167C18.9361 23.8593 20.5655 23.9452 22.5862 24.3147ZM17.763 29.5243C17.4454 29.7742 17.4188 29.8701 17.5842 30.1703C17.7548 30.4801 17.9165 30.5229 18.918 30.5229C20.0351 30.5229 20.2595 30.4145 20.2595 29.8753C20.2595 29.2302 18.4583 28.977 17.763 29.5243ZM45.4238 31.206C45.511 31.4486 45.5428 31.6857 45.4942 31.7327C45.382 31.8417 44.0474 31.3882 43.7321 31.134C43.5289 30.9699 43.5388 30.9241 43.8009 30.8207C43.9698 30.754 44.3683 30.7141 44.6865 30.7322C45.1527 30.7587 45.296 30.8507 45.4238 31.206ZM10.8759 31.9226C11.9528 32.2792 13.1341 33.4272 13.501 34.4737C14.2394 36.5795 13.3927 38.7705 11.4413 39.8031C10.6783 40.2069 10.356 40.2805 9.37402 40.2754C8.02355 40.2682 7.2737 39.9993 6.354 39.1918C5.41669 38.369 4.9113 37.2903 4.90499 36.0996C4.89834 34.8137 5.20097 34.0141 6.02195 33.1484C7.35547 31.7427 9.0443 31.3162 10.8759 31.9226ZM38.6297 31.9226C39.7066 32.2792 40.8879 33.4272 41.2549 34.4737C41.9746 36.5269 41.1761 38.697 39.3219 39.7261C37.4752 40.7511 35.4756 40.4858 33.9621 39.015C32.6312 37.7215 32.2708 36.2854 32.8609 34.6265C33.6937 32.2852 36.1905 31.115 38.6297 31.9226ZM7.98932 33.4443C6.17369 34.3408 5.81156 36.6164 7.26024 38.0243C8.19257 38.9304 9.36255 39.139 10.5566 38.612C11.5759 38.1623 12.167 37.3153 12.2405 36.2C12.3902 33.9261 10.0655 32.4191 7.98932 33.4443ZM35.7677 33.4117C33.7444 34.3308 33.5513 37.2866 35.4405 38.4211C36.9778 39.3445 38.8993 38.8385 39.7085 37.2971C40.6549 35.4941 39.396 33.2949 37.3373 33.1552C36.7155 33.1131 36.2623 33.1872 35.7677 33.4117ZM10.5786 34.9632C11.5543 36.0655 10.5174 37.8279 9.05078 37.5605C8.25655 37.4158 7.71959 36.7817 7.71959 35.9883C7.71959 35.4503 7.81847 35.2491 8.27965 34.8487C8.76526 34.427 8.92996 34.3744 9.52193 34.4516C9.97613 34.5107 10.3296 34.6819 10.5786 34.9632ZM38.3324 34.9632C39.0095 35.7281 38.6834 37.0755 37.7283 37.4599C36.712 37.869 35.6238 37.2335 35.4384 36.1222C35.3521 35.6054 35.4108 35.47 35.9481 34.9479C36.5041 34.4075 36.6147 34.3653 37.2568 34.449C37.7301 34.5107 38.08 34.678 38.3324 34.9632ZM18.4391 35.6013C18.3294 35.7297 18.2642 36.0022 18.294 36.207L18.3483 36.5792L23.0361 36.622C27.4617 36.6626 27.7329 36.6482 27.8891 36.3644C28.009 36.1469 27.9854 35.9678 27.8039 35.716C27.5576 35.3744 27.4712 35.368 23.0957 35.368C19.4118 35.368 18.6038 35.4085 18.4391 35.6013ZM32.7238 39.7285L33.2503 40.3745H23.1507H13.0512L13.5393 39.8522C13.8077 39.5649 14.1021 39.2753 14.1935 39.2086C14.285 39.1419 18.3732 39.0864 23.2785 39.0849L32.1973 39.0825L32.7238 39.7285Z" fill="#DCB36C"/>
</svg>
