<svg width="50" height="50" viewBox="0 0 50 50" fill="none" xmlns="http://www.w3.org/2000/svg">
<rect width="50" height="50" fill="white"/>
<path fill-rule="evenodd" clip-rule="evenodd" d="M7.31677 0H49.747V41.7678H7.31677V0ZM8.5727 1.25593V40.5119H48.4911V1.25593H8.5727Z" fill="#DCB36C"/>
<path fill-rule="evenodd" clip-rule="evenodd" d="M33.2944 41.1401V0.628174H34.5503V41.1401H33.2944Z" fill="#DCB36C"/>
<path fill-rule="evenodd" clip-rule="evenodd" d="M33.9227 15.4936H7.9451V14.2377H33.9227V15.4936Z" fill="#DCB36C"/>
<path fill-rule="evenodd" clip-rule="evenodd" d="M33.9227 32.4488H7.9451V31.1929H33.9227V32.4488Z" fill="#DCB36C"/>
<path fill-rule="evenodd" clip-rule="evenodd" d="M16.9283 14.866V0.628174H18.1842V14.866H16.9283Z" fill="#DCB36C"/>
<path fill-rule="evenodd" clip-rule="evenodd" d="M2.64066 40.4936V1.01599H3.89658V40.4936H2.64066Z" fill="#DCB36C"/>
<path fill-rule="evenodd" clip-rule="evenodd" d="M49.379 46.9461H8.72409V45.6902H49.379V46.9461Z" fill="#DCB36C"/>
<path fill-rule="evenodd" clip-rule="evenodd" d="M3.48435 1.39547L0.886456 3.98392L0 3.09423L3.24495 0.104126L3.48435 1.39547Z" fill="#DCB36C"/>
<path fill-rule="evenodd" clip-rule="evenodd" d="M5.58496 4.21091L2.82504 1.46106L3.27762 0.137451L6.47141 3.32122L5.58496 4.21091Z" fill="#DCB36C"/>
<path fill-rule="evenodd" clip-rule="evenodd" d="M6.2285 38.1395L2.97635 41.3801L0.0652161 38.4786L0.95182 37.5891L2.97646 39.607L5.34201 37.2499L6.2285 38.1395Z" fill="#DCB36C"/>
<path fill-rule="evenodd" clip-rule="evenodd" d="M10.8167 43.346L11.7034 44.2355L9.61389 46.3183L12.0455 48.7414L11.159 49.631L7.83475 46.3184L10.8167 43.346Z" fill="#DCB36C"/>
<path fill-rule="evenodd" clip-rule="evenodd" d="M48.2209 46.318L45.997 44.1014L46.8836 43.2119L50 46.3181L46.5577 49.7488L45.6711 48.8592L48.2209 46.318Z" fill="#DCB36C"/>
</svg>
