<svg width="52" height="50" viewBox="0 0 52 50" fill="none" xmlns="http://www.w3.org/2000/svg">
<rect x="1" width="50" height="50" fill="white"/>
<path fill-rule="evenodd" clip-rule="evenodd" d="M20.7915 3.64816C18.9581 4.09877 17.1514 5.79532 16.6096 7.57519C16.4873 7.97713 16.4476 8.00702 15.887 8.12067C14.9036 8.31991 13.9204 8.93738 13.4865 9.62802C13.2736 9.96703 13.232 9.98603 12.905 9.89375C11.6273 9.53315 9.92313 10.3148 9.37377 11.5132C9.14417 12.0142 9.18312 12.0001 8.60227 11.7942C7.48326 11.3975 6.15319 11.7262 5.31653 12.6062C4.6272 13.3313 4.44905 13.7726 4.44719 14.7591C4.44543 15.7558 4.76695 16.4495 5.54163 17.1204C6.44849 17.9059 6.25356 17.8891 14.471 17.8891C20.6393 17.8891 21.8671 17.8638 22.3332 17.7277C23.2792 17.4513 24.2397 16.4317 24.444 15.4872L24.5083 15.19L30.1028 15.1634C36.2852 15.1341 35.9776 15.1685 36.7168 14.4244C38.0918 13.0408 37.2272 10.7403 35.2257 10.4576C34.7538 10.3909 34.7268 10.3672 34.5881 9.89893C34.397 9.25394 33.7774 8.55844 33.0797 8.20551C32.6335 7.97972 32.3562 7.91927 31.7482 7.91528C30.8128 7.90913 30.1524 8.17399 29.5301 8.80484C29.1319 9.20861 29.0686 9.23516 28.6422 9.17893C28.2338 9.12507 28.1831 9.08665 28.1831 8.83139C28.1831 8.3905 27.8772 7.31832 27.5802 6.71834C26.9962 5.53855 25.7639 4.42666 24.4534 3.89715C23.8499 3.65334 23.5468 3.60402 22.4789 3.57628C21.7851 3.55825 21.0257 3.59063 20.7915 3.64816ZM24.3592 4.80679C25.6954 5.44217 26.6797 6.53993 27.0977 7.86142C27.4348 8.9268 27.3874 9.28599 26.8393 9.82316C26.583 10.0744 26.3238 10.3685 26.2634 10.4767C26.1709 10.6423 26.1051 10.6551 25.8449 10.5576C25.0926 10.2758 24.1786 10.5003 23.5436 11.1229C23.2899 11.3716 23.0329 11.6599 22.9725 11.7634C22.8722 11.9357 22.8253 11.9384 22.424 11.7951C22.1827 11.7091 21.7339 11.6365 21.4268 11.6339L20.8683 11.6292L20.7336 11.0366C20.4502 9.79057 19.22 8.53167 17.9417 8.1796C17.6619 8.10254 17.4328 7.985 17.433 7.91852C17.433 7.85203 17.5745 7.50623 17.7472 7.15006C18.3339 5.94135 19.3978 5.02243 20.6976 4.60172C21.1884 4.44285 21.5808 4.40486 22.4789 4.42914C23.5159 4.45731 23.7033 4.49498 24.3592 4.80679ZM32.7563 9.00743C33.3222 9.29506 33.7602 9.93595 33.8473 10.6038C33.9469 11.3681 34.0252 11.4328 34.7539 11.3534C35.2843 11.2955 35.4207 11.3212 35.7522 11.5409C36.7828 12.224 36.7208 13.5935 35.6347 14.1383C35.2922 14.3101 34.7916 14.3271 30.0415 14.3272C26.0306 14.3274 24.7855 14.2962 24.6559 14.1925C24.5631 14.1183 24.4224 13.8876 24.3432 13.6798C24.2639 13.4721 24.0834 13.1475 23.9422 12.9585C23.8011 12.7695 23.6858 12.551 23.686 12.4728C23.6868 12.1837 24.1101 11.6605 24.4845 11.4856C25.0259 11.2328 25.3799 11.2599 26.0072 11.6022L26.5512 11.899L26.7639 11.6442C26.8808 11.5041 26.9767 11.3098 26.9769 11.2124C26.9777 10.8705 27.3876 10.379 27.8391 10.1787C28.2541 9.99466 28.3514 9.98959 28.9162 10.1229C29.4971 10.26 29.5449 10.2562 29.6555 10.065C29.9234 9.60169 30.5692 9.01995 30.9804 8.87154C31.523 8.67554 32.206 8.72778 32.7563 9.00743ZM18.1693 9.21271C19.2142 9.70584 19.9559 10.8235 19.9559 11.905C19.9559 12.5339 20.0969 12.6134 21.0694 12.5325C21.9686 12.4577 22.3579 12.5802 22.9549 13.1255C23.5632 13.6812 23.8056 14.6088 23.5565 15.4286C23.3772 16.0191 22.6427 16.755 22.0786 16.909C21.4947 17.0686 7.44739 17.0686 6.86347 16.909C6.26979 16.7469 5.5538 16.0119 5.37401 15.3803C5.07432 14.3271 5.56872 13.234 6.57025 12.7354C7.27034 12.387 7.93345 12.4135 8.7214 12.8212C9.58844 13.27 9.74882 13.2267 9.93816 12.4926C10.2949 11.11 11.5852 10.3785 12.9061 10.8102C13.5122 11.0082 13.77 10.9609 13.876 10.6321C13.9863 10.2901 14.7979 9.47606 15.2598 9.24422C16.1957 8.7744 17.2173 8.7634 18.1693 9.21271ZM38.2382 20.2C35.9571 21.1557 34.0446 22.0186 33.9884 22.1176C33.9144 22.2474 34.002 22.5623 34.3034 23.2502C34.6566 24.0566 34.7634 24.208 34.9979 24.2354C35.1539 24.2535 35.8857 24.0086 36.6708 23.6754C38.0485 23.0909 38.0676 23.0864 38.1596 23.3194C38.2108 23.4492 38.5034 24.1353 38.8097 24.8442C39.1161 25.553 39.3521 26.1475 39.3341 26.1652C39.2677 26.2306 28.9416 30.5169 28.8506 30.5169C28.7987 30.5169 28.4326 30.3679 28.037 30.1858C26.1275 29.3066 23.9691 29.6931 22.5366 31.1709C21.9346 31.7918 21.2724 32.9505 21.2723 33.3834C21.2722 33.5056 21.2106 33.6813 21.1351 33.7739C21.0258 33.908 11.613 37.9304 11.2467 37.9996C11.15 38.0178 9.86378 35.2295 9.86378 35.0016C9.86378 34.9371 10.5179 34.615 11.3173 34.2862C12.5258 33.7889 12.7769 33.6466 12.8072 33.4415C12.854 33.124 12.1749 31.4998 11.9445 31.3785C11.8203 31.3131 10.5339 31.8022 7.5528 33.0485C3.81105 34.6129 3.33322 34.8397 3.30513 35.0654C3.28758 35.2053 3.44478 35.7083 3.65441 36.1832C3.96397 36.8846 4.08486 37.0527 4.29844 37.0791C4.44302 37.0969 5.14957 36.8662 5.86852 36.5664C6.58747 36.2667 7.22701 36.0213 7.28953 36.0213C7.39254 36.0213 8.65712 38.7975 8.65712 39.0237C8.65712 39.0762 7.16382 39.7407 5.3388 40.5003C3.51367 41.26 1.86449 41.9951 1.67373 42.1335C1.23209 42.4545 0.925376 43.2135 1.01588 43.7618C1.15102 44.5814 1.89575 45.1954 2.75457 45.1954C3.21628 45.1954 4.52035 44.6781 12.0352 41.5141C16.8441 39.4895 20.8649 37.8082 20.9706 37.778C21.1505 37.7265 21.1625 37.9314 21.1625 41.0275V44.332H16.4079C10.4691 44.332 9.01725 44.397 8.86872 44.6701C8.7893 44.816 8.8119 44.916 8.95626 45.058C9.14088 45.2396 9.99717 45.2485 25.8558 45.2325C38.7918 45.2195 42.5971 45.186 42.7216 45.0844C42.9296 44.9146 42.9257 44.7137 42.7101 44.5015C42.5576 44.3516 41.8587 44.332 36.6768 44.332H30.8158L30.7975 39.0973C30.7875 36.2183 30.7751 33.7879 30.7701 33.6965C30.7635 33.5761 33.4165 32.4309 40.4143 29.5338C45.7236 27.3358 50.1833 25.4314 50.3248 25.3018C51.0842 24.6069 51.1088 23.375 50.3765 22.7228C50.0183 22.4039 49.348 22.1835 48.9561 22.2558C48.7566 22.2926 47.0786 22.9545 45.2272 23.7265C43.376 24.4985 41.8274 25.0916 41.7859 25.0443C41.7018 24.9485 40.6165 22.4506 40.56 22.223C40.5365 22.128 40.9927 21.8775 41.8781 21.4992C43.3342 20.8771 43.5406 20.7545 43.5406 20.5119C43.5406 20.1863 42.751 18.5563 42.5708 18.5099C42.4691 18.4837 40.5195 19.2443 38.2382 20.2ZM42.3972 19.9229L42.5483 20.2766L42.1395 20.441C41.9146 20.5314 40.2845 21.2143 38.5169 21.9585C36.7493 22.7027 35.2894 23.2936 35.2724 23.2716C35.1877 23.1618 34.9603 22.5192 34.9969 22.4933C35.1619 22.3763 42.0795 19.5266 42.1529 19.5454C42.2041 19.5584 42.314 19.7283 42.3972 19.9229ZM40.2957 23.8734C40.6324 24.6416 40.9079 25.3258 40.9079 25.3938C40.9079 25.5105 40.4588 25.768 40.2556 25.768C40.1701 25.768 38.9313 23.0139 38.9327 22.8272C38.9333 22.7603 39.6061 22.4271 39.6649 22.4647C39.675 22.4713 39.9589 23.1051 40.2957 23.8734ZM49.566 23.2276C49.7368 23.3145 49.9071 23.4641 49.9446 23.5603C50.0762 23.8978 50.0121 24.4399 49.8203 24.6107C49.6556 24.7574 31.1041 32.5029 30.569 32.6485C30.45 32.6808 30.377 32.6412 30.377 32.5441C30.377 32.4579 30.188 32.1219 29.9569 31.7974L29.5369 31.2073L34.7013 29.0649C37.5418 27.8865 40.1373 26.803 40.4691 26.657C40.801 26.5111 41.1959 26.3451 41.3467 26.2882C41.4975 26.2312 43.2253 25.5139 45.1861 24.6941C49.6743 22.8175 49.1228 23.0021 49.566 23.2276ZM27.5069 30.9045C28.2939 31.2494 28.8599 31.7076 29.2634 32.3261C29.9108 33.3189 29.9383 33.5989 29.9383 39.2279V44.332H29.4446H28.951V42.5009C28.951 40.8316 28.9331 40.6605 28.7486 40.5634C28.6028 40.4866 28.4798 40.5024 28.3098 40.6196C28.0841 40.7751 28.0734 40.8624 28.0734 42.5573V44.332H25.0529H22.0324L22.0637 38.906L22.0949 33.48L22.4555 32.7597C23.3988 30.8749 25.5975 30.0675 27.5069 30.9045ZM25.4676 32.346C24.1195 32.6731 23.4055 34.1791 24.0349 35.3675C24.4377 36.1281 24.9837 36.4888 25.8104 36.5406C26.9044 36.6091 27.7124 36.0773 28.0583 35.0609C28.5735 33.5467 27.0592 31.9597 25.4676 32.346ZM11.6802 32.6879C11.7817 32.8809 11.8159 33.0645 11.7607 33.1189C11.7077 33.171 10.6792 33.6213 9.47513 34.1195C8.2711 34.6176 6.70134 35.2737 5.98678 35.5774C5.27232 35.8811 4.64782 36.1053 4.599 36.0757C4.55019 36.0461 4.45794 35.874 4.39398 35.6936C4.29065 35.4018 4.30458 35.3535 4.52024 35.2586C5.46188 34.8444 11.3606 32.3688 11.4241 32.3612C11.4679 32.356 11.5831 32.503 11.6802 32.6879ZM26.7388 33.3983C26.9967 33.557 27.3055 34.1374 27.3055 34.4636C27.3055 34.8018 26.9443 35.3846 26.638 35.5404C26.1115 35.8083 25.4714 35.7444 25.1088 35.3876C23.9541 34.2515 25.3521 32.5453 26.7388 33.3983ZM21.1625 35.7882V36.7422L12.1352 40.5371C6.45331 42.9255 2.97561 44.332 2.75106 44.332C2.34167 44.332 1.85593 43.9274 1.85593 43.5865C1.85593 43.2067 2.09595 42.8358 2.44709 42.6732C2.63478 42.5862 5.52803 41.3637 8.87651 39.9566C12.225 38.5494 16.3222 36.825 17.9813 36.1245C19.6405 35.4241 21.0351 34.8471 21.0803 34.8425C21.1255 34.8379 21.1625 35.2635 21.1625 35.7882ZM9.62772 36.743C9.93936 37.4663 10.2227 38.1308 10.2574 38.2197C10.3301 38.4061 9.67313 38.7945 9.53327 38.6478C9.42061 38.5296 8.19299 35.6849 8.2383 35.6471C8.41052 35.5037 8.94507 35.2975 8.99619 35.3549C9.03184 35.3949 9.31607 36.0196 9.62772 36.743ZM28.3098 38.0293C28.1124 38.1654 28.0734 38.299 28.0734 38.8407C28.0734 39.568 28.2071 39.9068 28.4941 39.9068C28.8478 39.9068 28.951 39.6712 28.951 38.8637C28.951 38.212 28.9168 38.0617 28.7486 37.973C28.6028 37.8963 28.4798 37.9121 28.3098 38.0293ZM45.8417 44.5503C45.6655 44.7237 45.6437 44.8126 45.7359 44.982C45.8462 45.1847 45.9737 45.1954 48.2943 45.1954C50.7461 45.1954 51 45.1586 51 44.8037C51 44.7309 50.9224 44.5949 50.8277 44.5015C50.6819 44.3582 50.3002 44.332 48.3595 44.332C46.2012 44.332 46.0504 44.345 45.8417 44.5503Z" fill="#DCB36C" stroke="#DCB36C" stroke-width="0.2"/>
</svg>
