<svg width="50" height="50" viewBox="0 0 50 50" fill="none" xmlns="http://www.w3.org/2000/svg">
<rect width="50" height="50" fill="white"/>
<path fill-rule="evenodd" clip-rule="evenodd" d="M20.371 0.12207C20.3457 0.189258 19.9811 1.27686 19.5607 2.53906L19.0219 4.15672C18.887 4.56191 18.5096 4.83667 18.0825 4.84068L12.9987 4.88838C6.44845 4.9499 6.79369 4.91201 5.05411 5.76064C2.03544 7.2332 0.236732 9.98564 0.0594268 13.4033L0.0544685 13.4991C0.0248532 14.0709 0.480528 14.5508 1.05313 14.5508H2.43982H3.92348C4.45838 14.5508 4.89857 14.9717 4.92248 15.5061L4.93545 15.7959C5.00278 17.2983 5.32753 18.4396 6.05207 19.7192C6.58867 20.6671 7.68421 21.8829 8.57464 22.5188C9.37802 23.0926 10.6384 23.6758 11.6513 23.9423C12.4502 24.1525 12.634 24.1588 19.125 24.1938L25.3174 24.2274C25.5824 24.2288 25.8059 24.4254 25.841 24.6882C25.9839 25.7565 26.5026 26.8636 27.1522 27.4864C27.3418 27.6681 27.449 27.9194 27.449 28.182V33.9361C27.449 39.1371 27.4719 40.1785 27.5956 40.5955C28.0366 42.0816 29.2381 43.1669 30.7628 43.4562C31.0765 43.5158 33.703 43.5547 37.4155 43.5547H42.5498C43.1021 43.5547 43.5498 44.0024 43.5498 44.5547V44.9171C43.5498 46.9566 43.7939 47.7809 44.6779 48.7267C45.5741 49.6856 46.5416 50 48.5957 50H48.9902C49.5425 50 49.9902 49.5523 49.9902 49V40.332V31.6641C49.9902 31.1118 49.5425 30.6641 48.9902 30.6641H48.4954C46.4335 30.6641 45.6634 30.9162 44.7061 31.9045C43.7852 32.8551 43.5498 33.6391 43.5498 35.7555V36.1094C43.5498 36.6617 43.1021 37.1094 42.5498 37.1094H38.7196H34.8893C34.337 37.1094 33.8893 36.6617 33.8893 36.1094V32.4693V28.1848C33.8893 27.9549 33.9686 27.7319 34.1137 27.5536L34.3283 27.2899C35.0199 26.4402 35.4506 25.4077 35.4506 24.5997C35.4506 24.3976 35.6134 24.2333 35.8154 24.2314L39.671 24.1944C43.6797 24.1561 43.9276 24.1433 44.6128 23.9381C47.3702 23.1124 49.2768 21.0688 49.836 18.3391C50.0503 17.2929 50.0562 11.7098 49.8441 10.6934C49.3062 8.11621 47.465 6.05225 44.9323 5.1874L44.337 4.98415C44.2357 4.94956 44.1296 4.93146 44.0225 4.93053L38.5244 4.88291L33.5765 4.84014C33.1504 4.83645 32.7735 4.56322 32.6374 4.15945L32.0504 2.41699L31.4654 0.680721C31.3284 0.273941 30.947 0 30.5178 0H25.8266C21.5885 0 20.407 0.0264648 20.371 0.12207ZM30.6266 3.24043C30.9078 4.08271 31.1128 4.79678 31.0824 4.82734C31.0004 4.90928 20.5207 4.89492 20.5207 4.81279C20.5207 4.77432 20.7503 4.04873 21.0311 3.20049L21.313 2.34834C21.4492 1.93686 21.8349 1.65994 22.2683 1.66251L25.8284 1.68359L29.3995 1.70474C29.8276 1.70728 30.2066 1.98205 30.3421 2.38814L30.6266 3.24043ZM10.543 6.6501C11.1155 6.78613 11.1853 6.88027 10.787 6.97881C10.4052 7.07334 9.2539 7.67148 8.61914 8.10518C8.00233 8.52666 6.84267 9.70195 6.40268 10.3516C6.01607 10.9223 5.60496 11.7403 5.39672 12.3535C5.29725 12.6463 5.02439 12.8449 4.7152 12.8495L3.45437 12.8685L2.0522 12.8895C1.8582 12.8924 1.70973 12.7176 1.74397 12.5267C1.87668 11.7866 2.27696 10.678 2.63498 10.0586C3.19051 9.09746 4.49185 7.84658 5.44444 7.35811C6.29124 6.92393 6.99051 6.67188 7.71446 6.53975C8.30746 6.43145 9.88174 6.49287 10.543 6.6501ZM43.8914 6.59219C46.4823 7.13662 48.3313 9.39561 48.3313 12.0168C48.3313 12.4994 47.9401 12.8906 47.4575 12.8906H33.0222H18.1816C17.9127 12.8906 17.6846 12.693 17.6465 12.4268C17.3285 10.2121 16.016 7.98994 14.238 6.65645C14.1478 6.58882 14.1956 6.44534 14.3083 6.44535L28.5824 6.44697C41.0695 6.44844 43.3082 6.46973 43.8914 6.59219ZM14.1282 8.73018C15.4316 10.1188 16.1239 11.8549 16.1279 13.7451C16.1288 14.1903 16.49 14.5508 16.9352 14.5508H18.5117H20.5179C20.735 14.5508 20.9203 14.7075 20.9565 14.9215C21.1064 15.8098 20.6481 17.831 20.0685 18.8373C18.1304 22.2026 14.0454 23.4951 10.6162 21.8281C8.66471 20.8794 7.34073 19.3078 6.74402 17.2319C6.42591 16.1252 6.42805 14.4173 6.7488 13.3789C7.5474 10.7939 9.42652 8.96885 11.9824 8.296C12.3581 8.19717 12.8626 8.11377 13.1036 8.11084C13.5185 8.10576 13.5729 8.13867 14.1282 8.73018ZM18.5691 8.88672C18.5691 9.31819 18.9189 9.66797 19.3503 9.66797H25.0094H30.6685C31.1 9.66797 31.4498 9.31819 31.4498 8.88672C31.4498 8.45525 31.1 8.10547 30.6685 8.10547H25.0094H19.3503C18.9189 8.10547 18.5691 8.45525 18.5691 8.88672ZM37.1095 10.498V10.5475C37.1095 10.9786 37.459 11.3281 37.8901 11.3281C38.3213 11.3281 38.6708 10.9786 38.6708 10.5475V10.498V10.4486C38.6708 10.0175 38.3213 9.66797 37.8901 9.66797C37.459 9.66797 37.1095 10.0175 37.1095 10.4486V10.498ZM40.3297 10.498V10.5475C40.3297 10.9786 40.6792 11.3281 41.1103 11.3281C41.5414 11.3281 41.8909 10.9786 41.8909 10.5475V10.498V10.4486C41.8909 10.0175 41.5414 9.66797 41.1103 9.66797C40.6792 9.66797 40.3297 10.0175 40.3297 10.4486V10.498ZM43.5498 10.498V10.5475C43.5498 10.9786 43.8993 11.3281 44.3305 11.3281C44.7616 11.3281 45.1111 10.9786 45.1111 10.5475V10.498V10.4486C45.1111 10.0175 44.7616 9.66797 44.3305 9.66797C43.8993 9.66797 43.5498 10.0175 43.5498 10.4486V10.498ZM12.4621 11.5191C11.0141 12.0349 10.0448 13.1933 9.77411 14.7313C9.47482 16.4316 10.4388 18.1856 12.107 18.9759C12.7086 19.2608 12.8443 19.2866 13.7435 19.2868C14.6814 19.2871 14.7566 19.271 15.4701 18.9183C16.0111 18.6509 16.3519 18.3971 16.7096 17.9954C16.981 17.6907 17.2029 17.4156 17.2029 17.3841C17.2029 17.3206 15.9831 16.6016 15.8754 16.6016C15.8382 16.6016 15.6581 16.7558 15.4753 16.9441C14.9682 17.4666 14.4327 17.7003 13.7432 17.6999C12.739 17.6993 11.9844 17.2327 11.5791 16.3614C10.9418 14.9918 11.6599 13.4234 13.1088 13.0203C13.4524 12.9247 13.69 12.6119 13.69 12.2553V12.0934V11.6941C13.69 11.4932 13.525 11.3313 13.3241 11.3353C13.1229 11.3392 12.7349 11.4219 12.4621 11.5191ZM48.3301 16.1865C48.3289 18.0004 48.242 18.4861 47.733 19.5269C47.356 20.2979 46.2927 21.4017 45.4871 21.8584C45.184 22.0303 44.5951 22.2581 44.1785 22.3647C43.4817 22.5431 43.0915 22.5586 39.3061 22.5586H35.7535C35.4107 22.5586 35.099 22.3595 34.955 22.0483C34.3616 20.7668 32.8452 19.6573 31.3766 19.4303C29.3981 19.1244 27.3402 20.165 26.3942 21.9495L26.3532 22.0269C26.1798 22.354 25.8399 22.5586 25.4696 22.5586H22.4592H19.2636C19.125 22.5586 19.0634 22.3842 19.1715 22.2972C21.3292 20.5593 22.5699 18.0277 22.5699 15.3629C22.5699 14.9144 22.9335 14.5508 23.382 14.5508H35.4506H47.3306C47.8831 14.5508 48.331 14.9989 48.3306 15.5515L48.3301 16.1865ZM37.1095 18.5547V19.9961C37.1095 20.5484 37.5572 20.9961 38.1095 20.9961H40.3297H42.5498C43.1021 20.9961 43.5498 20.5484 43.5498 19.9961V18.5547V17.1133C43.5498 16.561 43.1021 16.1133 42.5498 16.1133H40.3297H38.1095C37.5572 16.1133 37.1095 16.561 37.1095 17.1133V18.5547ZM41.8909 18.5547C41.8909 18.9862 41.5412 19.3359 41.1097 19.3359H40.2809H39.452C39.0205 19.3359 38.6708 18.9862 38.6708 18.5547C38.6708 18.1232 39.0205 17.7734 39.452 17.7734H40.2809H41.1097C41.5412 17.7734 41.8909 18.1232 41.8909 18.5547ZM31.7829 21.1967C33.9325 22.0016 34.5384 24.8267 32.9093 26.4483C31.3059 28.0443 28.7324 27.5719 27.7198 25.4957C27.1252 24.2762 27.5309 22.6147 28.65 21.6873C29.4492 21.0249 30.7713 20.8179 31.7829 21.1967ZM30.6203 28.9551C31.1034 28.9551 31.6615 28.9176 31.8607 28.8717C32.0464 28.8289 32.224 28.9693 32.2252 29.1599L32.251 33.1686C32.2822 38.0255 32.2683 37.9188 32.9364 38.3956C33.2541 38.6224 33.266 38.6231 36.7923 38.651L39.3375 38.671C39.8867 38.6753 40.3297 39.1218 40.3297 39.671V40.2867V40.8945C40.3297 41.4468 39.8819 41.8945 39.3297 41.8945H35.6144H31.1385C30.9813 41.8945 30.8262 41.8574 30.686 41.7863L30.3701 41.626C29.7214 41.2967 29.2616 40.7144 29.1168 40.0385C29.0471 39.7131 29.0103 37.6824 29.0103 34.164V29.1623C29.0103 28.9702 29.1889 28.8279 29.3762 28.871C29.5775 28.9172 30.1373 28.9551 30.6203 28.9551ZM48.3313 40.2832V47.6812C48.3313 48.0448 48.0362 48.3394 47.6726 48.3389C47.1851 48.3382 46.8872 48.2781 46.526 48.1077C45.9352 47.8288 45.6792 47.5632 45.3843 46.9227L45.2505 46.6322C45.1908 46.5026 45.1595 46.3617 45.1588 46.219L45.131 40.7266C45.1135 37.251 45.1404 34.7724 45.1998 34.3905C45.4079 33.0529 46.3958 32.2541 47.8678 32.2331C48.1227 32.2295 48.3313 32.4352 48.3313 32.6901V40.2832ZM43.5498 40.2832V41.0651C43.5498 41.5232 43.1785 41.8945 42.7204 41.8945C42.2623 41.8945 41.8909 41.5232 41.8909 41.0651V40.3483C41.8909 39.4979 41.9202 38.7728 41.956 38.737C41.9917 38.7012 42.365 38.6719 42.7855 38.6719C43.2076 38.6719 43.5498 39.0141 43.5498 39.4362V40.2832Z" fill="#DCB36C"/>
</svg>
