<svg width="50" height="50" viewBox="0 0 50 50" fill="none" xmlns="http://www.w3.org/2000/svg">
<rect width="50" height="50" fill="white"/>
<path fill-rule="evenodd" clip-rule="evenodd" d="M28.4765 0.0243447C27.6783 0.0980091 26.8104 0.274463 26.0521 0.517375C25.3057 0.756384 25.2511 0.760487 24.7039 0.617262C22.9037 0.146051 20.4247 0.00763017 18.9516 0.296182C18.0548 0.471735 17.0089 0.861476 16.3783 1.25492L15.9115 1.54607L15.3346 1.30827C13.8124 0.680918 11.9275 1.05514 10.7558 2.21736C10.3726 2.59749 10.2497 2.66125 9.90096 2.66125C9.38859 2.66125 8.43096 2.95971 7.86579 3.2956C7.23487 3.67053 6.38069 4.65679 6.00403 5.44528C5.73546 6.00747 5.59895 6.17431 5.25132 6.36498C4.64429 6.69807 3.90371 7.56223 3.64333 8.24142C3.46636 8.70302 3.42352 9.01439 3.42618 9.8175C3.42796 10.368 3.42717 11.2462 3.42431 11.7692C3.4095 14.4853 3.52588 15.1339 4.22381 16.2273C4.90645 17.2963 5.66548 17.8211 7.26665 18.3308C8.16575 18.6171 8.38665 18.7341 8.95262 19.224C10.0795 20.1995 11.1018 20.5716 12.6642 20.5752C13.8505 20.5778 14.1678 20.811 14.5546 21.9639C15.0549 23.4556 15.7218 24.5244 16.8469 25.6375C17.1884 25.9754 17.4389 26.2811 17.4036 26.3169C17.3076 26.4143 16.4206 26.394 15.6944 26.2778C14.2831 26.0521 13.0924 25.4603 12.2162 24.5493C11.9848 24.3087 11.7188 24.0841 11.6249 24.0498C11.5251 24.0136 11.1393 24.1394 10.6959 24.3529C9.3269 25.0122 7.81476 24.9176 6.76741 24.1071C5.84394 23.3924 5.53874 22.3123 5.88164 20.9716C6.11557 20.0571 6.05822 19.9639 5.1688 19.8128C3.92109 19.6009 3.16255 19.125 2.66498 18.2417C2.29889 17.5916 2.21282 16.8882 2.37519 15.8738C2.49333 15.1362 2.48939 15.0617 2.32208 14.8743C2.09437 14.6191 1.7348 14.6146 1.48912 14.8637C1.11296 15.2451 1.08542 17.4474 1.4449 18.4036C1.84485 19.4675 2.96988 20.4992 4.09026 20.8295L4.60955 20.9826L4.56286 21.7213C4.44402 23.599 5.55523 25.176 7.42952 25.7892C8.34549 26.0889 9.82782 26.033 10.7194 25.665L11.3212 25.4167L11.8545 25.8527C13.4048 27.1199 15.3298 27.7107 17.3141 27.5282C19.2148 27.3534 19.5045 27.4367 20.5079 28.4467C21.6836 29.63 22.0099 30.8762 22.0108 34.1894C22.0114 36.0232 21.8589 37.8194 21.5757 39.3171C21.2269 41.1605 20.1202 43.8813 19.0407 45.5487C18.3519 46.6127 16.9142 48.0657 16.0606 48.5604C15.3771 48.9566 15.2185 49.1857 15.346 49.5928C15.4516 49.93 15.9988 50.0212 17.7021 49.9855C19.2074 49.9537 19.2726 49.9437 19.4541 49.7162C19.6898 49.4207 19.6906 49.2844 19.4584 48.9934C19.3078 48.8048 19.1544 48.755 18.6195 48.7204L17.9649 48.6781L18.7296 47.8579C20.8536 45.58 22.3936 42.0822 22.9678 38.2317C23.2178 36.5549 23.2204 31.6965 22.9718 30.5856C22.5804 28.8363 21.6169 27.5328 19.946 26.4915C18.3322 25.486 17.3143 24.5682 16.5507 23.4304C16.0915 22.7461 15.6455 21.6488 15.5442 20.9538L15.4751 20.4799L16.038 20.6763C16.3475 20.7844 16.8177 20.9019 17.0829 20.9375L17.5648 21.0024L17.9741 21.8599C18.5471 23.0602 19.643 24.1747 20.8282 24.7623C21.9828 25.3349 22.534 25.4722 22.8808 25.2735L23.1465 25.1213L23.1223 22.0106L23.0981 18.9L24.6029 18.9509C26.99 19.0316 28.3416 18.7838 30.2661 17.9128C30.3274 17.885 30.4818 18.034 30.609 18.2438C30.9379 18.7858 31.5493 19.4378 31.9678 19.6928C32.1648 19.8128 32.3425 19.9236 32.3626 19.9391C32.4569 20.0114 31.4257 21.317 30.8755 21.8219C30.2885 22.3604 29.3679 22.9005 28.8119 23.0324C28.5651 23.091 28.5525 23.0725 28.4919 22.5607C28.4573 22.2679 28.4285 21.587 28.4281 21.0478C28.4273 20.1409 28.409 20.0489 28.1849 19.8217C27.9026 19.5354 27.7631 19.5181 27.4622 19.7319C27.2549 19.879 27.2432 19.9553 27.2513 21.1081C27.2649 23.0471 27.3643 24.046 27.5637 24.2481C28.0412 24.7322 30.126 24.0567 31.3883 23.0088C32.0481 22.4611 32.7739 21.612 33.1964 20.8936L33.5104 20.3595L33.9437 20.4182C34.182 20.4504 34.504 20.4768 34.6594 20.4768C34.9962 20.4768 34.9999 20.5116 34.7381 21.2212C34.4231 22.0749 33.774 22.8774 32.7044 23.7354C32.1705 24.1637 31.3317 24.9231 30.8404 25.423C28.659 27.6422 28.1849 29.2864 28.5287 33.4381C29.0444 39.6644 30.9141 44.4968 34.1306 47.9163L34.8512 48.6824L34.4484 48.7514C33.7071 48.8785 33.5453 49.6496 34.2066 49.9045C34.5329 50.0303 36.628 50.0324 36.9526 49.9073C37.2486 49.7932 37.4421 49.4645 37.3628 49.2109C37.3311 49.1099 36.9226 48.74 36.455 48.389C33.6024 46.2476 31.3763 42.3547 30.3587 37.7287C29.9025 35.6546 29.6147 33.1077 29.6126 31.1271C29.6101 28.5896 30.5503 27.0226 33.5315 24.5963C34.6432 23.6915 35.2473 22.9294 35.7346 21.8173C36.2152 20.7205 36.3629 20.4485 36.5209 20.3698C36.6023 20.3292 36.9676 20.1543 37.3326 19.9811C38.1504 19.593 39.0085 18.8136 39.4078 18.0961C39.693 17.5839 39.7251 17.5588 40.0149 17.6219C41.0176 17.8403 42.1129 17.9739 42.9033 17.9742C43.9231 17.9746 45.2176 17.7558 45.5665 17.524C45.8585 17.3301 45.8762 16.8753 45.6015 16.6232C45.4109 16.4484 45.3705 16.4483 44.4592 16.6222C42.6431 16.9689 40.221 16.6303 38.6933 15.8162C38.3125 15.6134 37.705 15.1603 37.3432 14.8094C36.6502 14.1371 36.3752 14.0371 36.092 14.3544C35.8478 14.6279 35.8936 14.9833 36.2256 15.3917C36.5845 15.8331 37.5984 16.6211 38.1742 16.9061C38.4049 17.0203 38.5937 17.1517 38.5937 17.1981C38.5937 17.4016 37.6526 18.2755 37.1285 18.5587C35.3943 19.496 33.3843 19.3306 32.0245 18.1388C31.4617 17.6454 31.4922 17.2439 32.1664 16.2704C32.462 15.8437 32.7563 15.268 32.8703 14.8936C33.351 13.3154 32.8892 11.8415 32.101 12.4382C31.8439 12.633 31.8325 12.6795 31.8325 13.5315C31.8325 14.3002 31.7954 14.4981 31.5605 14.9829C31.0783 15.9788 30.0423 16.7941 28.6268 17.292C26.9763 17.8725 23.7937 17.9292 22.1595 17.4072C20.7928 16.9706 19.617 15.9625 19.2954 14.9516C19.2026 14.66 19.0566 14.3653 18.971 14.2964C18.7419 14.1124 18.4145 14.1439 18.2133 14.3693C17.6387 15.0132 18.8654 17.0422 20.3343 17.877C20.6708 18.0683 21.0924 18.3492 21.2712 18.5014C21.8228 18.9707 21.8961 19.313 21.9731 21.7765L22.0424 23.9957L21.6992 23.8502C21.2093 23.6427 20.5883 23.2309 20.1157 22.8002C19.6956 22.4175 18.9516 21.344 18.9516 21.1207C18.9516 21.0514 19.128 20.9646 19.3436 20.9277C20.0502 20.8066 20.4163 20.3223 20.1381 19.8763C20.0617 19.7539 19.7749 19.7261 18.585 19.7261C17.1479 19.7261 17.1085 19.7202 16.0078 19.3379L14.89 18.9498L14.1324 19.1066C12.903 19.361 12.5013 19.3901 11.7937 19.2755C10.6944 19.0974 9.79821 18.5639 9.22514 17.7465C9.05941 17.5101 8.89379 17.4401 8.11985 17.2793C6.47692 16.938 5.56569 16.3356 5.0396 15.243C4.64577 14.4252 4.52288 13.5052 4.65554 12.3678C4.72878 11.7394 4.7271 11.3389 4.64962 10.9723C4.40434 9.81269 4.60352 8.64277 5.15449 8.00651L5.46353 7.6495L5.72105 8.453C5.9613 9.20286 6.36934 9.87114 6.72615 10.0994C6.96985 10.2553 7.39892 10.0923 7.50759 9.80258C7.58468 9.597 7.56346 9.4779 7.40573 9.22988C6.97489 8.55259 6.77225 7.99811 6.73099 7.38397C6.69269 6.81377 6.72349 6.68026 7.04684 6.01698C7.72454 4.62656 8.86753 3.8623 10.2694 3.8623C11.0128 3.8623 11.146 3.78743 11.4615 3.19271C11.5492 3.02747 11.7823 2.76734 11.9795 2.61481C12.9622 1.85484 14.2739 1.88557 15.439 2.69598C15.8881 3.00845 16.0144 2.98753 16.7016 2.48689C17.3303 2.02889 18.4151 1.61043 19.3759 1.45529C20.1914 1.32368 22.6977 1.37623 23.2409 1.53636C23.5228 1.61944 23.5127 1.62804 22.9448 1.78758C22.6214 1.87836 22.1355 2.00207 21.865 2.06242C21.3018 2.18803 21.0237 2.39992 21.0259 2.70178C21.0298 3.24205 21.3891 3.38248 22.3116 3.20452C23.3573 3.00275 24.1841 2.71509 25.318 2.15881C26.6807 1.49022 27.2475 1.3517 28.8714 1.29055C30.0591 1.24571 30.3781 1.26853 31.1415 1.45259C31.6301 1.57029 32.3681 1.82712 32.7816 2.02329L33.5333 2.38L34.2622 2.10156C34.8783 1.86615 35.1436 1.82261 35.978 1.82001C36.831 1.81741 37.0532 1.85394 37.6143 2.08895C37.9716 2.23858 38.4229 2.36099 38.6174 2.36099C39.2166 2.36099 40.4599 2.64233 41.0297 2.90686C42.1785 3.44013 42.7393 4.16216 42.7393 5.10818C42.7393 5.97514 42.2633 6.45516 41.2047 6.65574C40.6587 6.75913 40.4444 6.94739 40.4444 7.32362C40.4444 7.70065 40.7078 7.86579 41.309 7.86579C42.1683 7.86579 42.7914 7.61547 43.3864 7.03106C43.9046 6.52202 43.9253 6.51231 44.2506 6.62651C45.1546 6.94389 45.9706 7.62328 46.3431 8.36853C46.6524 8.98737 46.8138 9.95361 46.7342 10.7081C46.673 11.2878 46.6912 11.3663 47.0456 12.0544C47.5011 12.9387 47.6018 13.8297 47.3298 14.5716C47.0552 15.321 47.0556 15.4145 47.3356 16.081C47.7199 16.9957 47.7763 18.0478 47.4784 18.7499C47.2095 19.3835 46.4177 20.1674 45.6718 20.5385C45.1953 20.7755 45.0962 20.8794 44.8511 21.3994C44.0833 23.0283 42.4488 23.7302 40.2721 23.3657L39.5931 23.252L38.9207 23.8678C37.6031 25.0742 36.0882 25.651 34.5212 25.5429C33.7443 25.4893 33.6366 25.5034 33.4601 25.6823C33.0055 26.1434 33.3494 26.6287 34.2081 26.7375C35.9593 26.9593 37.8225 26.3478 39.4224 25.0263L39.9572 24.5845L40.8963 24.647C41.491 24.6867 42.0644 24.6645 42.46 24.5864C43.8068 24.3209 45.0392 23.4549 45.6979 22.3112C45.9637 21.8498 46.1617 21.6472 46.6014 21.3868C47.4162 20.9042 48.1427 20.1354 48.5019 19.3758C48.786 18.775 48.8095 18.6449 48.8095 17.6744C48.8095 16.8193 48.7663 16.5046 48.5778 15.9857C48.3498 15.3582 48.3487 15.3389 48.5154 14.8015C48.787 13.9257 48.6852 12.7093 48.2655 11.8192C47.9801 11.2141 47.9386 11.03 47.9605 10.4681C47.9943 9.5978 47.754 8.49554 47.3716 7.76811C46.8267 6.7313 45.7011 5.811 44.5518 5.46249C44.1537 5.34179 44.1394 5.32207 43.9825 4.67761C43.5049 2.71479 41.7548 1.44398 39.1938 1.20027C38.8366 1.16634 38.2334 1.02242 37.8534 0.880592C37.2519 0.656096 37.0091 0.622967 35.978 0.624569C35.0282 0.62607 34.6763 0.668407 34.2014 0.838055L33.6091 1.04964L32.7702 0.711645C31.4983 0.199197 29.7009 -0.0884537 28.4765 0.0243447ZM18.7542 2.46107C18.3649 2.85582 18.6204 3.46195 19.1759 3.46195C19.4523 3.46195 19.7412 3.14367 19.7412 2.8391C19.7412 2.60029 19.3937 2.2609 19.149 2.2609C19.0404 2.2609 18.8628 2.35098 18.7542 2.46107ZM24.8936 27.7031C24.6984 27.9011 24.7432 28.9239 24.9557 29.1188C25.2207 29.3622 25.5217 29.3213 25.7646 29.0093C25.9322 28.7939 25.9687 28.6416 25.932 28.3087C25.9062 28.0747 25.8298 27.8158 25.7622 27.7332C25.6151 27.5535 25.0601 27.5343 24.8936 27.7031ZM24.9554 31.6071C24.806 31.7241 24.7856 32.2086 24.7428 36.6409C24.6917 41.9124 24.6577 42.3221 24.1234 44.0974C23.5928 45.8609 22.8912 47.085 21.7735 48.1981C21.2516 48.7179 21.1237 48.9057 21.1263 49.1489C21.1301 49.5206 21.3003 49.7615 21.6558 49.8986C22.0031 50.0325 25.1066 50.0332 25.5814 49.8995C26.231 49.7165 26.8493 48.7699 27.1442 47.5066C27.2141 47.2072 27.276 46.517 27.2817 45.973C27.2908 45.1022 27.2691 44.9665 27.1005 44.8408C26.8558 44.6584 26.5067 44.6579 26.3276 44.8396C26.2359 44.9326 26.1674 45.3195 26.1284 45.9656C26.0611 47.0792 25.7839 48.1081 25.4558 48.4623C25.2475 48.6871 25.1673 48.7014 24.1168 48.7014H22.9993L23.493 48.0802C24.4783 46.8402 25.2924 44.8559 25.6805 42.7486C25.8628 41.7582 25.8878 41.1536 25.9252 36.8411C25.9711 31.5677 25.9706 31.5627 25.4144 31.507C25.2529 31.4908 25.0463 31.5359 24.9554 31.6071ZM27.3302 38.5039C27.0815 38.7562 27.0977 38.9644 27.5432 41.2212C28.0239 43.6565 29.0604 46.5572 30.0075 48.1182C30.1698 48.3856 30.3026 48.621 30.3026 48.6413C30.3026 48.6615 30.0133 48.6968 29.6598 48.7197C28.942 48.766 28.6986 48.9261 28.6986 49.352C28.6986 49.8691 28.9073 49.9525 30.1997 49.9525C31.3052 49.9525 31.3872 49.9386 31.6273 49.7099C32.0288 49.3272 31.9709 48.9271 31.3884 48.0605C30.1076 46.1547 29.0314 43.078 28.4629 39.6975C28.28 38.6097 28.1159 38.2924 27.7363 38.2924C27.6277 38.2924 27.445 38.3875 27.3302 38.5039Z" fill="#DCB36C"/>
</svg>
