<svg width="50" height="50" viewBox="0 0 50 50" fill="none" xmlns="http://www.w3.org/2000/svg">
<rect width="50" height="50" fill="white"/>
<path fill-rule="evenodd" clip-rule="evenodd" d="M41.9491 8.66529L44.0608 8.65397L44.0363 31.6879L41.9407 31.5988L41.9491 8.66529ZM5.90735 8.65934L8.01375 8.65035L8.02514 31.6246L5.9307 31.685L5.90735 8.65934ZM16.9001 8.62887L19.1464 8.63482L19.1357 31.6856L16.9151 31.6879C16.875 28.407 16.7908 24.4817 17.1619 21.4518C17.5618 18.1853 16.896 17.905 16.8954 14.9247L16.8918 10.3927L16.9001 8.62887ZM25.2552 8.62653L27.4871 8.63004C27.5253 10.5966 27.563 12.9868 27.505 14.9372C27.45 16.7776 27.0065 18.5386 27.0854 20.0508C27.3436 24.9916 27.7118 24.6844 27.4739 31.6825L25.2426 31.6856L25.2552 8.62653ZM22.4841 31.6898C22.3072 23.7322 22.5857 25.6306 22.8846 20.0449C22.9599 18.6396 22.4913 16.5237 22.4554 14.5852C22.4208 12.6892 22.4417 10.5308 22.4787 8.63004L24.7274 8.62887L24.7034 31.6892L22.4841 31.6898ZM39.1738 8.67253L41.4237 8.66891L41.4278 31.5696L39.1804 31.6856C39.0393 24.1728 39.2904 25.7036 39.5641 20.0688C39.6353 18.6139 39.2043 16.6366 39.1588 14.9265C39.1068 12.9689 39.1457 10.6474 39.1738 8.67253ZM36.3866 8.61871L38.6341 8.76814C38.6538 10.7233 38.695 12.9845 38.6418 14.9188C38.5976 16.5326 38.1421 18.7334 38.2145 20.0179C38.5528 26.0077 38.7435 23.5349 38.6293 31.6377L36.3777 31.6479L36.3866 8.61871ZM33.6066 8.66109L35.8516 8.6821L35.8582 31.5314L33.6132 31.6963C33.5666 29.6778 33.5905 27.6981 33.5863 25.7244C33.5821 23.5989 33.9049 21.8141 33.9939 20.0598C34.0699 18.5613 33.6407 16.6844 33.5911 14.9307C33.5355 12.9779 33.5749 10.6324 33.6066 8.66109ZM30.8349 8.61568L33.0776 8.79266C33.077 10.7723 33.135 12.9666 33.0794 14.9176C33.0304 16.6253 32.5767 18.5297 32.652 20.0383C32.7554 22.1184 33.083 22.9796 33.0848 25.3675C33.0866 27.392 33.1045 29.4883 33.0662 31.6234L30.8092 31.6586L30.8349 8.61568ZM28.0495 31.6724C28.0089 29.5899 28.0196 27.4597 28.0214 25.3736C28.0238 23.3844 28.3412 21.7054 28.4279 20.0383C28.5044 18.5482 28.0495 16.4669 28.0214 14.5912C27.9927 12.6593 28.0184 10.5678 28.0411 8.63062L30.2952 8.62653L30.2623 31.6904L28.0495 31.6724ZM21.9168 31.6825L19.7071 31.682L19.6802 8.62583L21.9324 8.62887C21.9575 10.5679 21.9808 12.6647 21.9509 14.5935C21.9216 16.4728 21.4644 18.5642 21.5409 20.037C21.8254 25.5319 22.1189 24.2253 21.9168 31.6825ZM14.1111 8.69098L16.3622 8.65397L16.3777 14.9247C16.3771 18.7866 15.6138 16.309 16.2696 22.7668C16.5505 25.5301 16.4148 28.7818 16.3532 31.6682L14.1088 31.5116L14.1111 8.69098ZM11.3419 31.526C11.199 23.7041 11.4471 25.6354 11.7519 20.0251C11.8237 18.7059 11.3712 16.5697 11.3287 14.9188C11.2773 12.9397 11.3353 10.7879 11.3263 8.68747L13.5941 8.66109L13.5732 31.7005L11.3419 31.526ZM8.55287 8.68024L10.7932 8.64498C10.8261 10.63 10.8631 12.9642 10.8105 14.9337C10.7633 16.7096 10.3282 18.257 10.4089 20.0508C10.6629 25.6778 10.9277 24.095 10.7914 31.7023L8.54511 31.5421L8.55287 8.68024ZM3.64615 12.0288C2.68022 11.9027 3.1112 13.3294 1.88467 13.1944C1.09089 13.1065 0.669469 11.9761 0.861937 10.5027C1.20742 7.86316 3.58881 8.65752 5.13393 8.61568L5.10819 31.6867C3.74896 31.6891 1.18172 31.0531 0.179338 32.0071C0.234926 33.0812 0.226584 32.5182 0.51947 33.1488C1.43997 35.1267 0.90621 35.9773 1.39814 36.6007C2.60435 37.1596 3.72686 36.6054 4.81831 36.9879C6.12913 37.4464 7.0532 43.9539 25.2958 43.9187C43.689 43.884 43.3615 37.0412 45.7219 36.9157C47.0889 36.8428 47.7476 37.1625 48.7727 36.3138C48.8917 35.6551 48.9478 34.2797 49.1523 33.688C49.6531 32.2355 49.6376 34.4052 49.7924 32.0071C48.7673 31.0663 46.2359 31.6885 44.8349 31.6825L44.8498 8.62175C47.2491 8.6337 50.1295 7.89011 48.8068 12.9212C46.5856 13.8393 47.2688 11.5111 46.395 12.1369C46.2509 12.5547 46.2575 12.0431 46.3047 12.7681C46.4996 15.7681 51.1702 14.7753 49.7219 9.46627C48.8128 6.13454 44.6418 7.36524 42.3328 7.36524L7.40704 7.36582C4.98744 7.36761 0.984498 6.1651 0.188327 9.73233C-1.03582 15.2159 4.12672 15.7873 3.64615 12.0288Z" fill="#DCB36C"/>
</svg>
