<svg width="59" height="57" viewBox="0 0 59 57" fill="none" xmlns="http://www.w3.org/2000/svg">
<g filter="url(#filter0_d_198_906)">
<rect x="4.05957" y="0.165039" width="50" height="48.8351" rx="24.4175" fill="#DCB36C"/>
</g>
<path fill-rule="evenodd" clip-rule="evenodd" d="M27.8033 20.5417C28.375 19.7713 28.58 18.9594 27.9335 18.2427C26.4825 16.2124 25.5067 14.9569 24.8947 14.3523C23.7311 13.2029 21.8169 13.3583 20.8092 14.3513C20.2679 14.8847 20.0846 15.0678 19.5289 15.6323C16.4331 18.7298 18.321 25.2776 23.3399 30.3014C28.3577 35.3241 34.9049 37.2131 38.0072 34.1091C38.52 33.6147 38.9542 33.1802 39.2967 32.8183C40.2843 31.7744 40.4342 29.9447 39.2902 28.756C38.7037 28.1466 37.5065 27.2179 35.3908 25.7046C34.7428 25.1252 33.9745 25.2507 33.2702 25.7128C32.9314 25.9351 32.6848 26.16 32.2192 26.626L31.3737 27.472C31.2624 27.5834 29.7503 26.8262 28.2824 25.3569C26.8138 23.8868 26.0571 22.3746 26.1679 22.2638C26.3965 22.0353 26.6785 21.7531 27.014 21.4173C27.1617 21.2694 27.2323 21.1978 27.3229 21.1026C27.5116 20.9043 27.6678 20.7244 27.8033 20.5417ZM32.9332 29.0324L33.7788 28.1863C34.0351 27.9298 34.2012 27.7721 34.3363 27.6634C36.1896 28.9943 37.2629 29.8312 37.7014 30.2867C37.9646 30.5602 37.9237 31.0593 37.6949 31.3012C37.3782 31.6359 36.9668 32.0475 36.4619 32.5345C34.4559 34.5414 29.1708 33.0165 24.8998 28.7413C20.6274 24.4648 19.1033 19.1789 21.0942 17.1869C21.6477 16.6247 21.8231 16.4494 22.3567 15.9237C22.5567 15.7266 23.1016 15.6823 23.345 15.9227C23.8162 16.3882 24.6903 17.5074 25.9762 19.2986C25.9096 19.3813 25.8265 19.4747 25.7253 19.581C25.6511 19.6591 25.5892 19.7218 25.4539 19.8572C25.1187 20.1927 24.837 20.4746 24.6087 20.7029C23.1708 22.1406 24.3954 24.5877 26.7224 26.917C29.0478 29.2447 31.4958 30.4706 32.9332 29.0324ZM30.891 13.6251C35.6614 14.2033 39.4439 17.9858 40.0221 22.7562L37.8424 23.1195C37.4215 19.277 34.3702 16.2256 30.5277 15.8048L30.891 13.6251ZM30.1643 17.9863C33.0789 18.247 35.4003 20.5684 35.661 23.483L33.4743 23.8475C33.3815 21.8604 31.7869 20.2658 29.7998 20.173L30.1643 17.9863Z" fill="white"/>
<defs>
<filter id="filter0_d_198_906" x="0.0595703" y="0.165039" width="58" height="56.835" filterUnits="userSpaceOnUse" color-interpolation-filters="sRGB">
<feFlood flood-opacity="0" result="BackgroundImageFix"/>
<feColorMatrix in="SourceAlpha" type="matrix" values="0 0 0 0 0 0 0 0 0 0 0 0 0 0 0 0 0 0 127 0" result="hardAlpha"/>
<feOffset dy="4"/>
<feGaussianBlur stdDeviation="2"/>
<feColorMatrix type="matrix" values="0 0 0 0 0 0 0 0 0 0 0 0 0 0 0 0 0 0 0.25 0"/>
<feBlend mode="normal" in2="BackgroundImageFix" result="effect1_dropShadow_198_906"/>
<feBlend mode="normal" in="SourceGraphic" in2="effect1_dropShadow_198_906" result="shape"/>
</filter>
</defs>
</svg>
