<svg width="149" height="149" viewBox="0 0 149 149" fill="none" xmlns="http://www.w3.org/2000/svg">
<path fill-rule="evenodd" clip-rule="evenodd" d="M42.204 98.7223L48.8652 98.718L51.0705 98.7182L117.722 98.8171C117.497 98.1693 117.352 97.9663 117.136 97.4067L100.923 70.8052L70.4021 70.6593C69.494 71.8342 65.8745 77.9358 65.557 79.0738L96.4569 79.1006L101.084 86.8705C102.014 88.4607 103.253 89.6988 100.713 89.8745C100.342 89.9002 99.4737 89.8417 99.0414 89.8356C82.4874 89.5993 62.9894 90.2336 47.2905 89.6507C47.2249 88.3467 49.4902 85.0244 50.3194 83.7066C53.45 78.7309 74.073 44.9238 75.0832 44.0385C76.1043 45.0665 83.2932 57.1725 84.6863 59.4418L94.0653 59.465L74.6433 27.1562C73.2871 28.2166 72.6276 30.0882 71.7237 31.5644L63.6687 45.0021C60.4417 50.3661 31.851 97.6947 31.6827 98.6716L42.204 98.7223Z" fill="#D4B683" stroke="#D4B683" stroke-width="0.2" stroke-miterlimit="22.9256"/>
<path fill-rule="evenodd" clip-rule="evenodd" d="M74.5 1C115.093 1 148 33.907 148 74.5C148 115.093 115.093 148 74.5 148C33.907 148 1 115.093 1 74.5C1 33.907 33.907 1 74.5 1ZM74.5 5.80385C112.44 5.80385 143.196 36.56 143.196 74.5C143.196 112.44 112.44 143.196 74.5 143.196C36.56 143.196 5.80385 112.44 5.80385 74.5C5.80385 36.56 36.56 5.80385 74.5 5.80385Z" fill="#D4B683" stroke="#D4B683" stroke-width="0.0762" stroke-miterlimit="22.9256"/>
<path d="M36.2502 112.158C36.56 112.158 36.8697 112.124 37.1799 112.056V110.159H35.6127V108.61H39.1979V113.004C38.7467 113.234 38.2531 113.42 37.7175 113.561C37.1819 113.702 36.6082 113.772 35.9977 113.772C35.3074 113.772 34.6806 113.674 34.1187 113.477C33.5569 113.281 33.0806 112.987 32.6912 112.594C32.3015 112.201 32.0008 111.714 31.7883 111.133C31.576 110.552 31.4694 109.882 31.4694 109.122C31.4694 108.328 31.5825 107.627 31.8079 107.021C32.0339 106.414 32.3548 105.904 32.7709 105.49C33.1868 105.076 33.6873 104.764 34.2713 104.555C34.8557 104.345 35.5017 104.241 36.2102 104.241C36.83 104.241 37.3831 104.316 37.8701 104.465C38.357 104.615 38.7996 104.817 39.1979 105.074L38.6934 106.854C38.3215 106.607 37.9431 106.4 37.5579 106.233C37.173 106.066 36.7327 105.983 36.2367 105.983C35.8563 105.983 35.5065 106.041 35.1877 106.156C34.8692 106.271 34.5946 106.455 34.3647 106.707C34.1345 106.959 33.9549 107.281 33.8263 107.674C33.6982 108.067 33.634 108.546 33.634 109.109C33.634 109.665 33.6963 110.134 33.8201 110.518C33.9438 110.903 34.1207 111.217 34.3508 111.46C34.5811 111.703 34.8579 111.881 35.1808 111.991C35.5045 112.103 35.8605 112.158 36.2502 112.158ZM48.2325 108.943H52.3623V110.313H48.2325V108.943ZM61.5294 104.395H65.1151C66.2478 104.395 67.1291 104.642 67.7575 105.138C68.3859 105.633 68.7003 106.376 68.7003 107.367C68.7003 108.357 68.3684 109.101 67.7042 109.596C67.0407 110.091 66.1243 110.339 64.9555 110.339H63.6675V113.619H61.5294V104.395ZM63.6675 108.699H64.9555C66.027 108.699 66.5626 108.268 66.5626 107.406C66.5626 106.953 66.4315 106.622 66.1705 106.413C65.9094 106.203 65.5044 106.099 64.9555 106.099H63.6675V108.699ZM84.9317 113.619H82.661L82.1034 111.748H78.9032L78.3456 113.619H76.1546L79.3015 104.395H81.8513L84.9317 113.619ZM79.3679 110.198H81.6388L80.5103 106.38L79.3679 110.198ZM97.0472 109.955H95.812V113.619H93.6874V104.395H97.5913C98.6627 104.395 99.4945 104.626 100.088 105.087C100.681 105.548 100.978 106.24 100.978 107.162C100.978 107.811 100.827 108.345 100.526 108.763C100.225 109.182 99.7827 109.493 99.1984 109.698L101.389 113.619H99.0122L97.0472 109.955ZM97.3657 108.469C97.8706 108.469 98.2445 108.374 98.4877 108.187C98.7313 107.999 98.853 107.7 98.853 107.29C98.853 106.871 98.7313 106.568 98.4877 106.38C98.2445 106.192 97.8706 106.099 97.3657 106.099H95.812V108.469H97.3657ZM110.556 104.395H112.721V108.2L115.669 104.395H118.165L115.205 107.854L118.418 113.619H116.041L113.81 109.481L112.721 110.749V113.619H110.556V104.395Z" fill="#D4B683" stroke="#D4B683" stroke-width="0.2" stroke-miterlimit="22.9256"/>
</svg>
