<svg width="220" height="165" viewBox="0 0 220 165" fill="none" xmlns="http://www.w3.org/2000/svg">
<path d="M143.502 72.2805C143.502 71.7637 143.281 71.2469 142.838 70.8039C142.395 70.3609 141.804 69.9179 141.14 69.5488C140.475 69.1796 139.663 68.8843 138.777 68.6628C137.891 68.4414 137.005 68.3675 136.193 68.3675C134.052 68.3675 132.428 68.6628 131.32 69.1796C131.173 69.2535 131.542 69.475 132.354 69.9179C133.166 70.3609 134.126 70.8777 135.307 71.3945C136.488 71.9114 137.67 72.4282 138.851 72.7973C140.032 73.2403 141.066 73.4618 141.804 73.4618C142.838 73.4618 143.502 73.0926 143.502 72.2805ZM148.596 71.7637C148.596 73.7571 147.932 75.3075 146.603 76.4888C145.274 77.6701 143.281 78.1869 140.771 78.1869C137.005 78.1869 132.502 76.4888 127.038 73.1665C125.488 74.3477 123.79 76.4888 121.87 79.5158L116.333 88.3754C116.776 88.3016 117.219 88.2278 117.662 88.0801C118.105 88.0063 118.548 87.9325 118.991 87.9325C120.541 87.9325 121.944 88.3016 123.273 88.9661C124.528 89.6306 125.266 90.5165 125.488 91.5501C124.38 91.2548 123.199 91.181 121.944 91.181C117.883 91.181 114.856 92.0669 112.937 93.9127L102.822 110.008C99.4257 115.397 94.5529 118.055 88.3512 118.055C85.7672 118.055 83.6999 117.464 82.1495 116.357C80.5991 115.176 79.8608 113.699 79.8608 111.853C79.8608 111.041 80.0084 110.303 80.3776 109.417C80.8206 110.598 81.6327 111.558 82.5925 112.223C83.6261 112.887 84.8812 113.256 86.4317 113.256C87.9821 113.256 89.5325 112.592 91.0829 111.263C92.7072 109.934 94.4053 107.867 96.251 105.135L102.527 95.4631C101.419 95.8323 100.238 96.0538 99.1304 96.0538C95.8819 96.0538 93.8885 94.7987 93.224 92.2884C93.8146 92.3623 94.3315 92.4361 94.9221 92.5837C95.5128 92.6576 96.1034 92.7314 96.694 92.7314C98.7613 92.7314 100.459 92.5099 101.936 92.1408C103.413 91.7716 104.668 91.0333 105.701 90.0735L113.453 78.2607C114.709 76.3412 115.816 74.7169 116.85 73.4618C117.883 72.2067 118.695 71.3207 119.434 70.7301C115.152 69.2535 110.353 68.5152 104.963 68.5152C102.822 68.5152 100.829 68.6628 98.9828 69.032C97.137 69.4011 95.5127 69.8441 94.11 70.5086C92.781 71.1731 91.6736 71.9852 90.8615 72.8711C90.0493 73.8309 89.6802 74.8646 89.6802 76.0458C89.6802 77.6701 90.3447 78.999 91.5998 79.885C92.8549 80.771 94.7744 81.2139 97.2847 81.2139C99.1304 81.2139 101.05 80.9186 103.043 80.4018C100.902 84.3148 97.4323 86.3082 92.5595 86.3082C90.7876 86.3082 89.1634 86.0867 87.6868 85.5699C86.2102 85.1269 84.8812 84.4625 83.7738 83.5765C82.6663 82.7644 81.7804 81.7307 81.1159 80.5495C80.4514 79.3682 80.1561 78.0392 80.1561 76.5626C80.1561 74.2001 80.8206 72.1328 82.2233 70.4348C83.6261 68.7367 85.4719 67.3339 87.6868 66.2264C89.9755 65.119 92.5595 64.3069 95.5866 63.7901C98.5398 63.2732 101.641 63.0518 104.815 63.0518C106.661 63.0518 108.507 63.1256 110.426 63.3471C112.272 63.4947 114.118 63.7162 115.89 64.0115C117.662 64.3069 119.286 64.676 120.836 65.119C122.387 65.562 123.79 66.005 124.897 66.5218C125.488 66.0788 126.226 65.6358 127.186 65.2667C128.146 64.8237 129.179 64.5284 130.213 64.1592C131.246 63.8639 132.354 63.6424 133.388 63.4209C134.421 63.2732 135.381 63.1256 136.193 63.1256C138.26 63.1256 140.106 63.4209 141.656 63.9377C143.207 64.4545 144.536 65.1928 145.496 66.005C146.529 66.8171 147.268 67.7769 147.784 68.7367C148.375 69.8441 148.596 70.8039 148.596 71.7637Z" fill="#D4B683"/>
<path fill-rule="evenodd" clip-rule="evenodd" d="M51.8053 91.1804L51.3623 93.3215C50.8455 92.2879 50.5502 92.214 51.4361 90.9589C50.9932 88.5964 51.1408 78.0387 43.0195 79.5153C40.2878 80.0321 38.5897 82.6161 37.9991 84.9049C37.187 88.0057 38.5897 90.6636 39.9187 92.2879C43.241 90.1468 44.57 86.7506 42.4289 82.0993C51.7315 77.5957 51.7315 101.147 36.4487 106.537C42.0597 95.3887 37.9991 86.8983 25.8171 82.5423C28.1797 80.6227 30.8376 79.8844 32.0189 76.9312C37.0393 64.8231 17.4744 61.2055 18.4341 76.7836C24.7835 75.3808 23.7499 74.3472 25.7433 68.7361C32.6833 68.5146 32.3142 77.3742 24.9312 80.2536C18.8033 82.69 13.6352 82.247 8.4671 86.0862C-6.15123 96.8653 -1.1308 121.525 18.065 126.84C23.8976 128.465 21.092 127.579 24.0452 131.935C25.6695 134.371 27.3676 135.848 29.7301 137.324C37.8514 142.345 55.3491 144.56 58.893 152.385C56.4566 156.372 54.094 155.117 55.3491 162.795C58.007 162.353 60.2957 160.433 61.1079 158.218C64.504 149.063 54.1679 144.264 46.1204 141.754C50.3287 139.539 58.5976 134.888 52.3959 127.209C50.8455 125.29 46.8587 123.518 43.1672 125.216C39.1804 127.062 38.5897 130.31 38.5897 134.445C45.0868 133.19 44.9391 130.089 45.8989 128.022C46.3419 126.988 46.268 127.209 46.7849 126.545C55.7921 128.391 53.7249 140.573 41.5429 139.318C37.8514 138.948 33.8646 137.398 30.9114 135.478C28.3274 133.854 25.1527 130.679 24.562 127.726C31.4282 127.505 37.187 125.216 41.0999 121.82C46.7849 116.947 46.268 116.43 50.624 109.121L55.2015 108.973C55.5706 131.344 70.8534 144.929 89.5324 152.607C93.8884 154.379 105.037 158.07 110.057 158.07C121.722 158.07 140.844 148.251 146.898 143.452C152.583 138.948 155.315 137.029 159.449 129.867C163.289 123.296 164.839 117.833 164.913 109.121C172.296 108.9 168.383 109.343 173.256 115.987C178.202 122.853 185.881 127.431 195.626 127.8C194.519 133.19 186.397 138.284 179.31 139.244C166.685 140.942 164.248 128.391 173.477 126.545C173.625 126.693 173.772 126.766 173.772 127.062C173.846 127.357 173.994 127.431 174.068 127.505C175.323 130.089 175.028 133.116 181.672 134.445C181.672 117.39 161 125.068 166.759 136.217C168.53 139.539 170.819 139.761 174.068 141.754C168.9 143.378 162.772 145.962 160.483 149.211C156.496 154.97 158.933 161.688 164.839 162.722C166.094 155.043 163.732 156.298 161.295 152.312C165.725 142.345 187.505 143.674 195.848 132.23C198.653 128.391 196.217 128.243 201.606 126.84C221.836 121.525 225.453 96.2747 212.09 86.2338C204.929 80.8442 191.418 82.0255 189.794 75.0855C188.834 71.0987 190.384 68.367 194.371 68.5884C196.291 73.6827 195.257 75.2332 201.68 76.6359C202.492 64.7493 192.599 65.6353 190.015 67.481C187.505 69.2529 186.693 73.0183 188.095 76.7836C189.129 79.5153 192.008 80.4012 194.297 82.3208C182.263 86.8245 177.833 94.6504 183.666 106.316C168.604 100.852 167.792 77.9649 177.685 81.8778C175.766 85.9385 176.356 89.63 180.196 92.0664C186.693 83.9451 176.209 73.9042 170.598 82.0255C168.9 84.4619 169.195 87.7104 168.604 90.6636C169.564 91.6234 169.269 90.6636 169.49 92.8785L169.343 94.0598C167.275 93.3215 169.712 94.4289 168.53 92.9523L168.161 90.9589C164.913 85.5693 164.47 76.1929 164.765 69.1791C165.134 59.5812 166.316 55.2252 169.195 47.5469C176.43 48.802 181.377 47.1039 183.296 41.6405C173.772 38.9088 172.886 40.8284 167.718 46.1441C166.906 39.7948 164.987 35.6603 159.154 34.479C157.308 34.7743 158.416 34.1837 157.308 35.2173L157.751 38.392C158.12 42.2312 159.892 43.9292 162.476 45.332L165.208 46.9563C163.805 68.8838 154.134 94.5028 184.33 109.121C190.163 111.927 198.653 112.665 196.66 125.364C183.592 126.323 175.766 117.981 171.041 106.759L162.993 106.685C161.664 113.551 163.732 116.947 158.268 127.283C155.61 132.378 150.516 137.767 146.381 140.942C139.294 146.331 122.091 155.708 109.909 155.708C95.0697 155.708 69.5245 142.418 61.6247 127.283C56.8257 118.055 58.6715 116.43 56.8257 106.611L48.7783 106.685C45.7512 113.772 44.6438 116.283 39.6972 119.9C35.2674 123.149 30.3208 125.954 23.1593 125.364C20.1322 106.389 39.1065 115.175 51.2885 96.2009C55.2015 90.073 57.3425 81.8778 57.2687 73.0921C57.1949 63.7157 54.7585 54.8561 54.6108 46.5871C58.7453 45.1105 61.7723 43.0433 61.9938 38.392L62.363 35.2173C61.4032 34.2575 62.9536 34.9958 60.6649 34.479C54.8323 35.8818 52.7651 39.6471 52.0268 46.1441C46.711 40.5331 46.0466 39.1303 36.4487 41.6405C37.4823 44.5937 38.8112 45.9226 41.6168 47.1778C45.0868 48.802 47.0063 47.7684 49.0736 47.9161C56.3828 48.6544 56.8257 82.0993 51.8053 91.1804ZM55.7921 43.8554L54.3893 44.5937L55.2015 42.4526C55.9398 39.4256 57.4902 37.949 60.5911 37.1369C59.7789 41.0499 58.8191 42.5265 55.7921 43.8554ZM164.839 42.5265L165.503 44.8152L164.175 43.8554C161.295 42.5265 160.114 40.976 159.523 37.1369C162.698 38.0228 164.101 39.4256 164.839 42.5265ZM48.7044 45.9965C44.7914 46.5133 41.2476 46.0703 40.4355 42.9695C44.5699 42.6741 47.154 43.2648 48.7044 45.9965ZM171.336 45.9965C172.886 43.2648 175.471 42.6741 179.679 42.9695C178.867 46.0703 175.249 46.5133 171.336 45.9965ZM20.7229 73.6827C20.649 71.3202 21.3135 70.8772 23.1593 69.7697C22.6425 72.7968 22.6424 72.1323 20.7229 73.6827ZM199.318 73.6827C197.398 72.2061 197.398 72.7229 196.881 69.7697C198.727 70.951 199.318 71.3202 199.318 73.6827ZM39.8448 86.3815C39.771 83.9451 40.7308 84.3881 40.7308 84.3881C41.6906 86.4553 41.2476 86.4553 40.8785 88.5964C40.1402 87.7104 39.9925 90.2206 39.8448 86.3815ZM180.196 86.3815C180.196 89.9991 179.605 88.0057 179.088 88.6702C178.719 86.5291 178.276 86.5291 179.236 84.4619C179.236 84.4619 180.196 83.5759 180.196 86.3815ZM18.1388 94.4289C17.7697 94.9458 17.9173 94.9458 17.2529 95.5364C16.5146 96.2009 16.8837 95.8317 15.9978 96.2747C10.1652 109.859 21.7565 111.336 24.3405 112.591C22.1995 116.061 20.5752 118.94 21.092 125.216C11.9371 124.699 3.96347 115.692 2.5607 107.202C0.641123 95.9794 8.54093 85.0525 15.9978 85.3479C16.6622 84.6834 15.7024 84.7572 17.9912 84.4619C32.5357 83.3544 42.2812 94.4289 33.9384 106.389C31.0591 110.598 23.0116 112.222 18.5818 107.423C16.7361 105.43 15.4809 101.96 17.179 98.7111C17.5482 98.0466 19.0986 96.4223 19.8369 96.0532C21.9042 94.9457 22.421 95.2411 24.0452 96.0532C25.3003 97.5298 19.0986 101.221 23.2331 106.98C31.6497 103.215 27.4414 89.1132 18.1388 94.4289ZM202.271 84.3881L204.117 85.3479C208.989 85.274 213.05 89.63 214.822 92.657C217.406 96.9392 218.661 101.96 217.48 107.645C215.782 116.135 208.03 124.552 198.948 125.142C199.539 118.128 198.21 116.799 195.626 112.517C199.539 110.598 201.902 111.41 204.19 107.497C206.184 104.027 206.258 100.704 204.338 97.3083C203.526 96.3485 202.64 95.3887 201.754 94.4289C192.082 88.4487 188.317 105.356 197.472 106.832C198.727 99.8924 198.284 101.517 196.438 97.8251C195.921 96.7915 196.291 97.6775 196.069 96.7177V95.9794C201.828 93.1738 206.701 102.255 201.163 107.645C195.995 112.591 188.465 109.638 185.881 105.873C177.759 94.0598 188.095 83.2806 202.271 84.3881ZM24.0452 101.147C24.1929 100.483 24.7097 100.04 25.0788 99.5232C25.0788 99.597 26.4078 98.1204 25.448 101.738C25.2265 102.476 24.7835 102.919 24.4144 103.436C24.4144 103.436 23.1593 104.544 24.0452 101.147ZM196.069 101.664C196.586 105.282 195.921 102.772 195.552 103.436C195.109 102.772 194.519 102.107 194.445 101.295C193.854 97.6775 194.592 100.114 194.888 99.5232C195.478 100.262 195.995 100.778 196.069 101.664ZM40.657 131.492C41.3953 128.686 41.3214 128.686 43.3887 127.726C42.9457 130.679 42.8719 130.606 40.657 131.492ZM176.578 127.726C178.645 128.686 178.645 128.686 179.383 131.492C177.169 130.679 177.021 130.679 176.578 127.726ZM57.0472 159.547C57.2687 156.52 57.2687 156.815 59.2621 155.634C58.8191 158.883 58.5976 158.144 57.0472 159.547ZM160.778 155.56C161.517 156.003 161.517 155.265 162.476 156.815C163.215 157.997 162.919 158.144 162.993 159.547C161.517 158.513 161 158.218 160.778 155.56Z" fill="#C5AA7B"/>
<path fill-rule="evenodd" clip-rule="evenodd" d="M34.8982 57.0709C38.442 58.1784 41.0999 58.9167 44.3484 57.4401C47.8184 55.8896 48.7782 54.3392 50.4025 51.3122C43.0933 47.9898 37.2608 51.1645 34.8982 57.0709ZM38.2944 55.6681C40.0663 52.9364 42.355 52.0505 47.0063 52.1981C45.0867 55.3728 42.8718 56.7018 38.2944 55.6681Z" fill="#D4B683"/>
<path fill-rule="evenodd" clip-rule="evenodd" d="M169.564 51.3129C172.517 57.0716 176.873 59.6557 185.142 57.0716C182.632 50.5746 176.947 48.5812 169.564 51.3129ZM181.746 55.7427C177.169 56.5548 174.954 55.4474 172.96 52.2727C177.759 52.0512 179.974 53.011 181.746 55.7427Z" fill="#D4B683"/>
<path fill-rule="evenodd" clip-rule="evenodd" d="M60.1482 145.888C61.4033 151.426 69.3769 154.822 74.4712 151.13C72.5516 145.815 67.0144 143.969 60.1482 145.888ZM63.3967 147.143C67.8265 146.996 68.8601 147.291 71.0012 149.801C66.3499 152.09 63.9873 147.586 63.3967 147.143Z" fill="#D4B683"/>
<path fill-rule="evenodd" clip-rule="evenodd" d="M145.569 151.057C151.107 155.118 158.563 151.057 159.819 145.815C153.174 144.043 147.341 145.963 145.569 151.057ZM148.818 150.171C150.368 147.439 152.509 146.996 156.718 147.144C154.577 150.023 153.026 150.836 148.818 150.171Z" fill="#D4B683"/>
<path fill-rule="evenodd" clip-rule="evenodd" d="M168.9 41.2718C174.437 40.3858 176.8 34.0365 173.403 28.3516C168.014 30.345 166.537 34.7748 168.9 41.2718ZM172.591 31.5263C173.329 36.3252 172.444 36.0299 170.302 38.4663C169.269 35.7346 169.564 36.1775 170.155 33.4458L172.591 31.5263Z" fill="#D4B683"/>
<path fill-rule="evenodd" clip-rule="evenodd" d="M51.1407 41.3455C53.4295 34.7747 52.1005 30.4187 46.5633 28.4253C43.3886 33.8887 45.6773 40.5334 51.1407 41.3455ZM49.6641 38.4662C47.5231 36.0298 46.7109 36.3251 47.5231 31.3785L49.8856 33.3719C50.4024 36.1774 50.6239 35.7345 49.6641 38.4662Z" fill="#D4B683"/>
<path fill-rule="evenodd" clip-rule="evenodd" d="M70.189 164.272C70.4104 161.245 70.189 158.513 68.7862 156.372C67.6787 154.6 65.833 152.828 63.3228 153.419C62.4368 159.473 65.4638 163.017 70.189 164.272ZM65.4638 156.446C67.0143 157.701 67.6787 158.07 68.1217 160.95C66.276 159.99 65.833 159.252 65.4638 156.446Z" fill="#D4B683"/>
<path fill-rule="evenodd" clip-rule="evenodd" d="M149.852 164.273C154.872 162.87 157.382 159.621 156.718 153.198C151.328 153.272 149.409 158.366 149.852 164.273ZM152.657 160.95C152.583 160.877 150.959 161.246 152.509 158.44C153.248 157.037 153.691 156.89 154.798 156.594C153.986 159.105 153.912 159.326 152.657 160.95Z" fill="#D4B683"/>
<path fill-rule="evenodd" clip-rule="evenodd" d="M52.6913 142.05C54.6109 143.231 56.5304 144.265 59.4836 143.674C60.0743 143.526 62.4368 142.419 62.6583 142.271C65.0947 140.573 63.6181 141.902 64.4302 139.761C63.1013 139.392 55.4968 135.331 52.6913 142.05ZM57.3426 140.426C57.7117 140.204 57.0473 140.056 58.9668 139.909C60.3696 139.761 59.4836 139.909 60.6649 140.278C61.1817 142.05 60.9602 140.647 60.1481 141.238L56.3828 141.09L57.3426 140.426Z" fill="#D4B683"/>
<path fill-rule="evenodd" clip-rule="evenodd" d="M10.3867 117.538C15.6286 120.491 19.7631 117.907 21.6089 113.92C17.0314 110.82 11.8633 113.625 10.3867 117.538ZM17.8436 114.954C17.4006 115.545 17.4744 116.283 15.8501 116.504C12.6016 117.021 14.4474 116.209 13.8567 115.692L17.8436 114.954Z" fill="#D4B683"/>
<path fill-rule="evenodd" clip-rule="evenodd" d="M47.3017 78.7038V77.0795C46.1204 72.6497 43.4625 70.5825 38.2944 70.8778C39.1804 76.858 41.1 78.1869 47.3017 78.7038ZM41.9121 73.4618C44.3485 74.1263 43.9055 73.7572 44.6438 76.1935L41.4691 73.9786L40.5832 72.8712L41.9121 73.4618Z" fill="#D4B683"/>
<path fill-rule="evenodd" clip-rule="evenodd" d="M45.3083 64.307C46.4157 65.636 45.8251 65.193 47.5232 65.5622C51.067 63.7164 52.396 61.3539 51.7315 55.6689C46.8587 56.0381 45.7513 59.2128 45.3083 64.307ZM48.7045 62.166L47.2279 63.2734L48.04 61.0585L49.6643 58.4745L48.7045 62.166Z" fill="#D4B683"/>
<path fill-rule="evenodd" clip-rule="evenodd" d="M172.517 78.6296C178.424 78.4081 181.746 76.1194 181.672 70.8775C175.692 70.213 173.256 73.3877 172.517 78.6296ZM178.055 73.3877L179.31 72.7232C179.162 75.0858 179.457 73.3139 178.571 73.9783C177.464 75.3073 177.538 75.4549 175.397 76.1194C176.135 73.7568 175.692 74.126 178.055 73.3877Z" fill="#D4B683"/>
<path fill-rule="evenodd" clip-rule="evenodd" d="M172.517 65.5622C174.142 65.193 173.699 65.5622 174.732 64.307C174.289 59.2128 173.182 56.0381 168.383 55.6689C167.645 60.837 169.047 63.8641 172.517 65.5622ZM172.074 60.9847L172.739 63.1996L171.41 62.0922L170.45 58.4745L172.074 60.9847Z" fill="#D4B683"/>
<path fill-rule="evenodd" clip-rule="evenodd" d="M167.202 82.0257C171.927 79.8108 173.625 74.1259 170.081 70.582C165.725 72.8708 165.356 76.7837 167.202 82.0257ZM168.678 74.495L170.155 73.9044L169.564 76.8576L168.161 78.4818L168.678 74.495Z" fill="#D4B683"/>
<path fill-rule="evenodd" clip-rule="evenodd" d="M35.7105 120.196C39.402 118.72 42.9458 115.176 40.0664 109.343C35.7105 110.082 33.7909 115.25 35.7105 120.196ZM37.4824 116.505C36.3749 114.364 37.3347 113.625 38.8113 112.444C38.7375 115.028 39.0328 114.585 37.4824 116.505Z" fill="#D4B683"/>
<path fill-rule="evenodd" clip-rule="evenodd" d="M48.1877 76.931L48.7045 77.8908C49.6643 80.1795 50.5502 80.9917 52.7651 82.0253C54.6109 76.931 54.0941 71.9106 49.1475 70.5078C48.6307 72.5751 48.1138 74.4208 48.1877 76.931ZM51.3624 74.4946L51.5839 78.6291L50.5502 76.8572L50.1073 73.8302L51.3624 74.4946Z" fill="#D4B683"/>
<path fill-rule="evenodd" clip-rule="evenodd" d="M48.6306 147.07C45.2344 151.5 47.4493 156.742 51.2146 158.292C54.537 153.42 52.3959 149.211 48.6306 147.07ZM50.4763 154.97C48.9997 153.198 48.9259 153.567 49.2212 150.466C50.9193 152.165 50.6978 152.238 50.4763 154.97Z" fill="#D4B683"/>
<path fill-rule="evenodd" clip-rule="evenodd" d="M208.694 103.584C212.459 102.034 215.043 96.0533 211.278 92.3618C207.956 94.2076 205.224 98.785 208.694 103.584ZM210.097 100.335C209.432 99.3757 209.432 101.295 209.358 98.2682C209.358 97.8991 209.801 96.201 209.875 95.8318C210.835 97.1608 211.352 96.2748 210.097 100.335Z" fill="#D4B683"/>
<path fill-rule="evenodd" clip-rule="evenodd" d="M168.826 158.292C172.665 156.816 174.806 151.574 171.41 147.07C167.571 149.138 165.503 153.42 168.826 158.292ZM169.49 154.97C169.343 152.238 169.047 152.091 170.745 150.466C171.041 153.567 171.041 153.198 169.49 154.97Z" fill="#D4B683"/>
<path fill-rule="evenodd" clip-rule="evenodd" d="M25.7433 123.887C30.8376 123.075 32.831 118.941 31.502 113.33C26.4816 114.659 25.1527 117.833 25.7433 123.887ZM28.7703 117.021L30.2469 116.504L29.7301 117.907C29.1395 120.122 29.5825 119.457 27.5891 120.786L28.7703 117.021Z" fill="#D4B683"/>
<path fill-rule="evenodd" clip-rule="evenodd" d="M194.223 123.888C194.888 118.055 193.337 114.659 188.465 113.404C186.988 119.015 189.129 123.076 194.223 123.888ZM191.196 116.948L192.378 120.713C190.458 119.384 190.827 120.049 190.236 117.834L189.72 116.283L191.196 116.948Z" fill="#D4B683"/>
<path fill-rule="evenodd" clip-rule="evenodd" d="M214.305 106.316C214.305 104.839 214.6 105.652 213.641 104.766C208.399 104.692 205.076 106.316 204.633 111.115C209.801 111.706 213.124 110.82 214.305 106.316ZM209.949 107.35L212.238 106.611L210.983 107.94C209.654 109.269 209.654 109.195 207.513 108.974L209.949 107.35Z" fill="#D4B683"/>
<path fill-rule="evenodd" clip-rule="evenodd" d="M5.66149 106.39C6.84277 110.525 10.0175 111.706 15.407 111.115C14.9641 106.39 11.5679 104.618 6.39979 104.766C5.36617 105.726 5.66149 104.84 5.66149 106.39ZM10.0175 107.35L12.4538 108.974C10.3866 109.196 10.3128 109.343 9.13149 107.867L7.80255 106.612L10.0175 107.35Z" fill="#D4B683"/>
<path fill-rule="evenodd" clip-rule="evenodd" d="M155.61 139.761C156.422 141.828 157.973 143.379 161.074 143.748C163.879 144.117 165.577 143.157 167.349 142.05C165.208 137.177 160.188 137.841 155.61 139.761ZM162.624 140.425L163.658 141.09C161.59 142.05 161.664 141.681 159.818 141.238C159.006 140.647 158.785 142.123 159.228 140.278C161.886 139.466 160.483 139.466 162.624 140.425Z" fill="#D4B683"/>
<path fill-rule="evenodd" clip-rule="evenodd" d="M11.2727 103.806C14.8903 99.5975 12.2325 93.5435 8.24564 92.436C6.10457 98.0471 7.28584 101.443 11.2727 103.806ZM10.239 95.8322C11.3465 102.477 10.7559 99.2284 10.0176 100.336L9.27925 98.1209C9.13159 93.765 8.9101 97.5303 10.239 95.8322Z" fill="#D4B683"/>
<path fill-rule="evenodd" clip-rule="evenodd" d="M184.256 120.196C186.397 114.807 184.109 110.524 179.605 109.048C178.867 115.84 178.867 117.834 184.256 120.196ZM181.155 112.444C181.672 112.813 182.263 112.887 182.853 114.29L182.558 116.431C180.934 114.659 181.303 115.102 181.155 112.444Z" fill="#D4B683"/>
<path fill-rule="evenodd" clip-rule="evenodd" d="M198.505 113.92C200.942 119.458 203.895 118.719 209.654 117.981C208.62 113.773 202.861 110.746 198.505 113.92ZM206.184 115.692C206.184 115.692 206.848 117.39 203.6 116.431C201.606 115.84 202.271 115.175 202.123 114.659L206.184 115.692Z" fill="#D4B683"/>
<path fill-rule="evenodd" clip-rule="evenodd" d="M201.975 93.4701C202.566 93.9131 202.788 93.9869 203.6 94.7252C203.674 94.7991 203.821 94.9467 203.969 95.0206L204.486 95.6112C204.559 95.685 204.633 95.8327 204.707 95.9065C206.405 96.3495 206.331 95.9065 206.774 94.2084C207.07 93.101 206.996 91.4767 206.774 90.2954C206.258 87.7852 205.076 86.8254 203.378 85.8656L201.68 85.5703C201.311 88.6712 201.311 90.7384 201.975 93.4701ZM203.304 89.0403C204.781 90.1478 205.445 90.5169 204.116 92.7318L203.304 89.0403Z" fill="#D4B683"/>
<path fill-rule="evenodd" clip-rule="evenodd" d="M14.8903 96.5707C15.8501 94.8726 16.7361 94.3558 17.8435 93.396C19.3939 89.3353 18.2127 89.2615 18.508 85.7915L16.5884 85.9392C15.1118 86.8251 14.0043 87.4896 13.3399 89.8522C12.5277 92.8792 13.0446 94.7249 14.8903 96.5707ZM15.7024 92.7315C14.595 90.6643 15.1856 90.2213 16.7361 89.1139C16.7361 91.6979 16.9575 90.8119 15.7024 92.7315Z" fill="#D4B683"/>
<path fill-rule="evenodd" clip-rule="evenodd" d="M30.9114 82.321C36.4487 83.4285 38.8112 82.2472 40.3617 77.8174C35.2674 77.0053 32.0189 77.5959 30.9114 82.321ZM34.2338 79.5893L37.0393 79.4416L35.3412 80.6968L34.0123 81.2136L34.2338 79.5893Z" fill="#D4B683"/>
<path fill-rule="evenodd" clip-rule="evenodd" d="M179.605 77.8175C181.229 82.2473 183.592 83.5024 189.129 82.3211C187.948 77.6698 184.921 77.0053 179.605 77.8175ZM185.659 79.5894L186.102 81.2875L184.552 80.6968C183.001 79.9585 183.961 81.8043 183.223 79.3679L185.659 79.5894Z" fill="#D4B683"/>
<path fill-rule="evenodd" clip-rule="evenodd" d="M20.5014 92.1412C23.5284 92.3627 26.8508 91.9197 27.9582 89.1141C29.361 85.5703 28.1059 87.3422 27.8844 86.7516C23.3808 85.9395 20.4276 87.7852 20.5014 92.1412ZM23.2331 90.2216C23.8976 87.7114 21.9042 89.5571 25.3742 88.3758C23.6761 90.7384 27.3676 89.3356 23.2331 90.2216Z" fill="#D4B683"/>
<path fill-rule="evenodd" clip-rule="evenodd" d="M27.3676 92.0669C27.6629 96.9397 28.9919 98.8593 34.0123 99.3022C34.3815 93.9865 31.8712 92.5837 27.3676 92.0669ZM29.6563 94.7986C31.8712 95.6107 31.3544 94.2818 31.4283 96.6444C28.1797 95.3154 30.8376 96.1275 29.6563 94.7986Z" fill="#D4B683"/>
<path fill-rule="evenodd" clip-rule="evenodd" d="M186.028 99.228C190.975 98.785 192.23 97.1608 192.747 91.9927C187.874 92.6571 185.733 93.9861 186.028 99.228ZM188.612 96.644C188.169 93.5431 189.129 95.2412 190.384 94.7244C189.498 96.201 190.015 96.0533 188.612 96.644Z" fill="#D4B683"/>
<path fill-rule="evenodd" clip-rule="evenodd" d="M198.875 92.4357C199.613 91.6236 199.022 92.2881 199.613 90.7376C198.284 87.4153 196.143 86.0863 192.156 86.8246C192.082 86.9723 192.008 87.0461 192.008 87.2676C192.008 87.4891 191.861 87.6368 191.935 87.7106C192.008 88.9657 191.787 88.0798 192.23 89.1134C193.337 91.8451 196.291 92.1404 198.875 92.4357ZM194.74 88.5227C197.693 89.4825 196.217 87.6368 196.734 90.147C193.485 89.3349 195.995 90.147 194.74 88.5227Z" fill="#D4B683"/>
<path fill-rule="evenodd" clip-rule="evenodd" d="M51.8053 91.181L51.4362 90.9595C50.4764 92.2146 50.7717 92.2884 51.3624 93.322L51.8053 91.181Z" fill="#D4B683"/>
<path fill-rule="evenodd" clip-rule="evenodd" d="M172.517 65.5622L173.92 66.3744L174.658 64.3071C173.699 65.4884 174.142 65.1931 172.517 65.5622Z" fill="#D4B683"/>
<path fill-rule="evenodd" clip-rule="evenodd" d="M47.5232 65.5622C45.8251 65.1931 46.4157 65.6361 45.3083 64.3071L45.8989 66.3005L47.5232 65.5622Z" fill="#D4B683"/>
<path fill-rule="evenodd" clip-rule="evenodd" d="M51.8053 91.181L51.3623 93.3221C50.8455 92.2884 50.5502 92.2146 51.4361 90.9595C50.9932 88.597 51.1408 78.0393 43.0195 79.5159C40.2878 80.0327 38.5897 82.6167 37.9991 84.9055C37.187 88.0063 38.5897 90.6642 39.9187 92.2884C43.241 90.1474 44.57 86.7512 42.4289 82.0999C51.7315 77.5963 51.7315 101.148 36.4487 106.538C42.0597 95.3893 37.9991 86.8989 25.8171 82.5429C28.1797 80.6233 30.8376 79.885 32.0189 76.9318C37.0393 64.8237 17.4744 61.206 18.4341 76.7842C24.7835 75.3814 23.7499 74.3478 25.7433 68.7367C32.6833 68.5152 32.3142 77.3748 24.9312 80.2542C18.8033 82.6906 13.6352 82.2476 8.4671 86.0867C-6.15123 96.8659 -1.1308 121.525 18.065 126.841C23.8976 128.465 21.092 127.579 24.0452 131.935C25.6695 134.372 27.3676 135.848 29.7301 137.325C37.8514 142.345 55.3491 144.56 58.893 152.386C56.4566 156.373 54.094 155.118 55.3491 162.796C58.007 162.353 60.2957 160.434 61.1079 158.219C64.504 149.064 54.1679 144.265 46.1204 141.755C50.3287 139.54 58.5976 134.888 52.3959 127.21C50.8455 125.29 46.8587 123.519 43.1672 125.217C39.1804 127.062 38.5897 130.311 38.5897 134.445C45.0868 133.19 44.9391 130.089 45.8989 128.022C46.3419 126.989 46.268 127.21 46.7849 126.546C55.7921 128.391 53.7249 140.573 41.5429 139.318C37.8514 138.949 33.8646 137.399 30.9114 135.479C28.3274 133.855 25.1527 130.68 24.562 127.727C31.4282 127.505 37.187 125.217 41.0999 121.82C46.7849 116.948 46.268 116.431 50.624 109.122L55.2015 108.974C55.5706 131.344 70.8534 144.929 89.5324 152.608C93.8884 154.379 105.037 158.071 110.057 158.071C121.722 158.071 140.844 148.252 146.898 143.453C152.583 138.949 155.315 137.029 159.449 129.868C163.289 123.297 164.839 117.834 164.913 109.122C172.296 108.9 168.383 109.343 173.256 115.988C178.202 122.854 185.881 127.432 195.626 127.801C194.519 133.19 186.397 138.285 179.31 139.244C166.685 140.942 164.248 128.391 173.477 126.546C173.625 126.693 173.772 126.767 173.772 127.062C173.846 127.358 173.994 127.432 174.068 127.505C175.323 130.089 175.028 133.116 181.672 134.445C181.672 117.391 161 125.069 166.759 136.217C168.53 139.54 170.819 139.761 174.068 141.755C168.9 143.379 162.772 145.963 160.483 149.211C156.496 154.97 158.933 161.689 164.839 162.722C166.094 155.044 163.732 156.299 161.295 152.312C165.725 142.345 187.505 143.674 195.848 132.23C198.653 128.391 196.217 128.244 201.606 126.841C221.836 121.525 225.453 96.2753 212.09 86.2344C204.929 80.8448 191.418 82.0261 189.794 75.0861C188.834 71.0992 190.384 68.3675 194.371 68.589C196.291 73.6833 195.257 75.2337 201.68 76.6365C202.492 64.7499 192.599 65.6358 190.015 67.4816C187.505 69.2535 186.693 73.0188 188.095 76.7842C189.129 79.5159 192.008 80.4018 194.297 82.3214C182.263 86.825 177.833 94.651 183.666 106.316C168.604 100.853 167.792 77.9654 177.685 81.8784C175.766 85.9391 176.356 89.6306 180.196 92.067C186.693 83.9457 176.209 73.9048 170.598 82.0261C168.9 84.4625 169.195 87.711 168.604 90.6642C169.933 92.1408 168.53 93.4697 168.235 90.9595C164.987 85.5699 164.544 76.1935 164.839 69.1797C165.208 59.5818 166.389 55.2258 169.269 47.5475C176.504 48.8026 181.451 47.1045 183.37 41.6411C173.846 38.9094 172.96 40.829 167.792 46.1447C166.98 39.7953 165.06 35.6609 159.228 34.4796C158.12 34.1843 157.308 33.8151 157.382 35.2179L157.825 38.3926C158.194 42.2317 159.966 43.9298 162.55 45.3326L165.282 46.9568C163.879 68.8843 154.207 94.5034 184.404 109.122C190.236 111.927 198.727 112.666 196.734 125.364C183.666 126.324 175.84 117.981 171.115 106.759L163.067 106.685C161.738 113.551 163.805 116.948 158.342 127.284C155.684 132.378 150.59 137.768 146.455 140.942C139.368 146.332 122.165 155.708 109.983 155.708C95.1435 155.708 69.5983 142.419 61.6985 127.284C56.8996 118.055 58.7453 116.431 56.8996 106.611L48.8521 106.685C45.8251 113.773 44.7176 116.283 39.771 119.901C35.3412 123.149 30.3946 125.955 23.2331 125.364C20.2061 106.39 39.1804 115.176 51.3623 96.2014C55.2753 90.0736 57.4164 81.8784 57.3425 73.0927C57.2687 63.7163 54.8323 54.8567 54.6847 46.5877C58.8191 45.1111 61.8462 43.0439 62.0677 38.3926C62.4368 35.1441 63.5443 34.3319 60.8125 34.5534C54.98 35.9562 52.9127 39.7215 52.1744 46.2185C46.8587 40.6075 46.1942 39.2047 36.5963 41.7149C37.6299 44.6681 38.9589 45.9971 41.7644 47.2522C45.2344 48.8764 47.154 47.8428 49.2212 47.9905C56.3827 48.6549 56.8257 82.0999 51.8053 91.181ZM55.7921 43.856L54.3893 44.5943L55.2015 42.4532C55.9398 39.4262 57.4902 37.9496 60.5911 37.1375C59.7789 41.0505 58.8191 42.527 55.7921 43.856ZM164.839 42.527L165.503 44.8158L164.175 43.856C161.295 42.527 160.114 40.9766 159.523 37.1375C162.698 38.0234 164.101 39.4262 164.839 42.527ZM48.7044 45.9971C44.7914 46.5139 41.2476 46.0709 40.4355 42.97C44.5699 42.6747 47.154 43.2654 48.7044 45.9971ZM171.336 45.9971C172.886 43.2654 175.471 42.6747 179.679 42.97C178.867 46.0709 175.249 46.5139 171.336 45.9971ZM20.7229 73.6833C20.649 71.3207 21.3135 70.8778 23.1593 69.7703C22.6425 72.7973 22.6424 72.1329 20.7229 73.6833ZM199.318 73.6833C197.398 72.2067 197.398 72.7235 196.881 69.7703C198.727 70.9516 199.318 71.3207 199.318 73.6833ZM39.8448 86.3821C39.771 83.9457 40.7308 84.3886 40.7308 84.3886C41.6906 86.4559 41.2476 86.4559 40.8785 88.597C40.1402 87.711 39.9925 90.2212 39.8448 86.3821ZM180.196 86.3821C180.196 89.9997 179.605 88.0063 179.088 88.6708C178.719 86.5297 178.276 86.5297 179.236 84.4625C179.236 84.4625 180.196 83.5765 180.196 86.3821ZM18.1388 94.4295C16.8099 94.7987 16.5884 95.3155 15.9978 96.2753C10.1652 109.86 21.7565 111.337 24.3405 112.592C22.1995 116.062 20.5752 118.941 21.092 125.217C11.9371 124.7 3.96347 115.693 2.5607 107.202C0.641123 95.9799 8.54093 85.0531 15.9978 85.3484C16.6622 84.684 15.7024 84.7578 17.9912 84.4625C32.5357 83.355 42.2812 94.4295 33.9384 106.39C31.0591 110.598 23.0116 112.223 18.5818 107.424C16.7361 105.43 15.4809 101.96 17.179 98.7117C17.5482 98.0472 19.0986 96.4229 19.8369 96.0538C21.9042 94.9463 22.421 95.2416 24.0452 96.0538C25.3003 97.5304 19.0986 101.222 23.2331 106.981C31.6497 103.215 27.4414 89.1138 18.1388 94.4295ZM202.271 84.3886L204.117 85.3484C208.989 85.2746 213.05 89.6306 214.822 92.6576C217.406 96.9397 218.661 101.96 217.48 107.645C215.782 116.136 208.03 124.552 198.948 125.143C199.539 118.129 198.21 116.8 195.626 112.518C199.539 110.598 201.902 111.41 204.19 107.497C206.184 104.027 206.258 100.705 204.338 97.3089C203.526 96.3491 202.64 95.3893 201.754 94.4295C192.082 88.4493 188.317 105.356 197.472 106.833C198.727 99.8929 198.284 101.517 196.438 97.8257C195.921 96.7921 196.291 97.678 196.069 96.7182V95.9799C201.828 93.1744 206.701 102.256 201.163 107.645C195.995 112.592 188.465 109.638 185.881 105.873C177.759 94.0604 188.095 83.2812 202.271 84.3886ZM24.0452 101.148C24.1929 100.484 24.7097 100.041 25.0788 99.5238C25.0788 99.5976 26.4078 98.121 25.448 101.739C25.2265 102.477 24.7835 102.92 24.4144 103.437C24.4144 103.437 23.1593 104.544 24.0452 101.148ZM196.069 101.665C196.734 105.947 194.592 102.034 194.445 101.222C193.78 96.8659 195.995 100.927 196.069 101.665ZM40.657 131.492C41.3953 128.687 41.3214 128.687 43.3887 127.727C42.9457 130.68 42.8719 130.606 40.657 131.492ZM176.578 127.727C178.645 128.687 178.645 128.687 179.383 131.492C177.169 130.68 177.021 130.68 176.578 127.727ZM57.0472 159.548C57.2687 156.521 57.2687 156.816 59.2621 155.635C58.8191 158.883 58.5976 158.145 57.0472 159.548ZM160.778 155.561C161.517 156.004 161.517 155.265 162.476 156.816C163.215 157.997 162.919 158.145 162.993 159.548C161.517 158.514 161 158.219 160.778 155.561Z" fill="#D4B683"/>
<path fill-rule="evenodd" clip-rule="evenodd" d="M34.8982 57.0709C38.442 58.1784 41.0999 58.9167 44.3484 57.4401C47.8184 55.8896 48.7782 54.3392 50.4025 51.3122C43.0933 47.9898 37.2608 51.1645 34.8982 57.0709ZM38.2944 55.6681C40.0663 52.9364 42.355 52.0505 47.0063 52.1981C45.0867 55.3728 42.8718 56.7018 38.2944 55.6681Z" fill="#D4B683"/>
<path fill-rule="evenodd" clip-rule="evenodd" d="M169.564 51.3129C172.517 57.0716 176.873 59.6557 185.142 57.0716C182.632 50.5746 176.947 48.5812 169.564 51.3129ZM181.746 55.7427C177.169 56.5548 174.954 55.4474 172.96 52.2727C177.759 52.0512 179.974 53.011 181.746 55.7427Z" fill="#D4B683"/>
<path fill-rule="evenodd" clip-rule="evenodd" d="M60.1482 145.888C61.4033 151.426 69.3769 154.822 74.4712 151.13C72.5516 145.815 67.0144 143.969 60.1482 145.888ZM63.3967 147.143C67.8265 146.996 68.8601 147.291 71.0012 149.801C66.3499 152.09 63.9873 147.586 63.3967 147.143Z" fill="#D4B683"/>
<path fill-rule="evenodd" clip-rule="evenodd" d="M145.569 151.057C151.107 155.118 158.563 151.057 159.819 145.815C153.174 144.043 147.341 145.963 145.569 151.057ZM148.818 150.171C150.368 147.439 152.509 146.996 156.718 147.144C154.577 150.023 153.026 150.836 148.818 150.171Z" fill="#D4B683"/>
<path fill-rule="evenodd" clip-rule="evenodd" d="M168.9 41.2718C174.437 40.3858 176.8 34.0365 173.403 28.3516C168.014 30.345 166.537 34.7748 168.9 41.2718ZM172.591 31.5263C173.329 36.3252 172.444 36.0299 170.302 38.4663C169.269 35.7346 169.564 36.1775 170.155 33.4458L172.591 31.5263Z" fill="#D4B683"/>
<path fill-rule="evenodd" clip-rule="evenodd" d="M51.1407 41.3455C53.4295 34.7747 52.1005 30.4187 46.5633 28.4253C43.3886 33.8887 45.6773 40.5334 51.1407 41.3455ZM49.6641 38.4662C47.5231 36.0298 46.7109 36.3251 47.5231 31.3785L49.8856 33.3719C50.4024 36.1774 50.6239 35.7345 49.6641 38.4662Z" fill="#D4B683"/>
<path fill-rule="evenodd" clip-rule="evenodd" d="M70.189 164.272C70.4104 161.245 70.189 158.513 68.7862 156.372C67.6787 154.6 65.833 152.828 63.3228 153.419C62.4368 159.473 65.4638 163.017 70.189 164.272ZM65.4638 156.446C67.0143 157.701 67.6787 158.07 68.1217 160.95C66.276 159.99 65.833 159.252 65.4638 156.446Z" fill="#D4B683"/>
<path fill-rule="evenodd" clip-rule="evenodd" d="M149.852 164.273C154.872 162.87 157.382 159.621 156.718 153.198C151.328 153.272 149.409 158.366 149.852 164.273ZM152.657 160.95C152.583 160.877 150.959 161.246 152.509 158.44C153.248 157.037 153.691 156.89 154.798 156.594C153.986 159.105 153.912 159.326 152.657 160.95Z" fill="#D4B683"/>
<path fill-rule="evenodd" clip-rule="evenodd" d="M52.6913 142.05C54.6109 143.231 56.5304 144.265 59.4836 143.674C60.0743 143.526 62.4368 142.419 62.6583 142.271C65.0947 140.573 63.6181 141.902 64.4302 139.761C63.1013 139.392 55.4968 135.331 52.6913 142.05ZM57.3426 140.426C57.7117 140.204 57.0473 140.056 58.9668 139.909C60.3696 139.761 59.4836 139.909 60.6649 140.278C61.1817 142.05 60.9602 140.647 60.1481 141.238L56.3828 141.09L57.3426 140.426Z" fill="#D4B683"/>
<path fill-rule="evenodd" clip-rule="evenodd" d="M10.3867 117.538C15.6286 120.491 19.7631 117.907 21.6089 113.92C17.0314 110.82 11.8633 113.625 10.3867 117.538ZM17.8436 114.954C17.4006 115.545 17.4744 116.283 15.8501 116.504C12.6016 117.021 14.4474 116.209 13.8567 115.692L17.8436 114.954Z" fill="#D4B683"/>
<path fill-rule="evenodd" clip-rule="evenodd" d="M47.3017 78.7038V77.0795C46.1204 72.6497 43.4625 70.5825 38.2944 70.8778C39.1804 76.858 41.1 78.1869 47.3017 78.7038ZM41.9121 73.4618C44.3485 74.1263 43.9055 73.7572 44.6438 76.1935L41.4691 73.9786L40.5832 72.8712L41.9121 73.4618Z" fill="#D4B683"/>
<path fill-rule="evenodd" clip-rule="evenodd" d="M45.3083 64.307C46.4157 65.636 45.8251 65.193 47.5232 65.5622C51.067 63.7164 52.396 61.3539 51.7315 55.6689C46.8587 56.0381 45.7513 59.2128 45.3083 64.307ZM48.7045 62.166L47.2279 63.2734L48.04 61.0585L49.6643 58.4745L48.7045 62.166Z" fill="#D4B683"/>
<path fill-rule="evenodd" clip-rule="evenodd" d="M172.517 78.6296C178.424 78.4081 181.746 76.1194 181.672 70.8775C175.692 70.213 173.256 73.3877 172.517 78.6296ZM178.055 73.3877L179.31 72.7232C179.974 73.4615 179.457 73.4615 178.571 73.9783C177.464 75.3073 177.538 75.4549 175.397 76.1194C176.135 73.7568 175.692 74.126 178.055 73.3877Z" fill="#D4B683"/>
<path fill-rule="evenodd" clip-rule="evenodd" d="M172.517 65.5622C174.142 65.193 173.699 65.5622 174.732 64.307C174.289 59.2128 173.182 56.0381 168.383 55.6689C167.645 60.837 169.047 63.8641 172.517 65.5622ZM172.074 60.9847L172.739 63.1996L171.41 62.0922L170.45 58.4745L172.074 60.9847Z" fill="#D4B683"/>
<path fill-rule="evenodd" clip-rule="evenodd" d="M167.202 82.0257C171.927 79.8108 173.625 74.1259 170.081 70.582C165.725 72.8708 165.356 76.7837 167.202 82.0257ZM168.678 74.495L170.155 73.9044L169.564 76.8576L168.161 78.4818L168.678 74.495Z" fill="#D4B683"/>
<path fill-rule="evenodd" clip-rule="evenodd" d="M35.7105 120.196C39.402 118.72 42.9458 115.176 40.0664 109.343C35.7105 110.082 33.7909 115.25 35.7105 120.196ZM37.4824 116.505C36.3749 114.364 37.3347 113.625 38.8113 112.444C38.7375 115.028 39.0328 114.585 37.4824 116.505Z" fill="#D4B683"/>
<path fill-rule="evenodd" clip-rule="evenodd" d="M48.1877 76.931L48.7045 77.8908C49.6643 80.1795 50.5502 80.9917 52.7651 82.0253C54.6109 76.931 54.0941 71.9106 49.1475 70.5078C48.6307 72.5751 48.1138 74.4208 48.1877 76.931ZM51.3624 74.4946L51.5839 78.6291L50.5502 76.8572L50.1073 73.8302L51.3624 74.4946Z" fill="#D4B683"/>
<path fill-rule="evenodd" clip-rule="evenodd" d="M48.6306 147.07C45.2344 151.5 47.4493 156.742 51.2146 158.292C54.537 153.42 52.3959 149.211 48.6306 147.07ZM50.4763 154.97C48.9997 153.198 48.9259 153.567 49.2212 150.466C50.9193 152.165 50.6978 152.238 50.4763 154.97Z" fill="#D4B683"/>
<path fill-rule="evenodd" clip-rule="evenodd" d="M208.694 103.584C212.459 102.034 215.043 96.0533 211.278 92.3618C207.956 94.2076 205.224 98.785 208.694 103.584ZM210.097 100.335C209.728 100.705 209.432 101.295 209.358 98.2682C209.358 97.8991 209.801 96.201 209.875 95.8318C210.835 97.1608 211.352 96.2748 210.097 100.335Z" fill="#D4B683"/>
<path fill-rule="evenodd" clip-rule="evenodd" d="M168.826 158.292C172.665 156.816 174.806 151.574 171.41 147.07C167.571 149.138 165.503 153.42 168.826 158.292ZM169.49 154.97C169.343 152.238 169.047 152.091 170.745 150.466C171.041 153.567 171.041 153.198 169.49 154.97Z" fill="#D4B683"/>
<path fill-rule="evenodd" clip-rule="evenodd" d="M25.7433 123.887C30.8376 123.075 32.831 118.941 31.502 113.33C26.4816 114.659 25.1527 117.833 25.7433 123.887ZM28.7703 117.021L30.2469 116.504L29.7301 117.907C29.1395 120.122 29.5825 119.457 27.5891 120.786L28.7703 117.021Z" fill="#D4B683"/>
<path fill-rule="evenodd" clip-rule="evenodd" d="M194.223 123.888C194.888 118.055 193.337 114.659 188.465 113.404C186.988 119.015 189.129 123.076 194.223 123.888ZM191.196 116.948L192.378 120.713C190.458 119.384 190.827 120.049 190.236 117.834L189.72 116.283L191.196 116.948Z" fill="#D4B683"/>
<path fill-rule="evenodd" clip-rule="evenodd" d="M214.305 106.316C214.305 104.839 214.6 105.652 213.641 104.766C208.399 104.692 205.076 106.316 204.633 111.115C209.801 111.706 213.124 110.82 214.305 106.316ZM209.949 107.35L212.238 106.611L210.983 107.94C209.654 109.269 209.654 109.195 207.513 108.974L209.949 107.35Z" fill="#D4B683"/>
<path fill-rule="evenodd" clip-rule="evenodd" d="M5.66149 106.39C6.84277 110.525 10.0175 111.706 15.407 111.115C14.9641 106.39 11.5679 104.618 6.39979 104.766C5.36617 105.726 5.66149 104.84 5.66149 106.39ZM10.0175 107.35L12.4538 108.974C10.3866 109.196 10.3128 109.343 9.13149 107.867L7.80255 106.612L10.0175 107.35Z" fill="#D4B683"/>
<path fill-rule="evenodd" clip-rule="evenodd" d="M155.61 139.761C156.422 141.828 157.973 143.379 161.074 143.748C163.879 144.117 165.577 143.157 167.349 142.05C165.208 137.177 160.188 137.841 155.61 139.761ZM162.624 140.425L163.658 141.09C161.59 142.05 161.664 141.681 159.818 141.238C159.006 140.647 158.785 142.123 159.228 140.278C161.886 139.466 160.483 139.466 162.624 140.425Z" fill="#D4B683"/>
<path fill-rule="evenodd" clip-rule="evenodd" d="M11.2727 103.806C14.8903 99.5975 12.2325 93.5435 8.24564 92.436C6.10457 98.0471 7.28584 101.443 11.2727 103.806ZM10.239 95.8322C12.1586 107.054 6.84286 92.2884 10.239 95.8322V95.8322Z" fill="#D4B683"/>
<path fill-rule="evenodd" clip-rule="evenodd" d="M184.256 120.196C186.397 114.807 184.109 110.524 179.605 109.048C178.867 115.84 178.867 117.834 184.256 120.196ZM181.155 112.444C181.672 112.813 182.263 112.887 182.853 114.29L182.558 116.431C180.934 114.659 181.303 115.102 181.155 112.444Z" fill="#D4B683"/>
<path fill-rule="evenodd" clip-rule="evenodd" d="M198.505 113.92C200.942 119.458 203.895 118.719 209.654 117.981C208.62 113.773 202.861 110.746 198.505 113.92ZM206.184 115.692C206.184 115.692 206.848 117.39 203.6 116.431C201.606 115.84 202.271 115.175 202.123 114.659L206.184 115.692Z" fill="#D4B683"/>
<path fill-rule="evenodd" clip-rule="evenodd" d="M201.975 93.4701C202.566 93.9131 202.788 93.9869 203.6 94.7252C203.674 94.7991 203.821 94.9467 203.969 95.0206L204.486 95.6112C204.559 95.685 204.633 95.8327 204.707 95.9065C206.405 96.3495 206.331 95.9065 206.774 94.2084C207.07 93.101 206.996 91.4767 206.774 90.2954C206.258 87.7852 205.076 86.8254 203.378 85.8656L201.68 85.5703C201.311 88.6712 201.311 90.7384 201.975 93.4701ZM203.304 89.0403C204.781 90.1478 205.445 90.5169 204.116 92.7318L203.304 89.0403Z" fill="#D4B683"/>
<path fill-rule="evenodd" clip-rule="evenodd" d="M14.8903 96.5707C15.8501 94.8726 16.7361 94.3558 17.8435 93.396C19.3939 89.3353 18.2127 89.2615 18.508 85.7915L16.5884 85.9392C15.1118 86.8251 14.0043 87.4896 13.3399 89.8522C12.5277 92.8792 13.0446 94.7249 14.8903 96.5707ZM15.7024 92.7315C14.595 90.6643 15.1856 90.2213 16.7361 89.1139C16.7361 91.6979 16.9575 90.8119 15.7024 92.7315Z" fill="#D4B683"/>
<path fill-rule="evenodd" clip-rule="evenodd" d="M30.9114 82.321C36.4487 83.4285 38.8112 82.2472 40.3617 77.8174C35.2674 77.0053 32.0189 77.5959 30.9114 82.321ZM34.2338 79.5893L37.0393 79.4416L35.3412 80.6968L34.0123 81.2136L34.2338 79.5893Z" fill="#D4B683"/>
<path fill-rule="evenodd" clip-rule="evenodd" d="M179.605 77.8175C181.229 82.2473 183.592 83.5024 189.129 82.3211C187.948 77.6698 184.921 77.0053 179.605 77.8175ZM185.659 79.5894L186.102 81.2875L184.552 80.6968C183.001 79.9585 183.961 81.8043 183.223 79.3679L185.659 79.5894Z" fill="#D4B683"/>
<path fill-rule="evenodd" clip-rule="evenodd" d="M20.5014 92.1412C23.5284 92.3627 26.8508 91.9197 27.9582 89.1141C29.361 85.5703 28.1059 87.3422 27.8844 86.7516C23.3808 85.9395 20.4276 87.7852 20.5014 92.1412ZM23.2331 90.2216C23.8976 87.7114 21.9042 89.5571 25.3742 88.3758C23.6761 90.7384 27.3676 89.3356 23.2331 90.2216Z" fill="#D4B683"/>
<path fill-rule="evenodd" clip-rule="evenodd" d="M27.3676 92.0669C27.6629 96.9397 28.9919 98.8593 34.0123 99.3022C34.3815 93.9865 31.8712 92.5837 27.3676 92.0669ZM29.6563 94.7986C31.8712 95.6107 31.3544 94.2818 31.4283 96.6444C28.1797 95.3154 30.8376 96.1275 29.6563 94.7986Z" fill="#D4B683"/>
<path fill-rule="evenodd" clip-rule="evenodd" d="M186.028 99.228C190.975 98.785 192.23 97.1608 192.747 91.9927C187.874 92.6571 185.733 93.9861 186.028 99.228ZM188.612 96.644C188.169 93.5431 189.129 95.2412 190.384 94.7244C189.498 96.201 190.015 96.0533 188.612 96.644Z" fill="#D4B683"/>
<path fill-rule="evenodd" clip-rule="evenodd" d="M198.875 92.4357C199.613 91.6236 199.022 92.2881 199.613 90.7376C198.284 87.4153 196.143 86.0863 192.156 86.8246C192.082 86.9723 192.008 87.0461 192.008 87.2676C192.008 87.4891 191.861 87.6368 191.935 87.7106C192.008 88.9657 191.787 88.0798 192.23 89.1134C193.337 91.8451 196.291 92.1404 198.875 92.4357ZM194.74 88.5227C197.693 89.4825 196.217 87.6368 196.734 90.147C193.485 89.3349 195.995 90.147 194.74 88.5227Z" fill="#D4B683"/>
<path fill-rule="evenodd" clip-rule="evenodd" d="M51.8053 91.181L51.4362 90.9595C50.4764 92.2146 50.7717 92.2884 51.3624 93.322L51.8053 91.181Z" fill="#D4B683"/>
<path fill-rule="evenodd" clip-rule="evenodd" d="M172.517 65.5622L173.92 66.3744L174.658 64.3071C173.699 65.4884 174.142 65.1931 172.517 65.5622Z" fill="#D4B683"/>
<path fill-rule="evenodd" clip-rule="evenodd" d="M47.5232 65.5622C45.8251 65.1931 46.4157 65.6361 45.3083 64.3071L45.8989 66.3005L47.5232 65.5622Z" fill="#D4B683"/>
<path fill-rule="evenodd" clip-rule="evenodd" d="M88.5727 10.9276C90.0493 15.2098 90.1969 11.223 91.3044 17.4247L91.7474 19.5657C91.8212 19.7134 91.895 20.0087 92.0427 20.2302C95.1435 20.1564 97.2108 19.3443 99.2042 18.0891C94.8482 15.5789 92.7072 16.3172 93.9623 9.22955C90.8614 8.26976 93.8146 9.30337 92.0427 8.41741L90.7138 7.75295C90.4923 7.60529 90.1969 7.53146 89.9755 7.3838C89.754 7.30997 89.4586 7.16231 89.1633 7.01465L88.5727 10.9276Z" fill="#D4B683"/>
<path fill-rule="evenodd" clip-rule="evenodd" d="M119.803 9.96763C120.762 16.9815 119.138 16.6123 114.487 18.7534C116.407 19.9347 118.548 20.7468 121.648 21.0421C122.83 18.3842 121.87 18.3104 122.682 15.874C124.085 11.3704 126.152 15.0619 124.38 7.90039L119.803 9.96763Z" fill="#D4B683"/>
<path fill-rule="evenodd" clip-rule="evenodd" d="M87.17 29.3852C87.0223 30.0497 86.8008 31.0094 86.6532 31.6739C86.5055 32.3384 86.3579 32.8552 86.3579 33.0767C86.284 33.2982 86.284 33.372 86.284 33.4458C86.284 33.5197 86.284 33.5935 86.3579 33.6673C86.4317 33.7412 86.6532 33.6673 87.17 33.6673C87.7606 33.5935 88.6466 33.5935 90.4185 33.2982C92.1166 33.0767 94.6268 32.6337 96.6941 32.1907C98.7613 31.8216 100.386 31.4524 101.788 31.1571C103.191 30.9356 104.225 30.788 105.627 30.788C107.03 30.788 108.728 30.9356 110.796 31.1571C112.863 31.3786 115.299 31.6739 117.736 32.0431C120.172 32.4122 122.535 32.7814 124.159 33.0029C125.783 33.2243 126.595 33.372 127.186 33.5197C127.776 33.5935 128.146 33.6673 128.367 33.6673C128.515 33.6673 128.515 33.5935 128.293 32.6337C128.072 31.6739 127.629 29.902 127.407 28.8684C127.186 27.9086 127.112 27.6871 127.186 27.5394C127.26 27.3918 127.333 27.3179 127.776 26.875C128.219 26.5058 128.884 25.7675 129.327 25.2507C129.77 24.6601 130.065 24.2171 130.213 23.7741C130.361 23.3311 130.434 22.8143 130.508 22.3713C130.582 21.9284 130.803 21.4854 131.542 20.4518C132.28 19.4181 133.609 17.7939 134.2 16.9079C134.864 16.022 134.79 15.8005 134.716 14.7669C134.569 13.7332 134.421 11.8137 134.274 10.78C134.2 9.82025 134.2 9.82025 133.166 10.4109C132.206 11.0015 130.213 12.109 129.253 12.6996C128.293 13.2903 128.293 13.2903 128.293 13.5856C128.293 13.8809 128.367 14.4715 128.441 15.0622C128.441 15.6528 128.441 16.2435 128.367 16.7603C128.293 17.3509 128.146 17.8677 127.998 18.3845C127.85 18.9013 127.629 19.2705 127.333 19.7135C127.038 20.1564 126.595 20.5256 126.078 20.8947C125.562 21.2639 124.897 21.5592 124.306 21.7807C123.716 22.0022 123.125 22.076 122.461 22.1499C121.796 22.1499 121.058 22.1499 120.172 22.0022C119.286 21.8545 118.326 21.633 117.366 21.2639C116.48 20.9686 115.668 20.5256 114.93 20.0826C114.266 19.6396 113.675 19.1967 113.158 18.7537C112.641 18.3107 112.272 17.8677 111.903 17.3509C111.534 16.8341 111.312 16.3173 111.091 15.7266C110.869 15.136 110.722 14.5454 110.648 13.9547C110.574 13.3641 110.574 12.8473 110.648 12.1828C110.722 11.5183 110.943 10.78 111.091 10.0417C111.239 9.30344 111.386 8.49131 111.608 7.82684C111.829 7.16237 112.051 6.71939 112.125 6.42407C112.125 6.12875 111.977 5.98109 111.534 5.53811C111.091 5.09513 110.353 4.43066 109.614 3.39704C108.876 2.36342 108.064 0.960655 107.621 0.370015C107.178 -0.220625 107.03 -0.0729684 106.661 0.591501C106.218 1.25597 105.48 2.51108 104.742 3.47087C104.003 4.43066 103.265 5.09513 102.674 5.7596C102.157 6.42407 101.862 7.01471 101.714 7.45769C101.641 7.90067 101.788 8.04833 102.084 8.56514C102.379 9.08195 102.822 9.89408 103.117 10.7062C103.486 11.5183 103.708 12.4043 103.782 13.3641C103.856 14.3239 103.708 15.3575 103.413 16.2435C103.117 17.1294 102.6 17.7939 102.01 18.4584C101.419 19.1228 100.607 19.7135 99.6473 20.3041C98.6875 20.8947 97.4324 21.3377 96.3987 21.633C95.3651 21.9284 94.553 22.0022 93.5932 22.0022C92.6334 22.0022 91.5998 21.8545 90.7138 21.633C89.8279 21.4116 89.0157 21.0424 88.2774 20.5994C87.613 20.1564 87.0223 19.5658 86.6532 18.9752C86.284 18.3845 86.1364 17.7201 86.0625 16.9079C85.9887 16.0958 86.1364 15.0622 86.2102 14.3239C86.284 13.5856 86.3579 13.0688 86.3579 12.7734C86.3579 12.4781 86.2102 12.4043 85.3981 12.0351C84.5859 11.5922 83.0355 10.8539 82.1495 10.4109C81.1897 9.96791 80.8206 9.74642 80.6729 9.74642C80.4514 9.74642 80.4515 9.82025 80.3776 10.5585C80.3038 11.2968 80.1561 12.6258 80.0823 13.5856C80.0085 14.5454 80.0085 15.0622 80.1561 15.5052C80.3038 15.9481 80.5991 16.1696 80.9683 16.5388C81.3374 16.9079 81.8542 17.2771 82.1495 17.7201C82.5187 18.0892 82.6663 18.4584 82.8878 18.9752C83.1093 19.4181 83.3308 20.0088 83.5523 20.8947C83.7738 21.7069 83.9953 22.8881 84.2168 23.7003C84.4383 24.5862 84.6598 25.1769 85.1766 25.6199C85.6934 26.0628 86.4317 26.3582 86.8747 26.7273C87.3176 27.0226 87.3915 27.3918 87.3915 27.8348C87.4653 28.2777 87.3176 28.7207 87.17 29.3852Z" fill="#D4B683"/>
<path fill-rule="evenodd" clip-rule="evenodd" d="M104.889 23.9216L106.882 20.5254L109.171 24.4384L107.178 27.9084L104.889 23.9216Z" fill="white"/>
<path fill-rule="evenodd" clip-rule="evenodd" d="M94.036 26.21L95.2911 23.9951L96.7677 26.5792L95.5126 28.7941L94.036 26.21Z" fill="white"/>
<path fill-rule="evenodd" clip-rule="evenodd" d="M117.366 25.9156L118.621 23.7007L120.098 26.2109L118.843 28.4258L117.366 25.9156Z" fill="white"/>
<path fill-rule="evenodd" clip-rule="evenodd" d="M126.226 39.381C119.022 37.9108 111.196 36.7042 104.615 36.9873C98.1034 37.2673 92.769 39.008 86.1828 41.228C82.929 42.3373 79.464 43.5231 76.3463 44.7229C73.1943 45.9359 70.5435 47.1091 68.8559 48.168C67.2394 49.1823 66.6849 49.9831 66.4291 50.6176C66.1278 51.3651 66.0934 52.1868 66.0538 53.7296C65.9804 56.8133 65.9068 60.7824 65.9068 67.924C65.9068 75.1649 65.9819 85.4785 66.783 94.0002L66.7839 94.0095L66.7847 94.0189C67.51 102.504 68.9521 109.228 71.2939 115.26C73.6197 121.25 76.8986 126.62 82.8654 131.814L82.871 131.819L82.8765 131.824C88.9463 137.18 97.7546 142.314 103.381 144.911C106.178 146.202 107.977 146.754 109.405 146.918C110.771 147.075 111.947 146.893 113.566 146.422C116.861 145.439 121.306 143.51 125.118 141.677L125.127 141.673L125.135 141.669C128.834 139.929 131.739 138.399 135.07 135.623C138.482 132.78 142.403 128.64 145.008 124.908C147.57 121.239 148.892 117.916 150.043 114.535C151.139 111.317 152.003 108.209 152.586 97.5563C153.119 87.841 153.35 72.0679 153.499 61.9204C153.515 60.8677 153.529 59.8756 153.543 58.9571C153.618 54.0097 153.649 51.39 153.489 49.7977C153.413 49.0336 153.305 48.6729 153.221 48.4811C153.156 48.332 153.07 48.2004 152.828 47.9696C151.65 46.8477 148.944 45.3468 144.288 43.8189C139.685 42.3086 133.435 40.7788 126.247 39.3852L126.237 39.3831L126.226 39.381ZM127.101 35.0384C119.837 33.5562 111.572 32.2541 104.425 32.5615C97.2051 32.872 91.3181 34.8223 84.7642 37.0314L84.7642 37.0314L84.757 37.0339C81.5149 38.1392 77.9674 39.3524 74.7553 40.5886C71.5764 41.8119 68.5792 43.112 66.5015 44.4157C64.3526 45.7639 63.0245 47.215 62.3205 48.9615C61.7 50.5007 61.662 52.0887 61.6311 53.3841C61.6292 53.4632 61.6273 53.5412 61.6253 53.6181L61.6252 53.6221C61.551 56.7398 61.4769 60.7442 61.4769 67.924C61.4769 75.1512 61.5495 85.6528 62.3717 94.4054C63.1234 103.192 64.6342 110.346 67.1643 116.863C69.7105 123.421 73.3703 129.42 79.9509 135.151C86.432 140.868 95.6348 146.215 101.524 148.933C104.486 150.3 106.784 151.077 108.901 151.319C111.077 151.568 112.89 151.233 114.812 150.673L114.818 150.671L114.824 150.669C118.466 149.584 123.167 147.53 127.029 145.674C130.857 143.872 134.152 142.154 137.906 139.026C141.583 135.962 145.783 131.537 148.641 127.444C151.543 123.287 153.025 119.522 154.237 115.963C155.504 112.241 156.412 108.704 157.01 97.7987C157.547 87.9861 157.78 72.1157 157.929 61.9894C157.944 60.9342 157.959 59.9413 157.973 59.0242C158.045 54.226 158.089 51.2715 157.897 49.3569C157.798 48.3675 157.624 47.4915 157.277 46.7005C156.911 45.8668 156.416 45.2693 155.883 44.7618C153.96 42.9305 150.463 41.1829 145.669 39.6099C140.824 38.0202 134.38 36.4498 127.101 35.0384Z" fill="#D4B683"/>
</svg>
