<svg width="79" height="58" viewBox="0 0 79 58" fill="none" xmlns="http://www.w3.org/2000/svg">
<path d="M51.5303 25.5201C51.5303 25.3377 51.4508 25.1552 51.2917 24.9988C51.1326 24.8424 50.9205 24.686 50.6819 24.5556C50.4433 24.4253 50.1517 24.321 49.8336 24.2428C49.5154 24.1646 49.1973 24.1386 48.9057 24.1386C48.1368 24.1386 47.5536 24.2428 47.1559 24.4253C47.1029 24.4514 47.2354 24.5296 47.527 24.686C47.8187 24.8424 48.1633 25.0248 48.5875 25.2073C49.0117 25.3898 49.4359 25.5723 49.8601 25.7026C50.2843 25.859 50.6554 25.9372 50.9205 25.9372C51.2917 25.9372 51.5303 25.8069 51.5303 25.5201ZM53.3596 25.3377C53.3596 26.0415 53.121 26.5889 52.6438 27.006C52.1666 27.423 51.4508 27.6055 50.5494 27.6055C49.1973 27.6055 47.5801 27.006 45.6182 25.8329C45.0615 26.25 44.4517 27.006 43.7624 28.0747L41.774 31.2028C41.9331 31.1767 42.0922 31.1507 42.2512 31.0985C42.4103 31.0724 42.5694 31.0464 42.7284 31.0464C43.2852 31.0464 43.7889 31.1767 44.2661 31.4113C44.7168 31.6459 44.9819 31.9587 45.0615 32.3237C44.6638 32.2194 44.2396 32.1933 43.7889 32.1933C42.3308 32.1933 41.2438 32.5061 40.5545 33.1578L36.9224 38.8405C35.7028 40.7434 33.9531 41.6818 31.7261 41.6818C30.7982 41.6818 30.0559 41.4733 29.4991 41.0823C28.9424 40.6652 28.6772 40.1438 28.6772 39.4922C28.6772 39.2054 28.7303 38.9448 28.8628 38.6319C29.0219 39.049 29.3135 39.3879 29.6582 39.6225C30.0293 39.8571 30.48 39.9874 31.0368 39.9874C31.5935 39.9874 32.1503 39.7528 32.707 39.2836C33.2903 38.8144 33.9 38.0845 34.5628 37.12L36.8163 33.7052C36.4187 33.8356 35.9945 33.9138 35.5968 33.9138C34.4303 33.9138 33.7145 33.4706 33.4759 32.5843C33.688 32.6104 33.8735 32.6365 34.0856 32.6886C34.2977 32.7147 34.5098 32.7407 34.7219 32.7407C35.4642 32.7407 36.074 32.6626 36.6042 32.5322C37.1345 32.4019 37.5852 32.1412 37.9563 31.8023L40.7401 27.6316C41.1908 26.9538 41.5884 26.3803 41.9596 25.9372C42.3308 25.4941 42.6224 25.1813 42.8875 24.9727C41.3498 24.4514 39.6266 24.1907 37.6912 24.1907C36.9224 24.1907 36.2066 24.2428 35.5438 24.3732C34.881 24.5035 34.2977 24.6599 33.794 24.8945C33.3168 25.1291 32.9191 25.4159 32.6275 25.7287C32.3359 26.0675 32.2033 26.4325 32.2033 26.8496C32.2033 27.423 32.4419 27.8922 32.8926 28.2051C33.3433 28.5179 34.0326 28.6743 34.934 28.6743C35.5968 28.6743 36.2861 28.57 37.0019 28.3875C36.2331 29.7691 34.987 30.4729 33.2373 30.4729C32.601 30.4729 32.0177 30.3947 31.4875 30.2122C30.9573 30.0558 30.48 29.8212 30.0824 29.5084C29.6847 29.2217 29.3666 28.8567 29.1279 28.4397C28.8893 28.0226 28.7833 27.5534 28.7833 27.032C28.7833 26.1979 29.0219 25.468 29.5256 24.8684C30.0293 24.2689 30.6921 23.7736 31.4875 23.3826C32.3093 22.9916 33.2373 22.7049 34.3242 22.5224C35.3847 22.3399 36.4982 22.2617 37.6382 22.2617C38.301 22.2617 38.9638 22.2878 39.6531 22.366C40.3159 22.4181 40.9787 22.4963 41.6149 22.6006C42.2512 22.7049 42.8345 22.8352 43.3912 22.9916C43.948 23.148 44.4517 23.3044 44.8494 23.4869C45.0615 23.3305 45.3266 23.1741 45.6712 23.0437C46.0159 22.8873 46.387 22.7831 46.7582 22.6527C47.1294 22.5485 47.527 22.4703 47.8982 22.3921C48.2694 22.3399 48.614 22.2878 48.9057 22.2878C49.648 22.2878 50.3108 22.3921 50.8675 22.5745C51.4243 22.757 51.9015 23.0177 52.2461 23.3044C52.6173 23.5911 52.8824 23.93 53.068 24.2689C53.2801 24.6599 53.3596 24.9988 53.3596 25.3377Z" fill="#DCB36C"/>
<path fill-rule="evenodd" clip-rule="evenodd" d="M18.6028 32.193L18.4437 32.9489C18.2582 32.584 18.1521 32.5579 18.4703 32.1148C18.3112 31.2806 18.3642 27.553 15.4479 28.0744C14.467 28.2568 13.8572 29.1692 13.6451 29.9773C13.3535 31.0721 13.8572 32.0105 14.3344 32.584C15.5275 31.828 16.0047 30.6289 15.2358 28.9867C18.5763 27.3966 18.5763 35.7121 13.0884 37.615C15.1033 33.6788 13.6451 30.6811 9.2707 29.1431C10.1191 28.4654 11.0735 28.2047 11.4977 27.162C13.3005 22.887 6.27488 21.6097 6.61953 27.1099C8.89954 26.6146 8.52837 26.2496 9.24419 24.2685C11.7363 24.1903 11.6037 27.3184 8.95256 28.335C6.75209 29.1952 4.89628 29.0388 3.04046 30.3943C-2.20885 34.2002 -0.406059 42.9066 6.48698 44.7835C8.5814 45.3569 7.57395 45.0441 8.63442 46.5821C9.21768 47.4423 9.82744 47.9637 10.6758 48.485C13.5921 50.2576 19.8754 51.0396 21.1479 53.8027C20.273 55.2104 19.4247 54.7672 19.8754 57.4782C20.8298 57.3218 21.6516 56.6441 21.9433 55.862C23.1628 52.6297 19.4512 50.9353 16.5614 50.049C18.0726 49.267 21.0419 47.6248 18.8149 44.9138C18.2582 44.236 16.8265 43.6104 15.5009 44.21C14.0693 44.8617 13.8572 46.0086 13.8572 47.4684C16.1902 47.0252 16.1372 45.9304 16.4819 45.2005C16.6409 44.8356 16.6144 44.9138 16.8 44.6792C20.0344 45.3309 19.2921 49.632 14.9177 49.1888C13.5921 49.0585 12.1605 48.5111 11.1 47.8333C10.1721 47.2598 9.03209 46.139 8.82 45.0963C11.2856 45.0181 13.3535 44.21 14.7586 43.0109C16.8 41.2904 16.6144 41.108 18.1786 38.5273L19.8223 38.4752C19.9549 46.3736 25.4428 51.1699 32.1503 53.8809C33.7145 54.5065 37.7177 55.8099 39.5205 55.8099C43.7094 55.8099 50.5759 52.343 52.7498 50.6486C54.7912 49.0585 55.7722 48.3807 57.2568 45.8522C58.6354 43.5322 59.1922 41.6033 59.2187 38.5273C61.8699 38.4491 60.4647 38.6055 62.2145 40.9516C63.9908 43.3758 66.748 44.992 70.2476 45.1223C69.8499 47.0252 66.9336 48.8239 64.3885 49.1628C59.855 49.7623 58.9801 45.3309 62.294 44.6792C62.3471 44.7313 62.4001 44.7574 62.4001 44.8617C62.4266 44.9659 62.4796 44.992 62.5061 45.0181C62.9568 45.9304 62.8508 46.9992 65.2368 47.4684C65.2368 41.4469 57.8136 44.1578 59.8815 48.094C60.5178 49.267 61.3396 49.3452 62.5061 50.049C60.6503 50.6225 58.4499 51.5349 57.628 52.6818C56.1964 54.7151 57.0712 57.0872 59.1922 57.4521C59.6429 54.7411 58.7945 55.1843 57.9196 53.7767C59.5103 50.2576 67.3313 50.7268 70.3271 46.6864C71.3345 45.3309 70.4596 45.2787 72.395 44.7835C79.6592 42.9066 80.9583 33.9916 76.1596 30.4465C73.588 28.5436 68.7364 28.9606 68.1531 26.5103C67.8085 25.1027 68.3652 24.1382 69.7968 24.2164C70.4862 26.015 70.115 26.5625 72.4215 27.0577C72.7131 22.8609 69.1606 23.1737 68.2327 23.8254C67.3313 24.451 67.0396 25.7804 67.5434 27.1099C67.9145 28.0744 68.9485 28.3872 69.7703 29.0649C65.4489 30.655 63.8582 33.4181 65.9527 37.5368C60.5443 35.6078 60.2526 27.5269 63.8052 28.9085C63.1159 30.3422 63.328 31.6456 64.7066 32.5058C67.0396 29.6384 63.275 26.0932 61.2601 28.9606C60.6503 29.8209 60.7564 30.9678 60.5443 32.0105C60.8889 32.3494 60.7829 32.0105 60.8624 32.7925L60.8094 33.2096C60.0671 32.9489 60.9419 33.3399 60.5178 32.8186L60.3852 32.1148C59.2187 30.2119 59.0596 26.9013 59.1657 24.4249C59.2982 21.0362 59.7224 19.4982 60.7564 16.7872C63.3545 17.2304 65.1308 16.6308 65.8201 14.7019C62.4001 13.7374 62.082 14.4151 60.2261 16.292C59.9345 14.0502 59.2452 12.5904 57.1508 12.1733C56.488 12.2776 56.8857 12.0691 56.488 12.434L56.6471 13.5549C56.7796 14.9104 57.4159 15.5099 58.3438 16.0052L59.3247 16.5787C58.821 24.3207 55.348 33.366 66.1913 38.5273C68.2857 39.5179 71.3345 39.7786 70.6187 44.2621C65.9261 44.601 63.1159 41.6554 61.4192 37.6932L58.5294 37.6671C58.0522 40.0914 58.7945 41.2905 56.8326 44.9399C55.8782 46.7385 54.0489 48.6414 52.5643 49.7623C50.0191 51.6652 43.8419 54.9758 39.4675 54.9758C34.1386 54.9758 24.9656 50.2836 22.1289 44.9399C20.4056 41.6815 21.0684 41.108 20.4056 37.641L17.5158 37.6671C16.4289 40.1696 16.0312 41.0558 14.2549 42.3331C12.6642 43.4801 10.8879 44.4707 8.31628 44.2621C7.2293 37.5628 14.0428 40.6648 18.4172 33.9656C19.8223 31.802 20.5912 28.9085 20.5647 25.8065C20.5382 22.496 19.6633 19.3679 19.6103 16.4484C21.0949 15.927 22.1819 15.1971 22.2614 13.5549L22.394 12.434C22.0493 12.0951 22.6061 12.3558 21.7842 12.1733C19.6898 12.6686 18.9475 13.998 18.6823 16.292C16.7735 14.3109 16.5349 13.8156 13.0884 14.7019C13.4595 15.7446 13.9368 16.2138 14.9442 16.6569C16.1902 17.2304 16.8796 16.8654 17.6219 16.9176C20.2465 17.1782 20.4056 28.9867 18.6028 32.193ZM20.0344 15.4839L19.5307 15.7446L19.8223 14.9886C20.0875 13.9198 20.6442 13.3985 21.7577 13.1118C21.4661 14.4933 21.1214 15.0147 20.0344 15.4839ZM59.1922 15.0147L59.4308 15.8228L58.9536 15.4839C57.9196 15.0147 57.4954 14.4673 57.2833 13.1118C58.4233 13.4246 58.9271 13.9198 59.1922 15.0147ZM17.4893 16.2398C16.0842 16.4223 14.8116 16.2659 14.52 15.1711C16.0047 15.0668 16.9326 15.2753 17.4893 16.2398ZM61.5252 16.2398C62.082 15.2753 63.0099 15.0668 64.521 15.1711C64.2294 16.2659 62.9303 16.4223 61.5252 16.2398ZM7.44139 26.015C7.41488 25.1809 7.65349 25.0245 8.31628 24.6335C8.1307 25.7022 8.1307 25.4676 7.44139 26.015ZM71.5731 26.015C70.8838 25.4937 70.8838 25.6762 70.6982 24.6335C71.361 25.0506 71.5731 25.1809 71.5731 26.015ZM14.3079 30.4986C14.2814 29.6384 14.6261 29.7948 14.6261 29.7948C14.9707 30.5247 14.8116 30.5247 14.6791 31.2806C14.414 30.9678 14.3609 31.8541 14.3079 30.4986ZM64.7066 30.4986C64.7066 31.7759 64.4945 31.0721 64.3089 31.3067C64.1764 30.5507 64.0173 30.5507 64.362 29.8209C64.362 29.8209 64.7066 29.5081 64.7066 30.4986ZM6.51349 33.3399C6.38093 33.5224 6.43395 33.5224 6.19535 33.7309C5.93023 33.9656 6.06279 33.8352 5.74465 33.9916C3.65023 38.788 7.81256 39.3093 8.74047 39.7525C7.97163 40.9776 7.38837 41.9943 7.57395 44.21C4.28651 44.0275 1.42325 40.8473 0.919525 37.8496C0.230221 33.8874 3.06697 30.0294 5.74465 30.1337C5.98325 29.8991 5.6386 29.9251 6.46046 29.8209C11.6833 29.4299 15.1828 33.3399 12.187 37.5628C11.153 39.0487 8.26326 39.6221 6.67256 37.9278C6.00977 37.224 5.55906 35.9988 6.16883 34.8518C6.30139 34.6172 6.85814 34.0438 7.12325 33.9134C7.86558 33.5224 8.05116 33.6267 8.63442 33.9134C9.08512 34.4348 6.85814 35.7381 8.34279 37.7714C11.3651 36.4419 9.85396 31.4631 6.51349 33.3399ZM72.6336 29.7948L73.2964 30.1337C75.0462 30.1076 76.5043 31.6456 77.1406 32.7143C78.0685 34.2262 78.5192 35.9988 78.095 38.006C77.4852 41.0037 74.7015 43.9754 71.4406 44.1839C71.6527 41.7075 71.1755 41.2383 70.2476 39.7264C71.6527 39.0487 72.501 39.3354 73.3229 37.9538C74.0387 36.7287 74.0652 35.5557 73.3759 34.3566C73.0843 34.0177 72.7662 33.6788 72.448 33.3399C68.975 31.2285 67.6229 37.1979 70.9103 37.7192C71.361 35.2689 71.202 35.8424 70.5392 34.539C70.3536 34.1741 70.4862 34.4869 70.4066 34.148V33.8874C72.4745 32.8968 74.2243 36.1031 72.2359 38.006C70.3801 39.7525 67.6759 38.7098 66.748 37.3804C63.8317 33.2096 67.5434 29.4038 72.6336 29.7948ZM8.63442 35.7121C8.68744 35.4775 8.87303 35.3211 9.00558 35.1386C9.00558 35.1646 9.48279 34.6433 9.13814 35.9206C9.05861 36.1813 8.89954 36.3377 8.76698 36.5201C8.76698 36.5201 8.31628 36.9112 8.63442 35.7121ZM70.4066 35.8945C70.5922 37.1718 70.3536 36.2855 70.221 36.5201C70.062 36.2855 69.8499 36.0509 69.8234 35.7642C69.6113 34.4869 69.8764 35.3471 69.9824 35.1386C70.1945 35.3993 70.3801 35.5817 70.4066 35.8945ZM14.5995 46.4257C14.8647 45.4351 14.8381 45.4351 15.5805 45.0963C15.4214 46.139 15.3949 46.1129 14.5995 46.4257ZM63.4075 45.0963C64.1499 45.4351 64.1499 45.4351 64.415 46.4257C63.6196 46.139 63.5666 46.139 63.4075 45.0963ZM20.4851 56.3312C20.5647 55.2625 20.5647 55.3668 21.2805 54.9497C21.1214 56.0966 21.0419 55.836 20.4851 56.3312ZM57.734 54.9236C57.9992 55.08 57.9992 54.8194 58.3438 55.3668C58.6089 55.7838 58.5029 55.836 58.5294 56.3312C57.9992 55.9663 57.8136 55.862 57.734 54.9236Z" fill="#DCB36C"/>
<path fill-rule="evenodd" clip-rule="evenodd" d="M12.5316 20.1504C13.8042 20.5414 14.7586 20.802 15.9251 20.2807C17.1712 19.7333 17.5158 19.1859 18.0991 18.1171C15.4744 16.9441 13.38 18.065 12.5316 20.1504ZM13.7512 19.6551C14.3874 18.6906 15.2093 18.3778 16.8795 18.4299C16.1902 19.5508 15.3949 20.02 13.7512 19.6551Z" fill="#DCB36C"/>
<path fill-rule="evenodd" clip-rule="evenodd" d="M60.8889 18.1174C61.9494 20.1506 63.5136 21.063 66.4829 20.1506C65.5815 17.8567 63.5401 17.1529 60.8889 18.1174ZM65.2633 19.6814C63.6196 19.9681 62.8243 19.5771 62.1085 18.4562C63.8317 18.378 64.6271 18.7169 65.2633 19.6814Z" fill="#DCB36C"/>
<path fill-rule="evenodd" clip-rule="evenodd" d="M21.5986 51.5089C22.0493 53.464 24.9126 54.6631 26.7419 53.3597C26.0526 51.4829 24.0642 50.8312 21.5986 51.5089ZM22.7651 51.9521C24.3558 51.9 24.727 52.0042 25.4958 52.8905C23.8256 53.6986 22.9772 52.1085 22.7651 51.9521Z" fill="#DCB36C"/>
<path fill-rule="evenodd" clip-rule="evenodd" d="M52.2726 53.334C54.261 54.7677 56.9386 53.334 57.3893 51.4832C55.0033 50.8576 52.9089 51.5353 52.2726 53.334ZM53.4391 53.0212C53.9958 52.0567 54.7647 51.9003 56.2758 51.9524C55.507 52.969 54.9503 53.2558 53.4391 53.0212Z" fill="#DCB36C"/>
<path fill-rule="evenodd" clip-rule="evenodd" d="M60.6503 14.5715C62.6387 14.2587 63.4871 12.0169 62.2675 10.0098C60.3322 10.7136 59.8019 12.2776 60.6503 14.5715ZM61.9759 11.1307C62.241 12.825 61.9229 12.7208 61.154 13.581C60.7829 12.6165 60.8889 12.7729 61.101 11.8084L61.9759 11.1307Z" fill="#DCB36C"/>
<path fill-rule="evenodd" clip-rule="evenodd" d="M18.3641 14.5979C19.186 12.2779 18.7088 10.7399 16.7204 10.0361C15.5804 11.9651 16.4022 14.3112 18.3641 14.5979ZM17.8339 13.5813C17.065 12.7211 16.7734 12.8253 17.065 11.0788L17.9134 11.7826C18.099 12.7732 18.1785 12.6168 17.8339 13.5813Z" fill="#DCB36C"/>
<path fill-rule="evenodd" clip-rule="evenodd" d="M25.2042 58.0002C25.2837 56.9315 25.2042 55.967 24.7005 55.211C24.3028 54.5854 23.64 53.9598 22.7386 54.1683C22.4204 56.3059 23.5074 57.5571 25.2042 58.0002ZM23.5074 55.2371C24.0642 55.6802 24.3028 55.8106 24.4618 56.8272C23.7991 56.4883 23.64 56.2277 23.5074 55.2371Z" fill="#DCB36C"/>
<path fill-rule="evenodd" clip-rule="evenodd" d="M53.8104 57.9999C55.6132 57.5047 56.5146 56.3577 56.276 54.0898C54.3406 54.1159 53.6513 55.9146 53.8104 57.9999ZM54.8178 56.8269C54.7913 56.8008 54.2081 56.9312 54.7648 55.9406C55.0299 55.4453 55.189 55.3932 55.5867 55.2889C55.295 56.1752 55.2685 56.2534 54.8178 56.8269Z" fill="#DCB36C"/>
<path fill-rule="evenodd" clip-rule="evenodd" d="M18.921 50.1534C19.6103 50.5705 20.2996 50.9354 21.3601 50.7269C21.5722 50.6748 22.4206 50.2838 22.5001 50.2316C23.375 49.6321 22.8447 50.1013 23.1364 49.3453C22.6592 49.215 19.9285 47.7813 18.921 50.1534ZM20.5913 49.58C20.7238 49.5017 20.4852 49.4496 21.1745 49.3975C21.6782 49.3453 21.3601 49.3975 21.7843 49.5278C21.9699 50.1534 21.8903 49.6582 21.5987 49.8667L20.2466 49.8146L20.5913 49.58Z" fill="#DCB36C"/>
<path fill-rule="evenodd" clip-rule="evenodd" d="M3.72986 41.4988C5.61219 42.5414 7.09684 41.6291 7.75963 40.2215C6.11591 39.1266 4.26009 40.1172 3.72986 41.4988ZM6.40754 40.5864C6.24847 40.7949 6.27498 41.0556 5.69172 41.1338C4.52521 41.3163 5.188 41.0295 4.97591 40.8471L6.40754 40.5864Z" fill="#DCB36C"/>
<path fill-rule="evenodd" clip-rule="evenodd" d="M16.9856 27.7885V27.215C16.5615 25.651 15.607 24.9211 13.7512 25.0254C14.0694 27.1368 14.7587 27.6061 16.9856 27.7885ZM15.0503 25.9378C15.9252 26.1724 15.7661 26.042 16.0312 26.9022L14.8912 26.1202L14.5731 25.7292L15.0503 25.9378Z" fill="#DCB36C"/>
<path fill-rule="evenodd" clip-rule="evenodd" d="M16.2698 22.7047C16.6675 23.1739 16.4554 23.0175 17.0651 23.1478C18.3377 22.4961 18.8149 21.662 18.5763 19.6548C16.8265 19.7851 16.4288 20.906 16.2698 22.7047ZM17.4893 21.9487L16.9591 22.3397L17.2507 21.5577L17.834 20.6453L17.4893 21.9487Z" fill="#DCB36C"/>
<path fill-rule="evenodd" clip-rule="evenodd" d="M61.9495 27.7616C64.0704 27.6834 65.2634 26.8753 65.2369 25.0245C63.0895 24.7899 62.2146 25.9108 61.9495 27.7616ZM63.9378 25.9108L64.3885 25.6762C64.3355 26.5104 64.4416 25.8847 64.1234 26.1193C63.7257 26.5886 63.7523 26.6407 62.9834 26.8753C63.2485 26.0411 63.0895 26.1715 63.9378 25.9108Z" fill="#DCB36C"/>
<path fill-rule="evenodd" clip-rule="evenodd" d="M61.9493 23.1478C62.5326 23.0175 62.3735 23.1478 62.7447 22.7047C62.5856 20.906 62.188 19.7851 60.4647 19.6548C60.1996 21.4795 60.7033 22.5483 61.9493 23.1478ZM61.7903 21.5316L62.0289 22.3136L61.5517 21.9226L61.207 20.6453L61.7903 21.5316Z" fill="#DCB36C"/>
<path fill-rule="evenodd" clip-rule="evenodd" d="M60.0406 28.9608C61.7374 28.1788 62.3472 26.1716 61.0746 24.9204C59.5104 25.7285 59.3778 27.1101 60.0406 28.9608ZM60.5709 26.302L61.1011 26.0934L60.889 27.1361L60.3853 27.7096L60.5709 26.302Z" fill="#DCB36C"/>
<path fill-rule="evenodd" clip-rule="evenodd" d="M12.8234 42.4378C14.1489 41.9165 15.4215 40.6653 14.3875 38.606C12.8233 38.8666 12.134 40.6913 12.8234 42.4378ZM13.4596 41.1345C13.062 40.3785 13.4066 40.1179 13.9368 39.7008C13.9103 40.6131 14.0164 40.4567 13.4596 41.1345Z" fill="#DCB36C"/>
<path fill-rule="evenodd" clip-rule="evenodd" d="M17.3038 27.1619L17.4894 27.5008C17.834 28.3089 18.1522 28.5956 18.9475 28.9605C19.6103 27.1619 19.4247 25.3893 17.6485 24.894C17.4629 25.6239 17.2773 26.2756 17.3038 27.1619ZM18.4438 26.3017L18.5233 27.7614L18.1522 27.1358L17.9931 26.0671L18.4438 26.3017Z" fill="#DCB36C"/>
<path fill-rule="evenodd" clip-rule="evenodd" d="M17.4629 51.9258C16.2433 53.4898 17.0387 55.3406 18.3908 55.888C19.5838 54.1676 18.815 52.6817 17.4629 51.9258ZM18.1257 54.715C17.5954 54.0894 17.5689 54.2197 17.675 53.1249C18.2847 53.7244 18.2052 53.7505 18.1257 54.715Z" fill="#DCB36C"/>
<path fill-rule="evenodd" clip-rule="evenodd" d="M74.94 36.5726C76.2921 36.0252 77.22 33.9137 75.8679 32.6104C74.6749 33.262 73.694 34.8782 74.94 36.5726ZM75.4438 35.4256C75.2051 35.0867 75.2051 35.7645 75.1786 34.6957C75.1786 34.5654 75.3377 33.9659 75.3642 33.8355C75.7089 34.3047 75.8945 33.9919 75.4438 35.4256Z" fill="#DCB36C"/>
<path fill-rule="evenodd" clip-rule="evenodd" d="M60.6237 55.888C62.0024 55.3667 62.7712 53.5159 61.5517 51.9258C60.173 52.6557 59.4307 54.1676 60.6237 55.888ZM60.8624 54.715C60.8093 53.7505 60.7033 53.6984 61.3131 53.1249C61.4191 54.2197 61.4191 54.0894 60.8624 54.715Z" fill="#DCB36C"/>
<path fill-rule="evenodd" clip-rule="evenodd" d="M9.24423 43.7408C11.0735 43.4541 11.7894 41.9943 11.3121 40.0132C9.50935 40.4824 9.03214 41.6033 9.24423 43.7408ZM10.3312 41.3165L10.8614 41.1341L10.6759 41.6294C10.4638 42.4114 10.6228 42.1768 9.90702 42.646L10.3312 41.3165Z" fill="#DCB36C"/>
<path fill-rule="evenodd" clip-rule="evenodd" d="M69.7438 43.7416C69.9824 41.6823 69.4256 40.4832 67.6759 40.04C67.1456 42.0211 67.9145 43.4549 69.7438 43.7416ZM68.6568 41.2913L69.081 42.6207C68.3917 42.1515 68.5242 42.3861 68.3122 41.6041L68.1266 41.0567L68.6568 41.2913Z" fill="#DCB36C"/>
<path fill-rule="evenodd" clip-rule="evenodd" d="M76.955 37.5375C76.955 37.0162 77.061 37.3029 76.7164 36.9901C74.834 36.964 73.641 37.5375 73.4819 39.2319C75.3378 39.4404 76.5308 39.1276 76.955 37.5375ZM75.3908 37.9025L76.2126 37.6418L75.7619 38.111C75.2847 38.5802 75.2847 38.5541 74.5159 38.4759L75.3908 37.9025Z" fill="#DCB36C"/>
<path fill-rule="evenodd" clip-rule="evenodd" d="M2.03294 37.5638C2.45713 39.0235 3.59713 39.4406 5.53248 39.2321C5.37341 37.5638 4.15388 36.9382 2.29806 36.9903C1.9269 37.3292 2.03294 37.0164 2.03294 37.5638ZM3.59713 37.9026L4.47202 38.4761C3.72969 38.5543 3.70318 38.6065 3.27899 38.0851L2.80178 37.642L3.59713 37.9026Z" fill="#DCB36C"/>
<path fill-rule="evenodd" clip-rule="evenodd" d="M55.8782 49.3459C56.1698 50.0758 56.7265 50.6232 57.84 50.7535C58.8475 50.8838 59.4572 50.545 60.0935 50.154C59.3247 48.4335 57.5219 48.6681 55.8782 49.3459ZM58.3968 49.5805L58.7679 49.8151C58.0256 50.154 58.0521 50.0236 57.3893 49.8672C57.0977 49.6587 57.0182 50.18 57.1772 49.5283C58.1317 49.2416 57.6279 49.2416 58.3968 49.5805Z" fill="#DCB36C"/>
<path fill-rule="evenodd" clip-rule="evenodd" d="M4.04792 36.6506C5.34699 35.1648 4.39258 33.0272 2.96095 32.6362C2.19211 34.6173 2.61629 35.8164 4.04792 36.6506ZM3.67676 33.8353C4.07444 36.1814 3.86234 35.0344 3.59722 35.4254L3.33211 34.6434C3.27908 33.1054 3.19955 34.4349 3.67676 33.8353Z" fill="#DCB36C"/>
<path fill-rule="evenodd" clip-rule="evenodd" d="M66.1647 42.4376C66.9336 40.5347 66.1117 39.0228 64.4945 38.5015C64.2294 40.8997 64.2294 41.6035 66.1647 42.4376ZM65.0512 39.7006C65.2368 39.8309 65.4489 39.857 65.661 40.3522L65.555 41.1082C64.9717 40.4826 65.1043 40.639 65.0512 39.7006Z" fill="#DCB36C"/>
<path fill-rule="evenodd" clip-rule="evenodd" d="M71.2815 40.2218C72.1564 42.1769 73.2168 41.9162 75.2848 41.6555C74.9136 40.1697 72.8457 39.1009 71.2815 40.2218ZM74.0387 40.8474C74.0387 40.8474 74.2773 41.447 73.1108 41.1081C72.395 40.8996 72.6336 40.665 72.5806 40.4825L74.0387 40.8474Z" fill="#DCB36C"/>
<path fill-rule="evenodd" clip-rule="evenodd" d="M72.5276 33.0016C72.7397 33.158 72.8192 33.1841 73.1109 33.4447C73.1374 33.4708 73.1904 33.5229 73.2434 33.549L73.429 33.7575C73.4555 33.7836 73.482 33.8357 73.5085 33.8618C74.1183 34.0182 74.0918 33.8618 74.2509 33.2623C74.3569 32.8713 74.3304 32.2978 74.2509 31.8807C74.0653 30.9944 73.6411 30.6555 73.0313 30.3167L72.4216 30.2124C72.289 31.3072 72.289 32.0371 72.5276 33.0016ZM73.0048 31.4376C73.5351 31.8286 73.7737 31.9589 73.2965 32.7409L73.0048 31.4376Z" fill="#DCB36C"/>
<path fill-rule="evenodd" clip-rule="evenodd" d="M5.3469 34.0963C5.69156 33.4968 6.0097 33.3143 6.40737 32.9755C6.96412 31.5418 6.53993 31.5157 6.64597 30.2905L5.95667 30.3427C5.42644 30.6555 5.02876 30.8901 4.79016 31.7242C4.49853 32.793 4.68411 33.4447 5.3469 34.0963ZM5.63853 32.7408C5.24085 32.011 5.45295 31.8546 6.0097 31.4636C6.0097 32.3759 6.08923 32.0631 5.63853 32.7408Z" fill="#DCB36C"/>
<path fill-rule="evenodd" clip-rule="evenodd" d="M11.1001 29.0654C13.0885 29.4564 13.9368 29.0393 14.4936 27.4753C12.6643 27.1885 11.4978 27.3971 11.1001 29.0654ZM12.2931 28.1009L13.3006 28.0487L12.6908 28.4919L12.2136 28.6744L12.2931 28.1009Z" fill="#DCB36C"/>
<path fill-rule="evenodd" clip-rule="evenodd" d="M64.4945 27.4754C65.0778 29.0395 65.9261 29.4826 67.9145 29.0655C67.4903 27.4233 66.4033 27.1887 64.4945 27.4754ZM66.6685 28.101L66.8275 28.7006L66.2708 28.492C65.714 28.2314 66.0587 28.8831 65.7936 28.0228L66.6685 28.101Z" fill="#DCB36C"/>
<path fill-rule="evenodd" clip-rule="evenodd" d="M7.36194 32.5323C8.44891 32.6105 9.64194 32.4541 10.0396 31.4635C10.5433 30.2123 10.0926 30.8379 10.0131 30.6294C8.39589 30.3426 7.33542 30.9943 7.36194 32.5323ZM8.34287 31.8545C8.58148 30.9682 7.86566 31.6199 9.11171 31.2029C8.50194 32.037 9.82752 31.5417 8.34287 31.8545Z" fill="#DCB36C"/>
<path fill-rule="evenodd" clip-rule="evenodd" d="M9.82751 32.5063C9.93356 34.2268 10.4108 34.9045 12.2136 35.0609C12.3461 33.1841 11.4447 32.6888 9.82751 32.5063ZM10.6494 33.4708C11.4447 33.7576 11.2591 33.2884 11.2857 34.1225C10.1191 33.6533 11.0736 33.94 10.6494 33.4708Z" fill="#DCB36C"/>
<path fill-rule="evenodd" clip-rule="evenodd" d="M66.801 35.0346C68.5773 34.8782 69.028 34.3047 69.2136 32.48C67.4638 32.7146 66.695 33.1838 66.801 35.0346ZM67.7289 34.1222C67.5698 33.0274 67.9145 33.6269 68.3652 33.4445C68.047 33.9658 68.2326 33.9137 67.7289 34.1222Z" fill="#DCB36C"/>
<path fill-rule="evenodd" clip-rule="evenodd" d="M71.4141 32.6365C71.6792 32.3498 71.4671 32.5844 71.6792 32.037C71.202 30.864 70.4331 30.3947 69.0015 30.6554C68.975 30.7076 68.9485 30.7336 68.9485 30.8118C68.9485 30.89 68.8955 30.9422 68.922 30.9682C68.9485 31.4114 68.8689 31.0986 69.028 31.4635C69.4257 32.428 70.4862 32.5323 71.4141 32.6365ZM69.9294 31.255C70.9899 31.5938 70.4597 30.9422 70.6452 31.8284C69.4787 31.5417 70.3801 31.8284 69.9294 31.255Z" fill="#DCB36C"/>
<path fill-rule="evenodd" clip-rule="evenodd" d="M18.6028 32.1934L18.4703 32.1152C18.1256 32.5584 18.2317 32.5844 18.4438 32.9494L18.6028 32.1934Z" fill="#DCB36C"/>
<path fill-rule="evenodd" clip-rule="evenodd" d="M61.9495 23.1482L62.4532 23.435L62.7183 22.7051C62.3737 23.1222 62.5327 23.0179 61.9495 23.1482Z" fill="#DCB36C"/>
<path fill-rule="evenodd" clip-rule="evenodd" d="M17.0651 23.1482C16.4554 23.0179 16.6675 23.1743 16.2698 22.7051L16.4819 23.4089L17.0651 23.1482Z" fill="#DCB36C"/>
<path fill-rule="evenodd" clip-rule="evenodd" d="M18.6028 32.1936L18.4437 32.9495C18.2582 32.5846 18.1521 32.5585 18.4703 32.1154C18.3112 31.2812 18.3642 27.5536 15.4479 28.0749C14.467 28.2574 13.8572 29.1698 13.6451 29.9779C13.3535 31.0727 13.8572 32.0111 14.3344 32.5846C15.5275 31.8286 16.0047 30.6295 15.2358 28.9873C18.5763 27.3972 18.5763 35.7126 13.0884 37.6156C15.1033 33.6794 13.6451 30.6817 9.2707 29.1437C10.1191 28.466 11.0735 28.2053 11.4977 27.1626C13.3005 22.8876 6.27488 21.6103 6.61953 27.1105C8.89954 26.6152 8.52837 26.2502 9.24419 24.2691C11.7363 24.1909 11.6037 27.319 8.95256 28.3356C6.75209 29.1958 4.89628 29.0394 3.04046 30.3949C-2.20885 34.2007 -0.406059 42.9072 6.48698 44.784C8.5814 45.3575 7.57395 45.0447 8.63442 46.5827C9.21768 47.4429 9.82744 47.9642 10.6758 48.4856C13.5921 50.2582 19.8754 51.0402 21.1479 53.8033C20.273 55.2109 19.4247 54.7678 19.8754 57.4788C20.8298 57.3224 21.6516 56.6446 21.9433 55.8626C23.1628 52.6303 19.4512 50.9359 16.5614 50.0496C18.0726 49.2676 21.0419 47.6254 18.8149 44.9144C18.2582 44.2366 16.8265 43.611 15.5009 44.2106C14.0693 44.8622 13.8572 46.0092 13.8572 47.469C16.1902 47.0258 16.1372 45.931 16.4819 45.2011C16.6409 44.8362 16.6144 44.9144 16.8 44.6798C20.0344 45.3315 19.2921 49.6326 14.9177 49.1894C13.5921 49.0591 12.1605 48.5117 11.1 47.8339C10.1721 47.2604 9.03209 46.1395 8.82 45.0968C11.2856 45.0186 13.3535 44.2106 14.7586 43.0115C16.8 41.291 16.6144 41.1086 18.1786 38.5279L19.8223 38.4758C19.9549 46.3741 25.4428 51.1705 32.1503 53.8815C33.7145 54.5071 37.7177 55.8105 39.5205 55.8105C43.7094 55.8105 50.5759 52.3435 52.7498 50.6492C54.7912 49.0591 55.7722 48.3813 57.2568 45.8528C58.6354 43.5328 59.1922 41.6038 59.2187 38.5279C61.8699 38.4497 60.4647 38.6061 62.2145 40.9522C63.9908 43.3764 66.748 44.9926 70.2476 45.1229C69.8499 47.0258 66.9336 48.8245 64.3885 49.1633C59.855 49.7629 58.9801 45.3315 62.294 44.6798C62.3471 44.7319 62.4001 44.758 62.4001 44.8622C62.4266 44.9665 62.4796 44.9926 62.5061 45.0187C62.9568 45.931 62.8508 46.9998 65.2368 47.469C65.2368 41.4474 57.8136 44.1584 59.8815 48.0946C60.5178 49.2676 61.3396 49.3458 62.5061 50.0496C60.6503 50.6231 58.4499 51.5355 57.628 52.6824C56.1964 54.7157 57.0712 57.0878 59.1922 57.4527C59.6429 54.7417 58.7945 55.1849 57.9196 53.7772C59.5103 50.2582 67.3313 50.7274 70.3271 46.687C71.3345 45.3315 70.4596 45.2793 72.395 44.784C79.6592 42.9072 80.9583 33.9922 76.1596 30.4471C73.588 28.5442 68.7364 28.9612 68.1531 26.5109C67.8085 25.1033 68.3652 24.1388 69.7968 24.217C70.4862 26.0156 70.115 26.563 72.4215 27.0583C72.7131 22.8615 69.1606 23.1743 68.2327 23.826C67.3313 24.4516 67.0396 25.781 67.5434 27.1105C67.9145 28.0749 68.9485 28.3878 69.7703 29.0655C65.4489 30.6556 63.8582 33.4187 65.9527 37.5374C60.5443 35.6084 60.2526 27.5275 63.8052 28.9091C63.1159 30.3428 63.328 31.6462 64.7066 32.5064C67.0396 29.639 63.275 26.0938 61.2601 28.9612C60.6503 29.8214 60.7564 30.9684 60.5443 32.0111C61.0215 32.5324 60.5178 33.0017 60.4117 32.1154C59.2452 30.2125 59.0861 26.9019 59.1922 24.4255C59.3247 21.0368 59.7489 19.4988 60.7829 16.7878C63.381 17.231 65.1573 16.6314 65.8466 14.7024C62.4266 13.738 62.1085 14.4157 60.2526 16.2926C59.961 14.0508 59.2717 12.591 57.1773 12.1739C56.7796 12.0697 56.488 11.9393 56.5145 12.4346L56.6736 13.5555C56.8061 14.911 57.4424 15.5105 58.3703 16.0058L59.3512 16.5793C58.8475 24.3213 55.3745 33.3666 66.2178 38.5279C68.3122 39.5185 71.361 39.7791 70.6452 44.2627C65.9527 44.6016 63.1424 41.656 61.4457 37.6938L58.5559 37.6677C58.0787 40.0919 58.821 41.291 56.8592 44.9405C55.9047 46.7391 54.0754 48.642 52.5908 49.7629C50.0457 51.6658 43.8684 54.9763 39.494 54.9763C34.1652 54.9763 24.9921 50.2842 22.1554 44.9405C20.4321 41.682 21.0949 41.1086 20.4321 37.6416L17.5423 37.6677C16.4554 40.1701 16.0577 41.0564 14.2814 42.3337C12.6907 43.4807 10.9144 44.4712 8.34279 44.2627C7.25581 37.5634 14.0693 40.6654 18.4437 33.9661C19.8489 31.8026 20.6177 28.9091 20.5912 25.8071C20.5647 22.4966 19.6898 19.3685 19.6368 16.449C21.1214 15.9276 22.2084 15.1977 22.2879 13.5555C22.4205 12.4085 22.8182 12.1218 21.8372 12.2C19.7428 12.6953 19.0005 14.0247 18.7354 16.3186C16.8265 14.3375 16.5879 13.8422 13.1414 14.7285C13.5126 15.7712 13.9898 16.2404 14.9972 16.6836C16.2433 17.257 16.9326 16.8921 17.6749 16.9442C20.2465 17.1788 20.4056 28.9873 18.6028 32.1936ZM20.0344 15.4845L19.5307 15.7451L19.8223 14.9892C20.0875 13.9204 20.6442 13.3991 21.7577 13.1123C21.4661 14.4939 21.1214 15.0153 20.0344 15.4845ZM59.1922 15.0153L59.4308 15.8233L58.9536 15.4845C57.9196 15.0153 57.4954 14.4678 57.2833 13.1123C58.4233 13.4252 58.9271 13.9204 59.1922 15.0153ZM17.4893 16.2404C16.0842 16.4229 14.8116 16.2665 14.52 15.1717C16.0047 15.0674 16.9326 15.2759 17.4893 16.2404ZM61.5252 16.2404C62.082 15.2759 63.0099 15.0674 64.521 15.1717C64.2294 16.2665 62.9303 16.4229 61.5252 16.2404ZM7.44139 26.0156C7.41488 25.1815 7.65349 25.0251 8.31628 24.6341C8.1307 25.7028 8.1307 25.4682 7.44139 26.0156ZM71.5731 26.0156C70.8838 25.4943 70.8838 25.6768 70.6982 24.6341C71.361 25.0511 71.5731 25.1815 71.5731 26.0156ZM14.3079 30.4992C14.2814 29.639 14.6261 29.7954 14.6261 29.7954C14.9707 30.5253 14.8116 30.5253 14.6791 31.2812C14.414 30.9684 14.3609 31.8547 14.3079 30.4992ZM64.7066 30.4992C64.7066 31.7765 64.4945 31.0727 64.3089 31.3073C64.1764 30.5513 64.0173 30.5513 64.362 29.8214C64.362 29.8214 64.7066 29.5086 64.7066 30.4992ZM6.51349 33.3405C6.03628 33.4709 5.95674 33.6533 5.74465 33.9922C3.65023 38.7886 7.81256 39.3099 8.74047 39.7531C7.97163 40.9782 7.38837 41.9948 7.57395 44.2106C4.28651 44.0281 1.42325 40.8479 0.919525 37.8502C0.230221 33.8879 3.06697 30.03 5.74465 30.1343C5.98325 29.8996 5.6386 29.9257 6.46046 29.8214C11.6833 29.4304 15.1828 33.3405 12.187 37.5634C11.153 39.0492 8.26326 39.6227 6.67256 37.9284C6.00977 37.2245 5.55906 35.9994 6.16883 34.8524C6.30139 34.6178 6.85814 34.0443 7.12325 33.914C7.86558 33.523 8.05116 33.6273 8.63442 33.914C9.08512 34.4353 6.85814 35.7387 8.34279 37.772C11.3651 36.4425 9.85396 31.4637 6.51349 33.3405ZM72.6336 29.7954L73.2964 30.1343C75.0462 30.1082 76.5043 31.6462 77.1406 32.7149C78.0685 34.2268 78.5192 35.9994 78.095 38.0066C77.4852 41.0043 74.7015 43.976 71.4406 44.1845C71.6527 41.7081 71.1755 41.2389 70.2476 39.727C71.6527 39.0493 72.501 39.336 73.3229 37.9544C74.0387 36.7293 74.0652 35.5562 73.3759 34.3571C73.0843 34.0183 72.7662 33.6794 72.448 33.3405C68.975 31.2291 67.6229 37.1985 70.9103 37.7198C71.361 35.2695 71.202 35.843 70.5392 34.5396C70.3536 34.1747 70.4862 34.4875 70.4066 34.1486V33.8879C72.4745 32.8974 74.2243 36.1037 72.2359 38.0066C70.3801 39.7531 67.6759 38.7104 66.748 37.3809C63.8317 33.2102 67.5434 29.4044 72.6336 29.7954ZM8.63442 35.7126C8.68744 35.478 8.87303 35.3216 9.00558 35.1392C9.00558 35.1652 9.48279 34.6439 9.13814 35.9212C9.05861 36.1819 8.89954 36.3383 8.76698 36.5207C8.76698 36.5207 8.31628 36.9117 8.63442 35.7126ZM70.4066 35.8951C70.6452 37.407 69.8764 36.0254 69.8234 35.7387C69.5848 34.2007 70.3801 35.6344 70.4066 35.8951ZM14.5995 46.4263C14.8647 45.4357 14.8381 45.4357 15.5805 45.0968C15.4214 46.1395 15.3949 46.1135 14.5995 46.4263ZM63.4075 45.0968C64.1499 45.4357 64.1499 45.4357 64.415 46.4263C63.6196 46.1395 63.5666 46.1395 63.4075 45.0968ZM20.4851 56.3318C20.5647 55.2631 20.5647 55.3673 21.2805 54.9503C21.1214 56.0972 21.0419 55.8366 20.4851 56.3318ZM57.734 54.9242C57.9992 55.0806 57.9992 54.8199 58.3438 55.3674C58.6089 55.7844 58.5029 55.8366 58.5294 56.3318C57.9992 55.9669 57.8136 55.8626 57.734 54.9242Z" fill="#DCB36C"/>
<path fill-rule="evenodd" clip-rule="evenodd" d="M12.5316 20.1504C13.8042 20.5414 14.7586 20.802 15.9251 20.2807C17.1712 19.7333 17.5158 19.1859 18.0991 18.1171C15.4744 16.9441 13.38 18.065 12.5316 20.1504ZM13.7512 19.6551C14.3874 18.6906 15.2093 18.3778 16.8795 18.4299C16.1902 19.5508 15.3949 20.02 13.7512 19.6551Z" fill="#DCB36C"/>
<path fill-rule="evenodd" clip-rule="evenodd" d="M60.8889 18.1174C61.9494 20.1506 63.5136 21.063 66.4829 20.1506C65.5815 17.8567 63.5401 17.1529 60.8889 18.1174ZM65.2633 19.6814C63.6196 19.9681 62.8243 19.5771 62.1085 18.4562C63.8317 18.378 64.6271 18.7169 65.2633 19.6814Z" fill="#DCB36C"/>
<path fill-rule="evenodd" clip-rule="evenodd" d="M21.5986 51.5089C22.0493 53.464 24.9126 54.6631 26.7419 53.3597C26.0526 51.4829 24.0642 50.8312 21.5986 51.5089ZM22.7651 51.9521C24.3558 51.9 24.727 52.0042 25.4958 52.8905C23.8256 53.6986 22.9772 52.1085 22.7651 51.9521Z" fill="#DCB36C"/>
<path fill-rule="evenodd" clip-rule="evenodd" d="M52.2726 53.334C54.261 54.7677 56.9386 53.334 57.3893 51.4832C55.0033 50.8576 52.9089 51.5353 52.2726 53.334ZM53.4391 53.0212C53.9958 52.0567 54.7647 51.9003 56.2758 51.9524C55.507 52.969 54.9503 53.2558 53.4391 53.0212Z" fill="#DCB36C"/>
<path fill-rule="evenodd" clip-rule="evenodd" d="M60.6503 14.5715C62.6387 14.2587 63.4871 12.0169 62.2675 10.0098C60.3322 10.7136 59.8019 12.2776 60.6503 14.5715ZM61.9759 11.1307C62.241 12.825 61.9229 12.7208 61.154 13.581C60.7829 12.6165 60.8889 12.7729 61.101 11.8084L61.9759 11.1307Z" fill="#DCB36C"/>
<path fill-rule="evenodd" clip-rule="evenodd" d="M18.3641 14.5979C19.186 12.2779 18.7088 10.7399 16.7204 10.0361C15.5804 11.9651 16.4022 14.3112 18.3641 14.5979ZM17.8339 13.5813C17.065 12.7211 16.7734 12.8253 17.065 11.0788L17.9134 11.7826C18.099 12.7732 18.1785 12.6168 17.8339 13.5813Z" fill="#DCB36C"/>
<path fill-rule="evenodd" clip-rule="evenodd" d="M25.2042 58.0002C25.2837 56.9315 25.2042 55.967 24.7005 55.211C24.3028 54.5854 23.64 53.9598 22.7386 54.1683C22.4204 56.3059 23.5074 57.5571 25.2042 58.0002ZM23.5074 55.2371C24.0642 55.6802 24.3028 55.8106 24.4618 56.8272C23.7991 56.4883 23.64 56.2277 23.5074 55.2371Z" fill="#DCB36C"/>
<path fill-rule="evenodd" clip-rule="evenodd" d="M53.8104 57.9999C55.6132 57.5047 56.5146 56.3577 56.276 54.0898C54.3406 54.1159 53.6513 55.9146 53.8104 57.9999ZM54.8178 56.8269C54.7913 56.8008 54.2081 56.9312 54.7648 55.9406C55.0299 55.4453 55.189 55.3932 55.5867 55.2889C55.295 56.1752 55.2685 56.2534 54.8178 56.8269Z" fill="#DCB36C"/>
<path fill-rule="evenodd" clip-rule="evenodd" d="M18.921 50.1534C19.6103 50.5705 20.2996 50.9354 21.3601 50.7269C21.5722 50.6748 22.4206 50.2838 22.5001 50.2316C23.375 49.6321 22.8447 50.1013 23.1364 49.3453C22.6592 49.215 19.9285 47.7813 18.921 50.1534ZM20.5913 49.58C20.7238 49.5017 20.4852 49.4496 21.1745 49.3975C21.6782 49.3453 21.3601 49.3975 21.7843 49.5278C21.9699 50.1534 21.8903 49.6582 21.5987 49.8667L20.2466 49.8146L20.5913 49.58Z" fill="#DCB36C"/>
<path fill-rule="evenodd" clip-rule="evenodd" d="M3.72986 41.4988C5.61219 42.5414 7.09684 41.6291 7.75963 40.2215C6.11591 39.1266 4.26009 40.1172 3.72986 41.4988ZM6.40754 40.5864C6.24847 40.7949 6.27498 41.0556 5.69172 41.1338C4.52521 41.3163 5.188 41.0295 4.97591 40.8471L6.40754 40.5864Z" fill="#DCB36C"/>
<path fill-rule="evenodd" clip-rule="evenodd" d="M16.9856 27.7885V27.215C16.5615 25.651 15.607 24.9211 13.7512 25.0254C14.0694 27.1368 14.7587 27.6061 16.9856 27.7885ZM15.0503 25.9378C15.9252 26.1724 15.7661 26.042 16.0312 26.9022L14.8912 26.1202L14.5731 25.7292L15.0503 25.9378Z" fill="#DCB36C"/>
<path fill-rule="evenodd" clip-rule="evenodd" d="M16.2698 22.7047C16.6675 23.1739 16.4554 23.0175 17.0651 23.1478C18.3377 22.4961 18.8149 21.662 18.5763 19.6548C16.8265 19.7851 16.4288 20.906 16.2698 22.7047ZM17.4893 21.9487L16.9591 22.3397L17.2507 21.5577L17.834 20.6453L17.4893 21.9487Z" fill="#DCB36C"/>
<path fill-rule="evenodd" clip-rule="evenodd" d="M61.9495 27.7616C64.0704 27.6834 65.2634 26.8753 65.2369 25.0245C63.0895 24.7899 62.2146 25.9108 61.9495 27.7616ZM63.9378 25.9108L64.3885 25.6762C64.6271 25.9369 64.4416 25.9369 64.1234 26.1193C63.7257 26.5886 63.7523 26.6407 62.9834 26.8753C63.2485 26.0411 63.0895 26.1715 63.9378 25.9108Z" fill="#DCB36C"/>
<path fill-rule="evenodd" clip-rule="evenodd" d="M61.9493 23.1478C62.5326 23.0175 62.3735 23.1478 62.7447 22.7047C62.5856 20.906 62.188 19.7851 60.4647 19.6548C60.1996 21.4795 60.7033 22.5483 61.9493 23.1478ZM61.7903 21.5316L62.0289 22.3136L61.5517 21.9226L61.207 20.6453L61.7903 21.5316Z" fill="#DCB36C"/>
<path fill-rule="evenodd" clip-rule="evenodd" d="M60.0406 28.9608C61.7374 28.1788 62.3472 26.1716 61.0746 24.9204C59.5104 25.7285 59.3778 27.1101 60.0406 28.9608ZM60.5709 26.302L61.1011 26.0934L60.889 27.1361L60.3853 27.7096L60.5709 26.302Z" fill="#DCB36C"/>
<path fill-rule="evenodd" clip-rule="evenodd" d="M12.8234 42.4378C14.1489 41.9165 15.4215 40.6653 14.3875 38.606C12.8233 38.8666 12.134 40.6913 12.8234 42.4378ZM13.4596 41.1345C13.062 40.3785 13.4066 40.1179 13.9368 39.7008C13.9103 40.6131 14.0164 40.4567 13.4596 41.1345Z" fill="#DCB36C"/>
<path fill-rule="evenodd" clip-rule="evenodd" d="M17.3038 27.1619L17.4894 27.5008C17.834 28.3089 18.1522 28.5956 18.9475 28.9605C19.6103 27.1619 19.4247 25.3893 17.6485 24.894C17.4629 25.6239 17.2773 26.2756 17.3038 27.1619ZM18.4438 26.3017L18.5233 27.7614L18.1522 27.1358L17.9931 26.0671L18.4438 26.3017Z" fill="#DCB36C"/>
<path fill-rule="evenodd" clip-rule="evenodd" d="M17.4629 51.9258C16.2433 53.4898 17.0387 55.3406 18.3908 55.888C19.5838 54.1676 18.815 52.6817 17.4629 51.9258ZM18.1257 54.715C17.5954 54.0894 17.5689 54.2197 17.675 53.1249C18.2847 53.7244 18.2052 53.7505 18.1257 54.715Z" fill="#DCB36C"/>
<path fill-rule="evenodd" clip-rule="evenodd" d="M74.94 36.5726C76.2921 36.0252 77.22 33.9137 75.8679 32.6104C74.6749 33.262 73.694 34.8782 74.94 36.5726ZM75.4438 35.4256C75.3112 35.556 75.2051 35.7645 75.1786 34.6957C75.1786 34.5654 75.3377 33.9659 75.3642 33.8355C75.7089 34.3047 75.8945 33.9919 75.4438 35.4256Z" fill="#DCB36C"/>
<path fill-rule="evenodd" clip-rule="evenodd" d="M60.6237 55.888C62.0024 55.3667 62.7712 53.5159 61.5517 51.9258C60.173 52.6557 59.4307 54.1676 60.6237 55.888ZM60.8624 54.715C60.8093 53.7505 60.7033 53.6984 61.3131 53.1249C61.4191 54.2197 61.4191 54.0894 60.8624 54.715Z" fill="#DCB36C"/>
<path fill-rule="evenodd" clip-rule="evenodd" d="M9.24423 43.7408C11.0735 43.4541 11.7894 41.9943 11.3121 40.0132C9.50935 40.4824 9.03214 41.6033 9.24423 43.7408ZM10.3312 41.3165L10.8614 41.1341L10.6759 41.6294C10.4638 42.4114 10.6228 42.1768 9.90702 42.646L10.3312 41.3165Z" fill="#DCB36C"/>
<path fill-rule="evenodd" clip-rule="evenodd" d="M69.7438 43.7416C69.9824 41.6823 69.4256 40.4832 67.6759 40.04C67.1456 42.0211 67.9145 43.4549 69.7438 43.7416ZM68.6568 41.2913L69.081 42.6207C68.3917 42.1515 68.5242 42.3861 68.3122 41.6041L68.1266 41.0567L68.6568 41.2913Z" fill="#DCB36C"/>
<path fill-rule="evenodd" clip-rule="evenodd" d="M76.955 37.5375C76.955 37.0162 77.061 37.3029 76.7164 36.9901C74.834 36.964 73.641 37.5375 73.4819 39.2319C75.3378 39.4404 76.5308 39.1276 76.955 37.5375ZM75.3908 37.9025L76.2126 37.6418L75.7619 38.111C75.2847 38.5802 75.2847 38.5541 74.5159 38.4759L75.3908 37.9025Z" fill="#DCB36C"/>
<path fill-rule="evenodd" clip-rule="evenodd" d="M2.03294 37.5638C2.45713 39.0235 3.59713 39.4406 5.53248 39.2321C5.37341 37.5638 4.15388 36.9382 2.29806 36.9903C1.9269 37.3292 2.03294 37.0164 2.03294 37.5638ZM3.59713 37.9026L4.47202 38.4761C3.72969 38.5543 3.70318 38.6065 3.27899 38.0851L2.80178 37.642L3.59713 37.9026Z" fill="#DCB36C"/>
<path fill-rule="evenodd" clip-rule="evenodd" d="M55.8782 49.3459C56.1698 50.0758 56.7265 50.6232 57.84 50.7535C58.8475 50.8838 59.4572 50.545 60.0935 50.154C59.3247 48.4335 57.5219 48.6681 55.8782 49.3459ZM58.3968 49.5805L58.7679 49.8151C58.0256 50.154 58.0521 50.0236 57.3893 49.8672C57.0977 49.6587 57.0182 50.18 57.1772 49.5283C58.1317 49.2416 57.6279 49.2416 58.3968 49.5805Z" fill="#DCB36C"/>
<path fill-rule="evenodd" clip-rule="evenodd" d="M4.04792 36.6506C5.34699 35.1648 4.39258 33.0272 2.96095 32.6362C2.19211 34.6173 2.61629 35.8164 4.04792 36.6506ZM3.67676 33.8353C4.36606 37.7975 2.45722 32.5841 3.67676 33.8353V33.8353Z" fill="#DCB36C"/>
<path fill-rule="evenodd" clip-rule="evenodd" d="M66.1647 42.4376C66.9336 40.5347 66.1117 39.0228 64.4945 38.5015C64.2294 40.8997 64.2294 41.6035 66.1647 42.4376ZM65.0512 39.7006C65.2368 39.8309 65.4489 39.857 65.661 40.3522L65.555 41.1082C64.9717 40.4826 65.1043 40.639 65.0512 39.7006Z" fill="#DCB36C"/>
<path fill-rule="evenodd" clip-rule="evenodd" d="M71.2815 40.2218C72.1564 42.1769 73.2168 41.9162 75.2848 41.6555C74.9136 40.1697 72.8457 39.1009 71.2815 40.2218ZM74.0387 40.8474C74.0387 40.8474 74.2773 41.447 73.1108 41.1081C72.395 40.8996 72.6336 40.665 72.5806 40.4825L74.0387 40.8474Z" fill="#DCB36C"/>
<path fill-rule="evenodd" clip-rule="evenodd" d="M72.5276 33.0016C72.7397 33.158 72.8192 33.1841 73.1109 33.4447C73.1374 33.4708 73.1904 33.5229 73.2434 33.549L73.429 33.7575C73.4555 33.7836 73.482 33.8357 73.5085 33.8618C74.1183 34.0182 74.0918 33.8618 74.2509 33.2623C74.3569 32.8713 74.3304 32.2978 74.2509 31.8807C74.0653 30.9944 73.6411 30.6555 73.0313 30.3167L72.4216 30.2124C72.289 31.3072 72.289 32.0371 72.5276 33.0016ZM73.0048 31.4376C73.5351 31.8286 73.7737 31.9589 73.2965 32.7409L73.0048 31.4376Z" fill="#DCB36C"/>
<path fill-rule="evenodd" clip-rule="evenodd" d="M5.3469 34.0963C5.69156 33.4968 6.0097 33.3143 6.40737 32.9755C6.96412 31.5418 6.53993 31.5157 6.64597 30.2905L5.95667 30.3427C5.42644 30.6555 5.02876 30.8901 4.79016 31.7242C4.49853 32.793 4.68411 33.4447 5.3469 34.0963ZM5.63853 32.7408C5.24085 32.011 5.45295 31.8546 6.0097 31.4636C6.0097 32.3759 6.08923 32.0631 5.63853 32.7408Z" fill="#DCB36C"/>
<path fill-rule="evenodd" clip-rule="evenodd" d="M11.1001 29.0654C13.0885 29.4564 13.9368 29.0393 14.4936 27.4753C12.6643 27.1885 11.4978 27.3971 11.1001 29.0654ZM12.2931 28.1009L13.3006 28.0487L12.6908 28.4919L12.2136 28.6744L12.2931 28.1009Z" fill="#DCB36C"/>
<path fill-rule="evenodd" clip-rule="evenodd" d="M64.4945 27.4754C65.0778 29.0395 65.9261 29.4826 67.9145 29.0655C67.4903 27.4233 66.4033 27.1887 64.4945 27.4754ZM66.6685 28.101L66.8275 28.7006L66.2708 28.492C65.714 28.2314 66.0587 28.8831 65.7936 28.0228L66.6685 28.101Z" fill="#DCB36C"/>
<path fill-rule="evenodd" clip-rule="evenodd" d="M7.36194 32.5323C8.44891 32.6105 9.64194 32.4541 10.0396 31.4635C10.5433 30.2123 10.0926 30.8379 10.0131 30.6294C8.39589 30.3426 7.33542 30.9943 7.36194 32.5323ZM8.34287 31.8545C8.58148 30.9682 7.86566 31.6199 9.11171 31.2029C8.50194 32.037 9.82752 31.5417 8.34287 31.8545Z" fill="#DCB36C"/>
<path fill-rule="evenodd" clip-rule="evenodd" d="M9.82751 32.5063C9.93356 34.2268 10.4108 34.9045 12.2136 35.0609C12.3461 33.1841 11.4447 32.6888 9.82751 32.5063ZM10.6494 33.4708C11.4447 33.7576 11.2591 33.2884 11.2857 34.1225C10.1191 33.6533 11.0736 33.94 10.6494 33.4708Z" fill="#DCB36C"/>
<path fill-rule="evenodd" clip-rule="evenodd" d="M66.801 35.0346C68.5773 34.8782 69.028 34.3047 69.2136 32.48C67.4638 32.7146 66.695 33.1838 66.801 35.0346ZM67.7289 34.1222C67.5698 33.0274 67.9145 33.6269 68.3652 33.4445C68.047 33.9658 68.2326 33.9137 67.7289 34.1222Z" fill="#DCB36C"/>
<path fill-rule="evenodd" clip-rule="evenodd" d="M71.4141 32.6365C71.6792 32.3498 71.4671 32.5844 71.6792 32.037C71.202 30.864 70.4331 30.3947 69.0015 30.6554C68.975 30.7076 68.9485 30.7336 68.9485 30.8118C68.9485 30.89 68.8955 30.9422 68.922 30.9682C68.9485 31.4114 68.8689 31.0986 69.028 31.4635C69.4257 32.428 70.4862 32.5323 71.4141 32.6365ZM69.9294 31.255C70.9899 31.5938 70.4597 30.9422 70.6452 31.8284C69.4787 31.5417 70.3801 31.8284 69.9294 31.255Z" fill="#DCB36C"/>
<path fill-rule="evenodd" clip-rule="evenodd" d="M18.6028 32.1934L18.4703 32.1152C18.1256 32.5584 18.2317 32.5844 18.4438 32.9494L18.6028 32.1934Z" fill="#DCB36C"/>
<path fill-rule="evenodd" clip-rule="evenodd" d="M61.9495 23.1482L62.4532 23.435L62.7183 22.7051C62.3737 23.1222 62.5327 23.0179 61.9495 23.1482Z" fill="#DCB36C"/>
<path fill-rule="evenodd" clip-rule="evenodd" d="M17.0651 23.1482C16.4554 23.0179 16.6675 23.1743 16.2698 22.7051L16.4819 23.4089L17.0651 23.1482Z" fill="#DCB36C"/>
<path fill-rule="evenodd" clip-rule="evenodd" d="M31.8057 3.85813C32.3359 5.37003 32.3889 3.96239 32.7866 6.15204L32.9457 6.90799C32.9722 6.96013 32.9987 7.0644 33.0517 7.1426C34.1652 7.11653 34.9075 6.82979 35.6233 6.38665C34.0592 5.50036 33.2903 5.76104 33.741 3.25858C32.6275 2.91971 33.688 3.28465 33.0517 2.97184L32.5745 2.73723C32.495 2.6851 32.3889 2.65903 32.3094 2.6069C32.2298 2.58083 32.1238 2.5287 32.0178 2.47656L31.8057 3.85813Z" fill="#DCB36C"/>
<path fill-rule="evenodd" clip-rule="evenodd" d="M43.02 3.51895C43.3647 5.99533 42.7814 5.865 41.1112 6.62095C41.8005 7.03802 42.5693 7.32476 43.6828 7.42903C44.107 6.49061 43.7624 6.46454 44.054 5.60433C44.5577 4.01422 45.3 5.31758 44.6638 2.78906L43.02 3.51895Z" fill="#DCB36C"/>
<path fill-rule="evenodd" clip-rule="evenodd" d="M31.302 10.3751C31.249 10.6097 31.1694 10.9485 31.1164 11.1831C31.0634 11.4178 31.0103 11.6002 31.0103 11.6784C30.9838 11.7566 30.9838 11.7827 30.9838 11.8088C30.9838 11.8348 30.9838 11.8609 31.0103 11.887C31.0369 11.913 31.1164 11.887 31.302 11.887C31.5141 11.8609 31.8322 11.8609 32.4685 11.7566C33.0783 11.6784 33.9797 11.522 34.722 11.3656C35.4643 11.2353 36.0476 11.1049 36.5513 11.0007C37.055 10.9225 37.4262 10.8703 37.9299 10.8703C38.4336 10.8703 39.0434 10.9225 39.7857 11.0007C40.528 11.0789 41.4029 11.1831 42.2778 11.3135C43.1527 11.4438 44.0011 11.5742 44.5843 11.6524C45.1676 11.7306 45.4592 11.7827 45.6713 11.8348C45.8834 11.8609 46.016 11.887 46.0955 11.887C46.1485 11.887 46.1485 11.8609 46.069 11.522C45.9894 11.1832 45.8304 10.5575 45.7508 10.1926C45.6713 9.85372 45.6448 9.77552 45.6713 9.72339C45.6978 9.67125 45.7243 9.64518 45.8834 9.48878C46.0425 9.35844 46.2811 9.09777 46.4401 8.9153C46.5992 8.70676 46.7053 8.55036 46.7583 8.39396C46.8113 8.23755 46.8378 8.05508 46.8643 7.89868C46.8908 7.74228 46.9704 7.58587 47.2355 7.22093C47.5006 6.85599 47.9778 6.28251 48.1899 5.9697C48.4285 5.65689 48.402 5.57869 48.3755 5.21375C48.3225 4.84881 48.2694 4.17106 48.2164 3.80612C48.1899 3.46725 48.1899 3.46725 47.8187 3.67579C47.4741 3.88432 46.7583 4.27533 46.4136 4.48387C46.069 4.69241 46.069 4.69241 46.069 4.79668C46.069 4.90094 46.0955 5.10948 46.122 5.31802C46.122 5.52656 46.122 5.7351 46.0955 5.91757C46.069 6.12611 46.016 6.30858 45.9629 6.49105C45.9099 6.67352 45.8304 6.80385 45.7243 6.96026C45.6183 7.11666 45.4592 7.247 45.2736 7.37733C45.088 7.50767 44.8494 7.61194 44.6373 7.69014C44.4253 7.76834 44.2132 7.79441 43.9746 7.82048C43.7359 7.82048 43.4708 7.82048 43.1527 7.76834C42.8345 7.71621 42.4899 7.63801 42.1452 7.50767C41.8271 7.4034 41.5355 7.247 41.2704 7.09059C41.0318 6.93419 40.8197 6.77779 40.6341 6.62138C40.4485 6.46498 40.3159 6.30858 40.1834 6.12611C40.0508 5.94364 39.9713 5.76116 39.8918 5.55263C39.8122 5.34409 39.7592 5.13555 39.7327 4.92701C39.7062 4.71847 39.7062 4.53601 39.7327 4.3014C39.7592 4.06679 39.8387 3.80612 39.8918 3.54545C39.9448 3.28478 39.9978 2.99804 40.0773 2.76343C40.1569 2.52883 40.2364 2.37242 40.2629 2.26815C40.2629 2.16389 40.2099 2.11175 40.0508 1.95535C39.8918 1.79894 39.6266 1.56434 39.3615 1.1994C39.0964 0.834457 38.8048 0.339179 38.6457 0.130642C38.4866 -0.0778963 38.4336 -0.025763 38.3011 0.208842C38.142 0.443447 37.8769 0.886591 37.6118 1.22546C37.3466 1.56434 37.0815 1.79894 36.8694 2.03355C36.6838 2.26815 36.5778 2.47669 36.5248 2.6331C36.4983 2.7895 36.5513 2.84163 36.6573 3.0241C36.7634 3.20658 36.9224 3.49332 37.0285 3.78006C37.161 4.06679 37.2406 4.3796 37.2671 4.71848C37.2936 5.05735 37.2406 5.42229 37.1345 5.7351C37.0285 6.0479 36.8429 6.28251 36.6308 6.51712C36.4187 6.75172 36.1271 6.96026 35.7824 7.1688C35.4378 7.37733 34.9871 7.53374 34.6159 7.63801C34.2448 7.74228 33.9531 7.76834 33.6085 7.76834C33.2638 7.76834 32.8927 7.71621 32.5745 7.63801C32.2564 7.55981 31.9648 7.42947 31.6997 7.27306C31.461 7.11666 31.249 6.90812 31.1164 6.69958C30.9838 6.49105 30.9308 6.25644 30.9043 5.9697C30.8778 5.68296 30.9308 5.31802 30.9573 5.05735C30.9838 4.79668 31.0103 4.61421 31.0103 4.50994C31.0103 4.40567 30.9573 4.3796 30.6657 4.24926C30.3741 4.09286 29.8173 3.83219 29.4992 3.67579C29.1545 3.51938 29.022 3.44118 28.9689 3.44118C28.8894 3.44118 28.8894 3.46725 28.8629 3.72792C28.8364 3.98859 28.7834 4.4578 28.7569 4.79668C28.7303 5.13555 28.7303 5.31802 28.7834 5.47443C28.8364 5.63083 28.9424 5.70903 29.075 5.83937C29.2075 5.9697 29.3931 6.10004 29.4992 6.25644C29.6317 6.38678 29.6848 6.51711 29.7643 6.69958C29.8438 6.85599 29.9234 7.06453 30.0029 7.37733C30.0824 7.66407 30.162 8.08115 30.2415 8.36789C30.321 8.68069 30.4006 8.88923 30.5862 9.04564C30.7717 9.20204 31.0369 9.30631 31.1959 9.43664C31.355 9.54091 31.3815 9.67125 31.3815 9.82765C31.408 9.98406 31.355 10.1405 31.302 10.3751Z" fill="#DCB36C"/>
<path fill-rule="evenodd" clip-rule="evenodd" d="M37.6647 8.44616L38.3805 7.24707L39.2023 8.62863L38.4865 9.85379L37.6647 8.44616Z" fill="#DCB36C"/>
<path fill-rule="evenodd" clip-rule="evenodd" d="M33.7675 9.25419L34.2182 8.47217L34.7484 9.38452L34.2977 10.1665L33.7675 9.25419Z" fill="#DCB36C"/>
<path fill-rule="evenodd" clip-rule="evenodd" d="M42.1453 9.15018L42.596 8.36816L43.1262 9.25445L42.6755 10.0365L42.1453 9.15018Z" fill="#DCB36C"/>
<path fill-rule="evenodd" clip-rule="evenodd" d="M45.3266 13.9043C42.7398 13.3852 39.9296 12.9592 37.5663 13.0591C35.228 13.158 33.3125 13.7726 30.9475 14.5564C29.779 14.948 28.5348 15.3667 27.4153 15.7903C26.2834 16.2186 25.3315 16.6328 24.7255 17.0067C24.1451 17.3648 23.9459 17.6476 23.8541 17.8716C23.7459 18.1355 23.7335 18.4256 23.7193 18.9703C23.693 20.0591 23.6665 21.4605 23.6665 23.982C23.6665 26.5385 23.6935 30.18 23.9812 33.1887L23.9815 33.192L23.9818 33.1953C24.2422 36.1912 24.7601 38.5651 25.601 40.6948C26.4362 42.8099 27.6136 44.7058 29.7562 46.5399L29.7582 46.5416L29.7602 46.5433C31.9398 48.4342 35.1028 50.2471 37.1231 51.1639C38.1276 51.6197 38.7736 51.8147 39.2863 51.8725C39.7768 51.9277 40.1992 51.8638 40.7806 51.6972C41.9637 51.3504 43.5598 50.6693 44.9289 50.0222L44.9319 50.0208L44.9349 50.0194C46.2631 49.4048 47.3062 48.8646 48.5025 47.8844C49.7275 46.8807 51.1355 45.4192 52.0711 44.1014C52.9909 42.806 53.4659 41.6328 53.8792 40.4391C54.2726 39.3028 54.5828 38.2056 54.7924 34.4443C54.9836 31.0141 55.0667 25.4451 55.1202 21.8623C55.1257 21.4906 55.131 21.1403 55.136 20.816C55.1629 19.0692 55.1738 18.1443 55.1166 17.5821C55.0892 17.3123 55.0505 17.185 55.0203 17.1172C54.9968 17.0646 54.966 17.0181 54.879 16.9367C54.456 16.5405 53.4846 16.0106 51.8125 15.4712C50.1596 14.9379 47.9153 14.3978 45.3342 13.9057L45.3304 13.905L45.3266 13.9043ZM45.6409 12.371C43.0322 11.8477 40.0646 11.3879 37.4979 11.4965C34.9055 11.6061 32.7915 12.2947 30.4381 13.0747L30.4381 13.0747L30.4355 13.0756C29.2712 13.4658 27.9974 13.8942 26.8439 14.3306C25.7024 14.7626 24.6262 15.2216 23.8801 15.6819C23.1084 16.1579 22.6315 16.6702 22.3787 17.2868C22.1559 17.8303 22.1423 18.391 22.1312 18.8484C22.1305 18.8763 22.1298 18.9038 22.1291 18.931L22.1291 18.9324C22.1024 20.0332 22.0758 21.447 22.0758 23.982C22.0758 26.5337 22.1019 30.2415 22.3971 33.3318C22.667 36.4341 23.2096 38.9599 24.1181 41.2609C25.0324 43.5765 26.3466 45.6944 28.7096 47.7178C31.0369 49.7363 34.3416 51.6242 36.4565 52.584C37.5199 53.0666 38.3453 53.3408 39.1052 53.4264C39.8867 53.5144 40.5376 53.3961 41.2279 53.1982L41.23 53.1975L41.2322 53.1969C42.5399 52.8139 44.2283 52.0887 45.6148 51.4333C46.9896 50.7972 48.1729 50.1904 49.5209 49.086C50.841 48.0043 52.3493 46.442 53.3755 44.9967C54.4176 43.529 54.95 42.1997 55.3851 40.9431C55.8401 39.629 56.1662 38.3803 56.3807 34.5299C56.5738 31.0653 56.6574 25.4619 56.7107 21.8867C56.7163 21.5141 56.7215 21.1635 56.7265 20.8397C56.7526 19.1456 56.7682 18.1024 56.6994 17.4265C56.6639 17.0771 56.6015 16.7679 56.4768 16.4886C56.3454 16.1942 56.1674 15.9832 55.976 15.8041C55.2856 15.1575 54.03 14.5405 52.3085 13.9851C50.5688 13.4238 48.2545 12.8694 45.6409 12.371Z" fill="#DCB36C"/>
</svg>
