<svg width="22" height="19" viewBox="0 0 22 19" fill="none" xmlns="http://www.w3.org/2000/svg">
<path fill-rule="evenodd" clip-rule="evenodd" d="M19 0.716797H3C1.34806 0.716797 0.00999965 2.06415 0.00999965 3.7168L0 15.716C0 17.3691 1.34772 18.7168 3 18.7168H19C20.6523 18.7168 22 17.3691 22 15.7168V3.7168C22 2.06451 20.6523 0.716797 19 0.716797ZM4.48404 6.71646C4.01099 6.43144 3.85856 5.81689 4.14359 5.34384C4.42861 4.87079 5.04316 4.71836 5.51621 5.00339L10.9711 8.29009L16.6633 4.86041C17.1363 4.57538 17.7517 4.72919 18.0367 5.20224C18.3211 5.67421 18.1709 6.28867 17.6998 6.57457L11.0095 10.6351L11.0037 10.6447L4.48404 6.71646Z" fill="#DCB36C"/>
</svg>
