<svg width="18" height="19" viewBox="0 0 18 19" fill="none" xmlns="http://www.w3.org/2000/svg">
<path fill-rule="evenodd" clip-rule="evenodd" d="M3.62 8.43844C5.06 11.2684 7.38 13.5784 10.21 15.0284L12.41 12.8284C12.68 12.5584 13.08 12.4684 13.43 12.5884C14.55 12.9584 15.76 13.1584 17 13.1584C17.55 13.1584 18 13.6084 18 14.1584V17.6484C18 18.1984 17.55 18.6484 17 18.6484C7.61 18.6484 0 11.0384 0 1.64844C0 1.09844 0.45 0.648438 1 0.648438H4.5C5.05 0.648438 5.5 1.09844 5.5 1.64844C5.5 2.89844 5.7 4.09844 6.07 5.21844C6.18 5.56844 6.1 5.95844 5.82 6.23844L3.62 8.43844Z" fill="#DCB36C"/>
</svg>
