<svg width="20" height="20" viewBox="0 0 20 20" fill="none" xmlns="http://www.w3.org/2000/svg">
<path fill-rule="evenodd" clip-rule="evenodd" d="M8.8605 6.33823C9.37855 5.6401 9.56431 4.90432 8.97841 4.25485C7.66359 2.41506 6.77934 1.27734 6.2247 0.72944C5.17024 -0.312188 3.43565 -0.171291 2.52242 0.72855C2.03191 1.21186 1.86585 1.37784 1.36221 1.88939C-1.44316 4.69627 0.267702 10.6299 4.81578 15.1825C9.36283 19.734 15.2959 21.4457 18.1072 18.6329C18.5719 18.1849 18.9654 17.7912 19.2757 17.4632C20.1707 16.5173 20.3065 14.8592 19.2698 13.782C18.7383 13.2297 17.6534 12.3882 15.7362 11.0168C15.149 10.4917 14.4528 10.6055 13.8145 11.0243C13.5075 11.2257 13.284 11.4295 12.8621 11.8518L12.096 12.6184C11.995 12.7194 10.6248 12.0332 9.29465 10.7017C7.96379 9.36956 7.27804 7.99922 7.37848 7.89879L8.14517 7.13168C8.27904 6.99768 8.34303 6.93281 8.42511 6.84655C8.5961 6.66684 8.73767 6.50375 8.8605 6.33823ZM13.5092 14.0326L14.2755 13.2658C14.5077 13.0334 14.6582 12.8905 14.7806 12.7919C16.4601 13.998 17.4328 14.7564 17.8301 15.1692C18.0686 15.4171 18.0316 15.8693 17.8242 16.0885C17.5372 16.3918 17.1644 16.7648 16.7069 17.2061C14.889 19.0247 10.0997 17.6429 6.22933 13.7688C2.35774 9.89336 0.976615 5.10332 2.78075 3.2982C3.28236 2.78874 3.44128 2.6299 3.92479 2.15348C4.10607 1.97485 4.59989 1.93474 4.82042 2.15259C5.24744 2.57442 6.03956 3.58867 7.20481 5.21185C7.14449 5.28674 7.06914 5.37137 6.97746 5.46774C6.91016 5.53846 6.85409 5.59529 6.73153 5.71798L5.96559 6.48435C4.66257 7.78726 5.77226 10.0047 7.881 12.1156C9.9883 14.2249 12.2066 15.3359 13.5092 14.0326ZM11.6587 0.0702209C15.9816 0.594206 19.4093 4.02191 19.9332 8.34479L17.958 8.67399C17.5766 5.19198 14.8115 2.42684 11.3295 2.04546L11.6587 0.0702209ZM10.9999 4.02245C13.6412 4.25869 15.7448 6.36228 15.981 9.00354L13.9994 9.3338C13.9154 7.53309 12.4704 6.08812 10.6697 6.00403L10.9999 4.02245Z" fill="#DCB36C"/>
</svg>
