<svg width="21" height="22" viewBox="0 0 21 22" fill="none" xmlns="http://www.w3.org/2000/svg">
<path d="M10.2758 0.683594C4.60974 0.683594 0 5.29333 0 10.9594C0 16.6255 4.60974 21.2352 10.2758 21.2352C15.9419 21.2352 20.5516 16.6255 20.5516 10.9594C20.5516 5.29333 15.9419 0.683594 10.2758 0.683594ZM10.2758 19.0487C5.81542 19.0487 2.18631 15.42 2.18631 10.9594C2.18631 6.4988 5.81542 2.87011 10.2758 2.87011C14.7362 2.87011 18.3653 6.4988 18.3653 10.9594C18.3653 15.42 14.7362 19.0487 10.2758 19.0487Z" fill="#DCB36C"/>
<path d="M15.6312 10.6418H11.0132V5.08926C11.0132 4.622 10.6343 4.24316 10.1671 4.24316C9.69982 4.24316 9.32098 4.622 9.32098 5.08926V11.4878C9.32098 11.9551 9.69982 12.3339 10.1671 12.3339H15.6312C16.0984 12.3339 16.4773 11.9551 16.4773 11.4878C16.4773 11.0206 16.0984 10.6418 15.6312 10.6418Z" fill="#DCB36C"/>
</svg>
